<svg id="Слой_1" data-name="Слой 1" xmlns="http://www.w3.org/2000/svg" xmlns:xlink="http://www.w3.org/1999/xlink" viewBox="0 0 2186.46 1915.66"><defs><style>.cls-1{fill:#ffba55;}.cls-2{fill:#78c2ff;}.cls-3{fill:#8f8f8f;}.cls-4{fill:#f0f0f0;}.cls-5{fill:#fff;}.cls-6{fill:url(#linear-gradient);}.cls-7{fill:#ccc;}.cls-8{fill:#f5f7ff;}.cls-9{fill:#e6e6e6;}.cls-10{fill:#f3f3f3;}.cls-11{fill:url(#linear-gradient-2);}.cls-12{fill:url(#linear-gradient-3);}.cls-13{fill:url(#linear-gradient-4);}.cls-14{fill:url(#linear-gradient-5);}.cls-15{fill:url(#linear-gradient-6);}.cls-16{fill:url(#linear-gradient-7);}.cls-17{fill:#eea886;}.cls-18{fill:#112230;}.cls-19{fill:#f0c141;}.cls-20{fill:#152b3d;}.cls-21{fill:#3a3f47;}.cls-22{fill:#1d3b54;}.cls-23{fill:#d6d6d6;}.cls-24{fill:url(#linear-gradient-8);}.cls-25{fill:#c9e0ff;}.cls-26{fill:#4aafff;}.cls-27{fill:#1a598c;}.cls-28{fill:#2273b5;}.cls-29{fill:#3788cc;}.cls-30{fill:#e2f3fe;}.cls-31{fill:#3b3b40;}.cls-32{fill:#eb4747;}.cls-33{fill:#434343;}.cls-34{fill:#a33131;}.cls-35{fill:#d1c0ba;}.cls-36{fill:#eea987;}.cls-37{fill:#a87860;}.cls-38{fill:#162d40;}.cls-39{fill:#0e1e2b;}.cls-40{fill:#eddad3;}.cls-41{fill:#db9c7c;}.cls-42{fill:#fccca2;}.cls-43{fill:#ab3434;}.cls-44{fill:#353a3d;}.cls-45{fill:#81807e;}.cls-46{fill:#2d3133;}.cls-47{fill:#decbc4;}.cls-48{fill:#495055;}.cls-49{fill:#a77860;}.cls-50{fill:#3c4145;}.cls-51{fill:#51565c;}.cls-52{fill:#f5e2d9;}.cls-53{fill:#323657;}.cls-54{fill:#ad9f99;}.cls-55{fill:#69737a;}.cls-56{fill:#d9c9c2;}</style><linearGradient id="linear-gradient" x1="693.91" y1="477.55" x2="1887.19" y2="477.55" gradientTransform="translate(2581.1 955.11) rotate(-180)" gradientUnits="userSpaceOnUse"><stop offset="0" stop-color="#ff9f55"/><stop offset="1" stop-color="#ffd255"/></linearGradient><linearGradient id="linear-gradient-2" x1="1993.89" y1="1283.54" x2="2229.48" y2="1283.54" gradientUnits="userSpaceOnUse"><stop offset="0" stop-color="#40d5e6"/><stop offset="1" stop-color="#57f"/></linearGradient><linearGradient id="linear-gradient-3" x1="2166.72" y1="1415.01" x2="2379.76" y2="1415.01" xlink:href="#linear-gradient-2"/><linearGradient id="linear-gradient-4" x1="2184.93" y1="1445.99" x2="2344.83" y2="1445.99" xlink:href="#linear-gradient-2"/><linearGradient id="linear-gradient-5" x1="2127.18" y1="1317.31" x2="2313.41" y2="1317.31" xlink:href="#linear-gradient-2"/><linearGradient id="linear-gradient-6" x1="1891.15" y1="1549.17" x2="2062.99" y2="1549.17" gradientUnits="userSpaceOnUse"><stop offset="0" stop-color="#ff9340"/><stop offset="1" stop-color="#ffce45"/></linearGradient><linearGradient id="linear-gradient-7" x1="2084.45" y1="1584.42" x2="2256.29" y2="1584.42" gradientUnits="userSpaceOnUse"><stop offset="0" stop-color="#c97332"/><stop offset="1" stop-color="#ffce45"/></linearGradient><linearGradient id="linear-gradient-8" x1="857.78" y1="597.84" x2="857.78" y2="820.34" gradientUnits="userSpaceOnUse"><stop offset="0" stop-color="#d3dae0"/><stop offset="1" stop-color="#fff"/></linearGradient></defs><title>hero2</title><path class="cls-1" d="M758.08,949.49c-.19,0-19.57.18-46.61-4.93-25-4.71-61.75-15-95.34-37.35-33.26-22.11-76.39-29.85-106.71-32.45a354.49,354.49,0,0,0-58.45-.34l-.21-2.09a357,357,0,0,1,58.84.34c30.57,2.62,74.07,10.44,107.69,32.79,33.28,22.13,69.77,32.35,94.52,37,26.84,5.07,46.05,4.91,46.25,4.9Z" transform="translate(-193.3 -35.26)"/><path class="cls-1" d="M782.17,961.91c-22.17,25-116.33,40.51-172.22,11.3-30.88-16.14-55.38-35-77-51.65-28.17-21.69-52.5-40.43-82.34-47.16l-2.61-.59,2.31-1.34c.43-.25,44.17-25.28,106.58-29.46a257.07,257.07,0,0,1,106.57,15.17c42.54,15.64,82.36,43,118.35,81.22l-.77.72.77-.72c6.34,6.74,6.89,14,1.58,21Q782.84,961.16,782.17,961.91ZM453.77,873c29.07,7.32,53,25.71,80.48,46.91,21.54,16.59,46,35.4,76.68,51.45,25.24,13.19,61.51,18.38,99.5,14.23,32.16-3.51,59.92-13.49,70.18-25.08q.6-.68,1.12-1.36c4.67-6.16,4.19-12.31-1.44-18.28-80.94-86-166-99.55-223.16-95.75C503.42,848.68,463.67,867.81,453.77,873Z" transform="translate(-193.3 -35.26)"/><rect class="cls-1" x="537.87" y="844.21" width="2.1" height="38.83" transform="translate(-585.59 417.12) rotate(-34.21)"/><rect class="cls-1" x="529.74" y="904.01" width="53.53" height="2.1" transform="translate(-659.6 582.21) rotate(-42.71)"/><rect class="cls-1" x="613.41" y="846.11" width="2.1" height="60.31" transform="translate(-257.01 13.07) rotate(-4.28)"/><path class="cls-1" d="M747.85,862.95c-.25-.09-25.51-9.09-57.68-31.18-29.68-20.37-71.51-56.38-102.24-112.22C552.3,654.83,513.56,614,487.33,591.17c-28.42-24.75-48.67-34.32-48.88-34.41l.85-1.83c.2.1,20.66,9.74,49.27,34.65,26.37,23,65.33,64,101.12,129,30.54,55.49,72.11,91.28,101.61,111.53C723.26,852,748.27,861,748.51,861Z" transform="translate(-193.3 -35.26)"/><path class="cls-1" d="M824.9,857.87l-5.69,1c-.19,0-18.85,3.38-47.57,2.87-26.5-.47-67.26-4.4-111-20.48-49.13-18.07-91.89-47.49-127.08-87.43-44-49.9-76.15-116.44-95.69-197.79l-.22-.92.9-.28c.33-.1,33.32-10.18,76.44.19,25.31,6.08,49.13,17.91,70.79,35.15,27,21.52,50.78,51.59,70.54,89.36,44.53,85.11,86.52,128.82,113.9,150.51,29.55,23.4,48.74,26.8,48.93,26.84ZM440.09,556.55c44.17,182.69,144.62,254.64,221.19,282.83,43.43,16,84,19.91,110.3,20.38A293.72,293.72,0,0,0,814,857.64c-7.56-2.39-23.47-8.94-45-26-27.54-21.81-69.74-65.74-114.44-151.16-44.44-84.93-100.67-114-140-123.48C475.92,547.75,445.63,555,440.09,556.55Z" transform="translate(-193.3 -35.26)"/><rect class="cls-1" x="560.73" y="698.91" width="2.02" height="80.81" transform="translate(-394.67 1233.04) rotate(-87.5)"/><rect class="cls-1" x="575.42" y="584.37" width="2.02" height="113.4" transform="translate(-193.98 -34.64) rotate(-0.06)"/><rect class="cls-1" x="490.99" y="592.55" width="2.02" height="65.47" transform="translate(-351.43 1048.7) rotate(-87.01)"/><path class="cls-2" d="M2089,460,2058.45,410a8.71,8.71,0,0,1,14.87-9.08l21.62,35.4,57.49-34a8.71,8.71,0,0,1,8.87,15Z" transform="translate(-193.3 -35.26)"/><path class="cls-2" d="M2109.56,537.2a110,110,0,1,1,110-110A110.1,110.1,0,0,1,2109.56,537.2Zm0-204.23a94.26,94.26,0,1,0,94.26,94.26A94.37,94.37,0,0,0,2109.56,333Z" transform="translate(-193.3 -35.26)"/><path class="cls-2" d="M1748.46,298.28l-18.9-30.94a5.38,5.38,0,1,1,9.19-5.61l13.36,21.88,35.53-21a5.38,5.38,0,1,1,5.48,9.27Z" transform="translate(-193.3 -35.26)"/><path class="cls-2" d="M1761.15,346a68,68,0,1,1,68-68A68,68,0,0,1,1761.15,346Zm0-126.21A58.25,58.25,0,1,0,1819.4,278,58.32,58.32,0,0,0,1761.15,219.77Z" transform="translate(-193.3 -35.26)"/><path class="cls-2" d="M1399,184.08l-29-47.46A8.26,8.26,0,0,1,1384.1,128l20.5,33.56,54.5-32.25a8.26,8.26,0,1,1,8.41,14.21Z" transform="translate(-193.3 -35.26)"/><path class="cls-2" d="M1418.46,257.25A104.25,104.25,0,1,1,1522.71,153,104.37,104.37,0,0,1,1418.46,257.25Zm0-193.6A89.36,89.36,0,1,0,1507.82,153,89.46,89.46,0,0,0,1418.46,63.64Z" transform="translate(-193.3 -35.26)"/><path class="cls-2" d="M1092.39,297.85l-19.15-31.36a5.46,5.46,0,1,1,9.31-5.69L1096.09,283l36-21.31a5.46,5.46,0,0,1,5.56,9.39Z" transform="translate(-193.3 -35.26)"/><path class="cls-2" d="M1105.25,346.19a68.89,68.89,0,1,1,68.89-68.89A69,69,0,0,1,1105.25,346.19Zm0-127.93a59,59,0,1,0,59,59A59.11,59.11,0,0,0,1105.25,218.26Z" transform="translate(-193.3 -35.26)"/><path class="cls-2" d="M823.29,147.2l-24-39.26A6.83,6.83,0,1,1,811,100.83l17,27.76L873,101.91a6.83,6.83,0,1,1,7,11.76Z" transform="translate(-193.3 -35.26)"/><path class="cls-2" d="M839.39,207.72a86.23,86.23,0,1,1,86.23-86.23A86.33,86.33,0,0,1,839.39,207.72Zm0-160.15a73.91,73.91,0,1,0,73.91,73.91A74,74,0,0,0,839.39,47.58Z" transform="translate(-193.3 -35.26)"/><path class="cls-2" d="M517.84,342.37l-26.58-43.52A7.57,7.57,0,0,1,504.18,291L523,321.73l50-29.58a7.57,7.57,0,1,1,7.71,13Z" transform="translate(-193.3 -35.26)"/><path class="cls-2" d="M535.69,409.47a95.6,95.6,0,1,1,95.6-95.6A95.71,95.71,0,0,1,535.69,409.47Zm0-177.55a81.94,81.94,0,1,0,81.94,81.94A82,82,0,0,0,535.69,231.92Z" transform="translate(-193.3 -35.26)"/><path class="cls-2" d="M1976.32,163.41l-15.12-24.75a4.31,4.31,0,1,1,7.35-4.49l10.69,17.5,28.42-16.82a4.31,4.31,0,0,1,4.39,7.41Z" transform="translate(-193.3 -35.26)"/><path class="cls-2" d="M1986.46,201.57a54.36,54.36,0,1,1,54.36-54.36A54.42,54.42,0,0,1,1986.46,201.57Zm0-101a46.6,46.6,0,1,0,46.6,46.6A46.65,46.65,0,0,0,1986.46,100.61Z" transform="translate(-193.3 -35.26)"/><rect class="cls-3" x="1215.58" y="1216.35" width="149.94" height="455.41" transform="translate(2387.8 2852.84) rotate(180)"/><rect class="cls-4" x="643.2" y="522.38" width="1294.7" height="913.34" rx="61.06" ry="61.06" transform="translate(2387.8 1922.84) rotate(180)"/><rect class="cls-5" x="693.91" y="425.17" width="1193.29" height="867.42" transform="translate(2387.8 1682.5) rotate(180)"/><rect class="cls-6" x="693.91" y="425.17" width="1193.29" height="104.77" transform="translate(2387.8 919.85) rotate(180)"/><ellipse class="cls-7" cx="1597.79" cy="1322.83" rx="49.11" ry="41.76"/><rect class="cls-7" x="759.98" y="1619.31" width="674.54" height="34.38"/><rect class="cls-8" x="550.45" y="422.5" width="170.2" height="39.59" rx="13.2" ry="13.2"/><rect class="cls-9" x="588.03" y="859.72" width="624.76" height="21.48"/><rect class="cls-9" x="588.03" y="898.4" width="463.38" height="21.47"/><rect class="cls-9" x="588.03" y="982.44" width="293.82" height="21.48"/><rect class="cls-9" x="588.03" y="1021.12" width="527.87" height="21.47"/><rect class="cls-9" x="588.03" y="1113.54" width="375.61" height="21.48"/><rect class="cls-9" x="588.03" y="1152.22" width="458.66" height="21.47"/><rect class="cls-2" x="557.55" y="859.72" width="15.7" height="60.15"/><rect class="cls-2" x="557.55" y="982.44" width="15.7" height="60.15"/><rect class="cls-2" x="557.55" y="1113.54" width="15.7" height="60.15"/><rect class="cls-2" x="1352.24" y="1114.73" width="86.05" height="86.05" rx="16.7" ry="16.7"/><path class="cls-10" d="M1585.84,1212l-21.75-19a4.28,4.28,0,0,1,5.63-6.46L1585.1,1200l21.94-24.47a4.29,4.29,0,0,1,6.38,5.72Z" transform="translate(-193.3 -35.26)"/><path class="cls-2" d="M1612,1105h-46.91a19.63,19.63,0,0,1-19.61-19.61v-46.91a19.64,19.64,0,0,1,19.61-19.61H1612a19.63,19.63,0,0,1,19.61,19.61v46.91A19.63,19.63,0,0,1,1612,1105Zm-46.91-80.67a14.17,14.17,0,0,0-14.15,14.15v46.91a14.17,14.17,0,0,0,14.15,14.15H1612a14.17,14.17,0,0,0,14.15-14.15v-46.91a14.17,14.17,0,0,0-14.15-14.15Z" transform="translate(-193.3 -35.26)"/><path class="cls-2" d="M1741.58,973.89h-46.91a19.63,19.63,0,0,1-19.61-19.61V907.37a19.63,19.63,0,0,1,19.61-19.61h46.91a19.63,19.63,0,0,1,19.61,19.61v46.91A19.63,19.63,0,0,1,1741.58,973.89Zm-46.91-80.67a14.17,14.17,0,0,0-14.15,14.15v46.91a14.17,14.17,0,0,0,14.15,14.15h46.91a14.17,14.17,0,0,0,14.15-14.15V907.37a14.17,14.17,0,0,0-14.15-14.15Z" transform="translate(-193.3 -35.26)"/><path class="cls-2" d="M1741.58,1236.08h-46.91a19.63,19.63,0,0,1-19.61-19.61v-46.91a19.64,19.64,0,0,1,19.61-19.61h46.91a19.64,19.64,0,0,1,19.61,19.61v46.91A19.63,19.63,0,0,1,1741.58,1236.08Zm-46.91-80.67a14.17,14.17,0,0,0-14.15,14.15v46.91a14.17,14.17,0,0,0,14.15,14.15h46.91a14.17,14.17,0,0,0,14.15-14.15v-46.91a14.17,14.17,0,0,0-14.15-14.15Z" transform="translate(-193.3 -35.26)"/><rect class="cls-2" x="1481.8" y="983.63" width="86.05" height="86.05" rx="16.7" ry="16.7"/><path class="cls-10" d="M1715.4,1080.87l-21.75-19a4.28,4.28,0,1,1,5.63-6.46l15.38,13.41,21.94-24.47a4.29,4.29,0,0,1,6.38,5.72Z" transform="translate(-193.3 -35.26)"/><rect class="cls-2" x="1352.24" y="852.54" width="86.05" height="86.05" rx="16.7" ry="16.7"/><path class="cls-10" d="M1585.84,949.78l-21.75-19a4.29,4.29,0,0,1,5.63-6.46l15.38,13.41L1607,913.29a4.29,4.29,0,0,1,6.38,5.72Z" transform="translate(-193.3 -35.26)"/><path class="cls-11" d="M2014.48,972.24c20.31-9.72,40.53,55,40.53,55,34.53,45.63,82.78-15.07,78.06,53.13-8.26,119.34,137.37,37.53,70.19,162.13s59.32,70.45,17.57,170.92,12.36,220.3-50.46,171.05c0,0-55.32-121.3-112.36-158.83s34.18-82.06,16.33-133c-25.92-74-88.38-71.13-43.35-150.69S1945.42,1005.26,2014.48,972.24Z" transform="translate(-193.3 -35.26)"/><path class="cls-5" d="M2190.26,1538.77c-27.23-19.15-59.1-152.6-61-232.09-1-40.72-13-57.68-23.63-72.65-10.15-14.31-18.92-26.66-13.81-55,9.76-54.21-15.9-77.62-16.16-77.85l3-3.39c1.14,1,27.86,25.14,17.62,82-4.77,26.51,3.09,37.59,13.05,51.63,10.45,14.73,23.45,33.05,24.46,75.15,2,85.31,34.62,211.31,59.09,228.52Z" transform="translate(-193.3 -35.26)"/><path class="cls-12" d="M2200.45,1548.67a58.18,58.18,0,0,1-11.51-1.25c-10.49-2.12-17.38-7.66-20.45-16.46-7.34-21,9.67-55.1,23.47-71.54.23-.27,23.33-28.51,20.87-67.65-.41-6.56-1.09-12.63-1.69-18-1.74-15.49-3-26.68,3.66-34.15,5.86-6.59,17.18-9.44,37.84-9.54,36.24-.17,50.57-15.17,62.08-27.23,4.89-5.12,9.51-10,15.12-13h0c18.06-9.86,37.19-11.31,45.49-3.44,3.94,3.74,7.27,11.05.74,24.7-6,12.47-13.7,20.36-19.92,26.71-8.36,8.53-13.89,14.17-11,25.41.68,2.64,1.45,5.3,2.24,8,5.59,19.11,11.92,40.77-20.78,55.46-6.94,3.12-13.26,5.6-18.84,7.79-22.83,9-36.61,14.37-52.16,47.2-3,6.36-5.67,12.38-8.24,18.21C2235.08,1527.64,2225.8,1548.66,2200.45,1548.67ZM2332,1293.79c-5,2.73-9.18,7.11-14,12.18-12.1,12.67-27.16,28.44-65.32,28.62-19,.09-29.64,2.57-34.5,8-5.32,6-4.16,16.33-2.55,30.66.61,5.41,1.29,11.54,1.71,18.21,2.58,41-20.91,69.63-21.91,70.83-13.66,16.27-29.14,48.66-22.67,67.16,2.52,7.19,8.27,11.74,17.09,13.53,30.8,6.22,39.3-13,53.39-45,2.58-5.85,5.25-11.91,8.29-18.32,16.32-34.45,31.54-40.43,54.59-49.47,5.53-2.17,11.8-4.63,18.64-7.71,29.13-13.09,23.87-31.06,18.31-50.09-.8-2.72-1.59-5.44-2.28-8.12-3.5-13.7,3.41-20.75,12.16-29.68,6.3-6.42,13.43-13.7,19.07-25.5,3-6.18,5.4-14.58.22-19.48-6.8-6.45-24.1-4.68-40.23,4.13Z" transform="translate(-193.3 -35.26)"/><path class="cls-13" d="M2189.42,1574.67l-4.5-.23c.22-4.23,5.9-103.82,45.88-133,43.87-32,57.7-66.34,64.29-89.41,7.76-27.18,47.27-34.45,48.95-34.74l.78,4.44c-.38.07-38.42,7.08-45.4,31.54-6.77,23.71-21,59-66,91.81C2195.19,1473,2189.48,1573.65,2189.42,1574.67Z" transform="translate(-193.3 -35.26)"/><path class="cls-14" d="M2280.85,1072.74c-28.42-9.74-22.52,45-34.53,85.57s-133.61,17.68-82.57,119.18-64.55,33.94-30,122.51,3,183.3,40.53,159.2,21.08-135.63,60.12-148.88,45.4-28.71,6.75-64.74,101.26-71.8,66.74-144.55S2313.69,1084,2280.85,1072.74Z" transform="translate(-193.3 -35.26)"/><path class="cls-5" d="M2191.68,1555c-3.57-15.16-34.1-148.6-5.62-164.73,25.1-14.22,24.48-69.51,20.57-121.72-3.47-46.22,55.89-67.82,58.42-68.72l1.51,4.24c-.59.21-58.65,21.36-55.44,64.14,4,53.62,4.45,110.52-22.84,126-21.63,12.25-1.72,119.49,7.78,159.77Z" transform="translate(-193.3 -35.26)"/><polygon class="cls-15" points="2062.99 1472.19 2022.41 1626.14 1931.73 1626.14 1891.15 1472.19 2062.99 1472.19"/><path class="cls-16" d="M2256.29,1507.45s-89.34,16.77-89.34,154H2125l-40.58-154Z" transform="translate(-193.3 -35.26)"/><path class="cls-17" d="M1846.15,1518.3s3.87,15.2,4.4,17.49,24.36-4,24.36-4l0-18.59S1848.94,1515.8,1846.15,1518.3Z" transform="translate(-193.3 -35.26)"/><path class="cls-18" d="M1850.08,1533.85s-6.67,10.13-13.66,15-34,11.14-37.89,15.81c-2.84,3.37-6.8,16.14,36.47,10.31,30.74-4.14,45.91-3.09,48.67-8.45s-8.77-36.39-8.77-36.39S1868.33,1533.69,1850.08,1533.85Z" transform="translate(-193.3 -35.26)"/><rect class="cls-19" x="1797.89" y="1068.34" width="10.94" height="884.16" transform="translate(-332.2 148.1) rotate(-5.61)"/><rect class="cls-19" x="1973.96" y="1051.25" width="10.94" height="884.16" transform="translate(-329.69 165.21) rotate(-5.61)"/><rect class="cls-19" x="1761.76" y="1076.7" width="176.89" height="10.94" transform="translate(-289.27 148.72) rotate(-5.55)"/><rect class="cls-19" x="1769.7" y="1158.57" width="176.89" height="10.94" transform="translate(-297.04 149.65) rotate(-5.54)"/><rect class="cls-19" x="1777.65" y="1240.44" width="176.89" height="10.94" transform="translate(-304.91 150.81) rotate(-5.54)"/><rect class="cls-19" x="1785.59" y="1322.31" width="176.89" height="10.94" transform="translate(-312.67 151.76) rotate(-5.54)"/><rect class="cls-19" x="1793.54" y="1404.18" width="176.89" height="10.94" transform="translate(-320.55 152.93) rotate(-5.54)"/><rect class="cls-19" x="1801.48" y="1486.05" width="176.89" height="10.94" transform="translate(-328.54 154.27) rotate(-5.54)"/><rect class="cls-19" x="1809.43" y="1567.92" width="176.89" height="10.94" transform="translate(-336.39 155.41) rotate(-5.54)"/><rect class="cls-19" x="1817.38" y="1649.79" width="176.89" height="10.94" transform="translate(-344.26 156.56) rotate(-5.54)"/><rect class="cls-19" x="1825.32" y="1731.66" width="176.89" height="10.94" transform="translate(-352.15 157.73) rotate(-5.54)"/><rect class="cls-19" x="1833.27" y="1813.53" width="176.89" height="10.94" transform="translate(-360 158.86) rotate(-5.54)"/><rect class="cls-19" x="1841.21" y="1895.4" width="176.89" height="10.94" transform="translate(-367.71 159.8) rotate(-5.54)"/><path class="cls-20" d="M1816.75,1198.27s-17.34,64.4-21.92,87.42c-4,20.06-12,73.48-13.14,86.18s51.2,135.64,56.64,157.85l47.68-7.66s-50.31-128-37.18-156.39c19.52-42.29,22.06-41,37.43-75.85s50.57-35.66,60-100.3C1946.29,1189.53,1829.55,1177.77,1816.75,1198.27Z" transform="translate(-193.3 -35.26)"/><path class="cls-17" d="M1901.53,885.37s-31.66-11.83-46.26,12.28S1842.08,970,1858,975.92s39.93,2.83,48.1-12.25,15.55-36.88,15.19-51.45S1909.85,889.57,1901.53,885.37Z" transform="translate(-193.3 -35.26)"/><path class="cls-17" d="M1863.36,974.44s1.28,8.3-.84,12.39,39.82,4.19,39.82,4.19,3.4-22.24,9.86-41S1863.36,974.44,1863.36,974.44Z" transform="translate(-193.3 -35.26)"/><path class="cls-21" d="M1912.2,950s-2.89,4.77-14.71,2.92-26.23-17.57-31.16-19.3-5-4.62-5-4.62l-3.09,4.51-5.24.33s4.78-14.06-2.43-19.8,7.48-45.51,45.37-32.27c0,0,29.1,8,28,24.57S1918.72,941.76,1912.2,950Z" transform="translate(-193.3 -35.26)"/><path class="cls-17" d="M1862.14,923c.66-2.78,7.72-10.71,10.42-2.22s-4.08,19.92-7.87,18.94S1860.46,930,1862.14,923Z" transform="translate(-193.3 -35.26)"/><path class="cls-22" d="M1982.89,1095.49c-.35,4.15-5.09,8.65-8.32,10.87a13.54,13.54,0,0,1-7.22,2.37l-1.88.07h0l-32.9,1.12s-24.46-79.05,21.42-109.2C1955.41,1000.86,1986.07,1057.39,1982.89,1095.49Z" transform="translate(-193.3 -35.26)"/><path class="cls-18" d="M1883.67,1566.51c-2.77,5.36-17.93,4.31-48.67,8.45a140.75,140.75,0,0,1-20.21,1.5L1813,1558c9-3.13,19.45-6.35,23.42-9.12,7-4.86,13.66-15,13.66-15,18.25-.16,24.83-3.74,24.83-3.74S1886.43,1561.15,1883.67,1566.51Z" transform="translate(-193.3 -35.26)"/><path class="cls-22" d="M1863.33,984.42s25.82-6,40.37-1.09l2.2,2s4.42,8.48-12.23,9.21S1850.85,996.51,1863.33,984.42Z" transform="translate(-193.3 -35.26)"/><path class="cls-17" d="M1964.22,1589.39s3.87,15.2,4.4,17.49,24.36-4,24.36-4l0-18.59S1967,1586.88,1964.22,1589.39Z" transform="translate(-193.3 -35.26)"/><path class="cls-20" d="M1946.29,1189.53s8.69,35.85,11.26,71.73c2.38,33.16,6.71,69.54,10.15,104.22,3.83,38.67,14.78,101.18,15.35,121.86s18,111.08,18,111.08l-44.53,5.12s-28.93-159.75-35.77-176.08-40.72-132.75-41.86-145.81S1946.29,1189.53,1946.29,1189.53Z" transform="translate(-193.3 -35.26)"/><path class="cls-18" d="M1968.15,1604.94s-6.67,10.13-13.66,15-34,11.14-37.89,15.81c-2.84,3.37-6.8,16.14,36.47,10.31,30.74-4.14,45.91-3.09,48.67-8.45s-8.77-36.39-8.77-36.39S1986.4,1604.78,1968.15,1604.94Z" transform="translate(-193.3 -35.26)"/><path class="cls-22" d="M1807.74,1278.7c-3.79-.54,9.42-113.61,8.41-120.7-.68-4.73-.57-41.47-.29-64.38l-4.13-23.18a106,106,0,0,0-9.08-5.74c-5.74-3.31-12.95-7.1-20.95-11.1.93-5.48,1.58-9.79,1.83-12.31,2-20.36,15.67-31.15,23.43-35.7a38.36,38.36,0,0,1,5.34-2.67c2.95-1.25,5.84-2.46,8.65-3.62,18.68-7.68,42.39-14.9,42.39-14.9h38.11s29,5.8,46.3,12.87a32.34,32.34,0,0,1,6.24,3.43l-5.18,108.64v.07l0,.14c-2.33,15.28-4.79,33.31-5.61,46-.33,5.16,5.57,32.88,8.65,58.32l10.78,60.88S1956.37,1300,1807.74,1278.7Z" transform="translate(-193.3 -35.26)"/><path class="cls-17" d="M1613.18,926.35s2.25,2.79,3.83,3.52c0,0,3,1.12,5,2a15.37,15.37,0,0,1,1.56.78c1.45.89,4.35,3.29,8.43,4.46s22.48,5.36,22.48,5.36l4.28-10.92,3.07-8.82s-17-22.08-20.71-23.61a10.05,10.05,0,0,0-1.07-.38c-3.23-1-6.05-.38-7.81-.71-.64-.12-7.14-.85-8.54.51a6.38,6.38,0,0,0-2.2,5.8s-3.66,3.85-3.92,7.41c0,0-3.49,3.44-2.56,8C1615.06,919.78,1611.91,923.67,1613.18,926.35Z" transform="translate(-193.3 -35.26)"/><path class="cls-22" d="M1810.49,1069.57c-4.25-2.74-9.75-6.44-28.8-16-35.45-17.74-79.22-49.89-87.55-54.54-12.8-7.14-53.22-56.53-53.22-56.53,2.09-7.44,21.25-22.37,21.25-22.37s61.29,58.05,74.68,65.2c11.52,6.14,68.41,12.35,84.08,14l4,.4C1841.31,1022,1819.64,1075.46,1810.49,1069.57Z" transform="translate(-193.3 -35.26)"/><rect class="cls-23" x="618.51" y="784.29" width="91.93" height="11.33"/><rect class="cls-23" x="596.21" y="764.12" width="136.54" height="11.33"/><circle class="cls-2" cx="664.69" cy="608.64" r="23.74"/><path class="cls-2" d="M900.81,721.29v45.14a104.41,104.41,0,0,1-86.06,0V721.29a43,43,0,0,1,86.06,0Z" transform="translate(-193.3 -35.26)"/><path class="cls-24" d="M857.78,778.53a106,106,0,0,1-44.2-9.53A106.94,106.94,0,1,1,902,769,106,106,0,0,1,857.78,778.53Zm0-208.23A101.31,101.31,0,1,0,959.07,671.6,101.4,101.4,0,0,0,857.78,570.31Z" transform="translate(-193.3 -35.26)"/><rect class="cls-25" x="828.74" y="566.11" width="7.45" height="171.52"/><rect class="cls-25" x="862.98" y="566.11" width="7.45" height="171.52"/><rect class="cls-25" x="897.22" y="566.11" width="7.45" height="171.52"/><rect class="cls-25" x="931.45" y="566.11" width="7.45" height="171.52"/><rect class="cls-25" x="965.69" y="566.11" width="7.45" height="171.52"/><rect class="cls-25" x="999.92" y="566.11" width="7.45" height="171.52"/><rect class="cls-25" x="1034.16" y="566.11" width="7.45" height="171.52"/><rect class="cls-25" x="1068.4" y="566.11" width="7.45" height="171.52"/><rect class="cls-25" x="1102.63" y="566.11" width="7.45" height="171.52"/><rect class="cls-25" x="1136.87" y="566.11" width="7.45" height="171.52"/><rect class="cls-25" x="1171.1" y="566.11" width="7.45" height="171.52"/><rect class="cls-25" x="1205.34" y="566.11" width="7.45" height="171.52"/><rect class="cls-26" x="828.74" y="617.39" width="7.45" height="120.24"/><rect class="cls-26" x="862.98" y="658.94" width="7.45" height="78.69"/><rect class="cls-26" x="897.22" y="590.86" width="7.45" height="146.76"/><rect class="cls-26" x="931.45" y="694.9" width="7.45" height="42.73"/><rect class="cls-26" x="965.69" y="651.87" width="7.45" height="85.76"/><rect class="cls-26" x="999.92" y="619.75" width="7.45" height="117.88"/><rect class="cls-26" x="1034.16" y="661.59" width="7.45" height="76.03"/><rect class="cls-26" x="1068.4" y="608.84" width="7.45" height="128.79"/><rect class="cls-26" x="1102.63" y="666.9" width="7.45" height="70.73"/><rect class="cls-26" x="1136.87" y="624.46" width="7.45" height="113.17"/><rect class="cls-26" x="1171.1" y="681.05" width="7.45" height="56.58"/><rect class="cls-26" x="1205.34" y="624.46" width="7.45" height="113.17"/><path class="cls-26" d="M1715.52,652.19a96.47,96.47,0,1,0-181.68,65c.73,2,1.52,4.05,2.37,6a96.48,96.48,0,0,0,179.3-71ZM1649,752.78a72.25,72.25,0,0,1-90.68-39.24q-1-2.21-1.78-4.51A72.33,72.33,0,1,1,1649,752.78Z" transform="translate(-193.3 -35.26)"/><path class="cls-27" d="M1555.63,663.12l-23-7.2a96.61,96.61,0,0,1,89.21-67.7l.72,24.14a72.45,72.45,0,0,0-66.88,50.76Z" transform="translate(-193.3 -35.26)"/><path class="cls-28" d="M1558.36,713.54l-22.14,9.64c-.85-2-1.65-4-2.37-6a96,96,0,0,1-1.26-61.24l23,7.2a72,72,0,0,0,.94,45.91Q1557.4,711.33,1558.36,713.54Z" transform="translate(-193.3 -35.26)"/><path class="cls-29" d="M1551.17,747.2a95.94,95.94,0,0,1-15-24l22.14-9.64a71.92,71.92,0,0,0,11.21,18Z" transform="translate(-193.3 -35.26)"/><path class="cls-26" d="M1799.17,711.12A39.91,39.91,0,1,0,1765,783.27c.81.38,1.63.74,2.45,1.06a39.91,39.91,0,0,0,31.68-73.21Zm10,48.87a29.89,29.89,0,0,1-38,15c-.62-.24-1.23-.51-1.84-.8A29.92,29.92,0,1,1,1809.14,760Z" transform="translate(-193.3 -35.26)"/><path class="cls-27" d="M1755.6,761.09l-8.85,4.64a40,40,0,0,1,6.29-45.9l7.27,6.85a30,30,0,0,0-4.72,34.41Z" transform="translate(-193.3 -35.26)"/><path class="cls-28" d="M1771.14,775l-3.66,9.29c-.82-.32-1.64-.68-2.45-1.06a39.73,39.73,0,0,1-18.28-17.55l8.85-4.64a29.77,29.77,0,0,0,13.7,13.15C1769.91,774.53,1770.52,774.79,1771.14,775Z" transform="translate(-193.3 -35.26)"/><path class="cls-26" d="M1818.17,642.74A39.91,39.91,0,1,0,1746,608.6c-.38.81-.74,1.63-1.06,2.45a39.91,39.91,0,0,0,73.21,31.68Zm-48.87,10a29.88,29.88,0,0,1-15-38q.36-.93.8-1.84a29.92,29.92,0,1,1,14.25,39.84Z" transform="translate(-193.3 -35.26)"/><path class="cls-26" d="M1768.21,599.17l-4.64-8.85a40,40,0,0,1,45.9,6.29l-6.85,7.27a30,30,0,0,0-34.41-4.72Z" transform="translate(-193.3 -35.26)"/><path class="cls-28" d="M1754.26,614.72l-9.3-3.66c.32-.82.68-1.64,1.06-2.45a39.72,39.72,0,0,1,17.55-18.28l4.64,8.85a29.79,29.79,0,0,0-13.16,13.7Q1754.62,613.79,1754.26,614.72Z" transform="translate(-193.3 -35.26)"/><path class="cls-29" d="M1742.31,622.46a39.67,39.67,0,0,1,2.65-11.4l9.3,3.66a29.72,29.72,0,0,0-2,8.55Z" transform="translate(-193.3 -35.26)"/><polygon class="cls-30" points="1576.54 778.03 1502.02 778.03 1502.02 776.54 1575.06 776.54 1575.06 748.39 1576.54 748.39 1576.54 778.03"/><polygon class="cls-30" points="1436.21 778.03 1339.29 778.03 1339.29 776.54 1434.73 776.54 1434.73 730.46 1436.21 730.46 1436.21 778.03"/><rect class="cls-26" x="1339.29" y="761.13" width="66.69" height="8.89"/><rect class="cls-26" x="1502.02" y="761.13" width="39.23" height="8.89"/><path class="cls-31" d="M669.57,1082.37s-28.17-.95-37.16,22.14-2.2,40.79.36,49.2c6.69,22,7.24,29.94,4,43.19-2.87,11.75-5.51,17.81-8.83,28.8s2.21,9.76,2.69,10.56,110.3,10.94,110.3,10.94-2.93-23.79-10.67-29.31-15.38-6.64-9.49-30.18,9.61-34.47,6.32-51.54c-3.82-19.78-6.23-32.14-24.83-45.11A50,50,0,0,0,669.57,1082.37Z" transform="translate(-193.3 -35.26)"/><path class="cls-7" d="M637.07,1858.85s15.49,23,21.73,28.55c0,0,13.87,5.09,15.26,14.8s1.16,16.19-15.26,16.65-27.18-2.49-30.18-12.43a45.27,45.27,0,0,0-9.58-16.71v20.81h-3.7s-.93-20.11-1.16-23.81-2.66-17.92,5.15-24.22S637.07,1858.85,637.07,1858.85Z" transform="translate(-193.3 -35.26)"/><path class="cls-7" d="M714.62,1840.47a66.37,66.37,0,0,0,7.74,12.95c3.71,4.84,15.26,24.74,20.35,26.13s20.81,4.16,22.2,12.95,2.08,15-13.41,15.72-25.66,1.62-33.06-9.25-19.19-18.73-19.19-18.73v28.35h-6s-2.77-29.51-4.39-31.59-5.78-24.74,8.55-36.53S714.62,1840.47,714.62,1840.47Z" transform="translate(-193.3 -35.26)"/><path class="cls-17" d="M626.67,1414.83s-17.41,25.88-22.71,56.06,1,131,.75,145.9-14.1,52-11.33,80.11,26,165.6,26,165.6l17.74-3.64s-1.73-142.53,0-154.33,5.21-54.77,5.91-59.63,44-132.34,44-154.1S673.84,1379.34,626.67,1414.83Z" transform="translate(-193.3 -35.26)"/><path class="cls-17" d="M724.93,1424.77s32.14,122.65,36,139.64,9.34,31,9.34,38.22c0,16.74-6.22,43.62-6.22,43.62l-49.38,194.21-20.48,3.22s11.85-119.34,12.43-142.24,18.25-55.53,14.78-65.24-55.83-121.73-55.83-121.73S625.86,1389.17,724.93,1424.77Z" transform="translate(-193.3 -35.26)"/><path class="cls-17" d="M658.81,1887.4s-15.86,8.87-26.08-2.52c-8.62-9.61-13.4-22.39-13.4-22.39l17.74-3.64Z" transform="translate(-193.3 -35.26)"/><path class="cls-17" d="M742.71,1879.54s-13.87,3.47-19.19,0-23.4-34-29.38-35.85c0,0,5.8-11.77,20.48-3.22C714.62,1840.47,738.78,1874.46,742.71,1879.54Z" transform="translate(-193.3 -35.26)"/><path class="cls-32" d="M770.22,1602.64s-74.33,31.91-185,31.91c0,0,11.66-167.7,27.75-203.81s114.53,3.64,114.53,3.64S770.22,1572.39,770.22,1602.64Z" transform="translate(-193.3 -35.26)"/><path class="cls-32" d="M853.83,1359.7s-67.79,5.83-84.57-1.64c-8.4-3.74-19.77-19.23-30.28-36.23-1.78-2.89-3.55-5.82-5.26-8.75-12.85-21.9-23.23-43.4-23.23-43.4s-31-39,2-53a40.08,40.08,0,0,1,20.78,15.89c8,12.32,14.2,30.81,15.77,36.91s28.11,59.7,29.78,61.21,18.34.5,31.2,1.72c21,2,43.11,3.13,43.11,3.13Z" transform="translate(-193.3 -35.26)"/><path class="cls-32" d="M736.45,1305.26c-8.34,19.31-.47,25.75-4.29,45s-5.18,74.31-4.46,85-95.07,21.75-117.24,2.2c0,0,7.39-41.72,21-67.66,2.58-4.92,1.34-24.34-1.28-31-.81-2-4-9.94-8.09-19.91v0c-4.24-10.37-9.4-23-13.76-33.63l-9.19-22.41s-3.31-31.06,9.59-41.07c11.21-8.7,41.74-11.8,47.22-13.71s21.43-2.73,32.64-1.07c0,0,17.16,8.11,23.12,9.3s29.08,31.22,33.14,42.19S744.79,1285.94,736.45,1305.26Z" transform="translate(-193.3 -35.26)"/><path class="cls-17" d="M696.73,1187.24S693.3,1218.73,694,1229c0,0-14.34,17.43-34.63-21.3,0,0,5-15.52-1.38-37.28S696.73,1187.24,696.73,1187.24Z" transform="translate(-193.3 -35.26)"/><path class="cls-17" d="M642.2,1210.87s12.27,36.23,45.95,33.57,16-30.6,16-30.6-8.39-4.81-10.76-5.27-33.42-1.77-33.42-1.77Z" transform="translate(-193.3 -35.26)"/><rect class="cls-33" x="579.19" y="1205.19" width="93.04" height="132.92" rx="5.92" ry="5.92"/><rect class="cls-5" x="585.52" y="1214.23" width="80.39" height="114.85"/><path class="cls-17" d="M749.27,1346.22a9.3,9.3,0,0,0,5-1.45c3.45-2.6,4.7-9,10.79-8.55s8.92,19.57,7.39,23.19-10,5.42-22.49,2.93S749.27,1346.22,749.27,1346.22Z" transform="translate(-193.3 -35.26)"/><path class="cls-17" d="M763,1336.35a190.63,190.63,0,0,1,18.87-5.17c8.87-1.92,19.46-2.54,20.49-1,1.15,1.71-8.64,3.19-17.33,5.66-8,2.27-6.09,3.11-6.09,3.11s-.53-.27,8.61-1.12c9.82-.92,19.93-.9,20.93,1.06.49,1,.15,1.6-3.39,2.5,2.13-.1,2.43.45,2.51,1.31.42,4.42-13.9,7.95-19.59,9.34,4.38-1,7.68-1.37,6.11,1.6-1.8,3.39-22.24,7.49-29.45,9.64C756.8,1365.6,763,1336.35,763,1336.35Z" transform="translate(-193.3 -35.26)"/><path class="cls-17" d="M854.93,1266s13.22-3.08,17.48,3.29,4.41,14.57,3.35,18.37-4.49,13.55-9,11.55C852.44,1292.74,854.93,1266,854.93,1266Z" transform="translate(-193.3 -35.26)"/><path class="cls-17" d="M868,1266.11s-1.85-8.94-5.43-7.41-.35,7.42-.35,7.42Z" transform="translate(-193.3 -35.26)"/><path class="cls-17" d="M854.93,1266s.21-5.11,9.46.15S854.93,1266,854.93,1266Z" transform="translate(-193.3 -35.26)"/><path class="cls-34" d="M733.72,1313.08s10.08-24,10.52-29.37c-.09,3.19-.81,22.59-5.26,38.12-1.78-2.89-3.55-5.82-5.26-8.75Z" transform="translate(-193.3 -35.26)"/><path class="cls-35" d="M744.24,1283.71c0-.3,0-.45,0-.45A4.27,4.27,0,0,1,744.24,1283.71Z" transform="translate(-193.3 -35.26)"/><path class="cls-34" d="M692.53,1346.23l-42-73.93s14.67,73.75,25.78,76.23S692.53,1346.23,692.53,1346.23Z" transform="translate(-193.3 -35.26)"/><path class="cls-32" d="M610.46,1220.48s-20.14,10-13.2,36,13.86,33.42,20.49,43.12c6.26,9.16,19,33.85,20.61,36.62s17,43.05,31.1,47.63,84.15-17.68,85.73-15.25-.09-24.54-.09-24.54-32.5,2.4-39.67,1.91c-11.65-.79-30.33,4-34.83-6.12-5.28-11.85-24.21-50.81-26.2-57.22S629.14,1213.88,610.46,1220.48Z" transform="translate(-193.3 -35.26)"/><path class="cls-36" d="M691.53,1097.14s31.07,20.28,21,69.31-46.78,22.07-50.77,19.29-16.3-33.47-16.78-46.85C644.5,1126.29,637.93,1075.76,691.53,1097.14Z" transform="translate(-193.3 -35.26)"/><path class="cls-31" d="M689.39,1107c-3.24-1-14.18,20.18-20.06,25.39s-16.71,18.31-17.77,32.65-13.16-31.35-9-48.3,9.78-41.82,47.64-22.1,28.07,55,28.07,55S705.77,1111.82,689.39,1107Z" transform="translate(-193.3 -35.26)"/><path class="cls-36" d="M663.16,1140.83c-1-5.8-13.81-10.71-13.62-2s7.26,18.78,11.26,18.14S664.08,1146.18,663.16,1140.83Z" transform="translate(-193.3 -35.26)"/><path class="cls-37" d="M664.72,1187.78c.23.43,7.62,14.64,30.24,18.22.5-5.54,1.21-12.33,1.21-12.33A36.36,36.36,0,0,1,664.72,1187.78Z" transform="translate(-193.3 -35.26)"/><rect class="cls-9" x="594.65" y="1227.84" width="28.22" height="5.95"/><path class="cls-2" d="M833,1279.22l-4-6.54a1.14,1.14,0,0,1,1.94-1.19l2.83,4.63,7.51-4.45a1.14,1.14,0,1,1,1.16,2Z" transform="translate(-193.3 -35.26)"/><path class="cls-2" d="M835.7,1289.3a14.37,14.37,0,1,1,14.37-14.37A14.39,14.39,0,0,1,835.7,1289.3Zm0-26.69A12.32,12.32,0,1,0,848,1274.93,12.33,12.33,0,0,0,835.7,1262.61Z" transform="translate(-193.3 -35.26)"/><path class="cls-2" d="M833,1315.51l-4-6.54a1.14,1.14,0,1,1,1.94-1.19l2.83,4.63,7.51-4.45a1.14,1.14,0,0,1,1.16,2Z" transform="translate(-193.3 -35.26)"/><path class="cls-2" d="M835.7,1325.6a14.37,14.37,0,1,1,14.37-14.37A14.39,14.39,0,0,1,835.7,1325.6Zm0-26.69A12.32,12.32,0,1,0,848,1311.23,12.33,12.33,0,0,0,835.7,1298.91Z" transform="translate(-193.3 -35.26)"/><rect class="cls-9" x="594.65" y="1239.67" width="28.22" height="5.95"/><rect class="cls-9" x="594.65" y="1266.62" width="28.22" height="5.95"/><rect class="cls-9" x="594.65" y="1278.45" width="28.22" height="5.95"/><path class="cls-17" d="M884.82,1407.8s-9,3.42-15.9,4.1-16.93,7.9-19.49,11-23.47,25.6-23.83,28.47,5.35,1.91,7.27-.36S853,1430.7,853,1430.7s-20.47,22.79-20.34,25.46,3.21,5,7,2.59c0,0,3,6.18,8.34.83l10.66-10.64s-4.51,6.49,1.41,4.63c3.15-1,13.69-14.41,16.65-16.4S891,1418,891,1418Z" transform="translate(-193.3 -35.26)"/><path class="cls-38" d="M957.58,1849.29s-7.79,15.57-12.5,18.64-31.14,28.78-36.57,31.14-22.89,5.66-22.65,13.92,45.06,5.66,53.79,2.6,23.36-22.89,29.26-22.65,3.78,24.3,3.78,24.3H979s8-25.48,7.79-34.45-5.19-33.5-5.19-33.5Z" transform="translate(-193.3 -35.26)"/><path class="cls-38" d="M1066.85,1839.62s-3.43,15.42-9.05,20.8-26.74,28.14-32.09,30.59-15.63,4.16-18.81,8.07-1.29,15.42,18.81,14.19,26.64-1,31.42-5.08,20.19-18,24.78-18.35V1912h5.51s9.73-29.18,6.24-41.48-3.3-29-3.3-29Z" transform="translate(-193.3 -35.26)"/><path class="cls-17" d="M1058.87,1179.32s9.16,23.6,2,41.84c0,0,33.6-2.13,34.87-5.94s-1.35-39.18,3.27-49.62S1058.87,1179.32,1058.87,1179.32Z" transform="translate(-193.3 -35.26)"/><path class="cls-17" d="M1119.72,1495.76s-1.95,5.15-1.65,8.95c.23,3-1.44,7.93-2.08,10.6s-2.13,14.4-1.77,17.29c.15,1.18,4,8,4,10.46s-.48,7.41,1.65,7.27,3.83-4.48,3.83-4.48.18,2.22,2.08,2.67c3.69.88,5.26-.94,5.26-.94s1.67,2.12,3.31,2.1c3.61,0,5.08-1.84,5.08-1.84a6.14,6.14,0,0,0,4.17.44,5.6,5.6,0,0,0,3.91-3.73s4,0,4.86-2.14.28-4,.46-5.84-2.78-16.94-9.72-26.81-3.45-22.27-3.45-22.27Z" transform="translate(-193.3 -35.26)"/><path class="cls-39" d="M1109.17,1578.61l-4.17-28.73a8.49,8.49,0,0,1,7.17-9.61l45.55-6.61a8.49,8.49,0,0,1,9.61,7.17l4.17,28.73a8.49,8.49,0,0,1-7.17,9.61l-45.55,6.61A8.49,8.49,0,0,1,1109.17,1578.61Zm3.82-32.7a2.79,2.79,0,0,0-2.36,3.16l4.17,28.73a2.79,2.79,0,0,0,3.16,2.36l45.55-6.61a2.79,2.79,0,0,0,2.36-3.16l-4.17-28.73a2.79,2.79,0,0,0-3.16-2.36Z" transform="translate(-193.3 -35.26)"/><rect class="cls-40" x="1064.74" y="1567.18" width="169.92" height="123.73" transform="translate(2328.03 3040.93) rotate(171.75)"/><path class="cls-41" d="M1122.93,1544.53s-2.68-13.59.34-17.26,4.27,1.18,4.27,1.18-1.31-4.77,2.42-6.26,4.89,4.27,4.89,4.27a4,4,0,0,1,4.16-4c4.18-.1,4,4.9,4,4.9s3.06-5.54,6.34-1.56c5.53,6.71,3,16.6,3,16.6s-.84,2.32-4.86,2.14c0,0-1.67,5.85-8.08,3.29,0,0-5.33,4.58-8.39-.26C1131.06,1547.57,1125.1,1552.13,1122.93,1544.53Z" transform="translate(-193.3 -35.26)"/><path class="cls-32" d="M1055.62,1213.17s-19.85,6.87-28.83,8.78-27.75,10.56-26.22,43.15,7.13,60.84,9.16,74.84.76,49.64-2.55,66.95c0,0,47.6,11.71,103.6,0,0,0-9.93-29.53-9.67-37.16s33.09-70.51,34.62-80.44,8.15-53.71-6.87-63.38-27.24-8.4-33.6-12.73S1064.91,1210.07,1055.62,1213.17Z" transform="translate(-193.3 -35.26)"/><path class="cls-32" d="M1030.13,1221.16s-21.91-.6-37.44,33.76-19.35,54.47-22.91,59.31-16,23.67-28.26,32.84-63.09,60.78-63.09,60.78l14,17.87s73.31-51.93,80.95-60.84,54-76.36,56.79-86.55S1054.33,1231.68,1030.13,1221.16Z" transform="translate(-193.3 -35.26)"/><path class="cls-32" d="M1161.58,1391.87c.14,13.75-14.13,107.54-14.13,107.54l-27,1.15s8.65-93,11.71-114.42c.9-6.31.14-16.11-1.38-26.8h0c-1-6.79-2.24-13.93-3.59-20.76-3.72-18.85-8-35.3-8-35.3s-24.31-80.08,13-74.21a90.88,90.88,0,0,1,17.12,39.47c4.2,24.05,8.4,59.95,7.64,74.07S1161.48,1381.76,1161.58,1391.87Z" transform="translate(-193.3 -35.26)"/><path class="cls-22" d="M1007.2,1406.88s-8.65,20.46-9.42,25.63S969.88,1505.23,968,1525c-1.91,20-7.64,73.31-9.67,80.95s4.58,41.75,5.6,49.38.51,132.37-8.65,194c0,0,21.38,9.16,37.67,0,0,0,27-96.22,25.45-151.71s-8.57-78.91,0-101.31,59-89.6,64.1-96.73,37-46.51,6.78-89.19S1007.2,1406.88,1007.2,1406.88Z" transform="translate(-193.3 -35.26)"/><path class="cls-22" d="M1111.42,1589.14c-2.68,17.82.14,41.24,5.74,106.41s-9.8,144.07-9.8,144.07c-19.34,6.62-41.62,0-41.62,0,.51-4.58,0-158.84,0-172.58s-3.95-29.35-5-45.12c-.7-10.75-5.7-30.58-11.33-50.81-1.69-6.06-3.43-12.16-5.12-18.06h0l-2.8-9.71c-7.93-27.49-18.59-133.65-18.59-133.65s59.08-47.59,87.85-2.79,14,77.38,13,83S1114.1,1571.32,1111.42,1589.14Z" transform="translate(-193.3 -35.26)"/><path class="cls-32" d="M1002.58,1323.54s4,80.16-15.11,126.36c0,0,63,21,144.33,0,0,0-17.43-57.46-16-66.25s31.83-110.09,22.47-133.92S1012,1248.34,1002.58,1323.54Z" transform="translate(-193.3 -35.26)"/><path class="cls-17" d="M1077.71,1086.41c-14.18-1.61-50.91,1.27-48.11,56.51s22.91,51.93,43,46.07,44-48.62,44-60.07S1118.18,1091,1077.71,1086.41Z" transform="translate(-193.3 -35.26)"/><path class="cls-42" d="M1031.63,1117.63s16,20.38,32,25.25c0,0,12.37,22.11,33.94,27.75,0,0,46-44,7.32-77.09S1031.38,1100.74,1031.63,1117.63Z" transform="translate(-193.3 -35.26)"/><path class="cls-17" d="M1060.65,1135.28c.54-3,7.24-9.16,12.4-2.29s-4.26,22.91-7.82,22.91S1058.61,1146.74,1060.65,1135.28Z" transform="translate(-193.3 -35.26)"/><path class="cls-42" d="M1111.42,1103.49c1.15-1.75,36-17.46,43.28,15.37s-28.09,71-34.28,87.44,0,55.36,0,55.36-18.47-20-24.9-40.51C1088.46,1198.66,1086.09,1142,1111.42,1103.49Z" transform="translate(-193.3 -35.26)"/><path class="cls-38" d="M1086.93,1493.4c-.46,1-29.9,66.36-37.47,77.69-1.69-6.06-3.43-12.16-5.12-18.06h0S1085.94,1494.84,1086.93,1493.4Z" transform="translate(-193.3 -35.26)"/><path class="cls-43" d="M1137,1292.62s-.92,41.56-6.15,66.71c-1-6.79-2.24-13.93-3.59-20.76C1127.42,1337.64,1135.94,1299.12,1137,1292.62Z" transform="translate(-193.3 -35.26)"/><path class="cls-44" d="M385.11,1875.85s8.9,13.31,21.37,16.18,24.77,7.45,24.86,15.32S395.27,1919.92,381,1912c-21.31-11.85-23.48-8.28-25.84-14.2s2.84-21.76,2.68-23.64C357.65,1871.82,385.11,1875.85,385.11,1875.85Z" transform="translate(-193.3 -35.26)"/><path class="cls-45" d="M383.73,1869.28s1.62,6.43,1.38,6.56-28.12,3.46-27.27-1.7c.68-4.18,1.66-8.73,1.66-8.73Z" transform="translate(-193.3 -35.26)"/><path class="cls-44" d="M291.3,1875s6.35,12.73,17.19,17.07c11.59,4.63,20.88,10,20.67,17.63s-28.33,15.45-48.78.72c-12.92-9.3-17-9.35-19.09-15.21s3.6-21.08,3.52-22.92C264.71,1870,291.3,1875,291.3,1875Z" transform="translate(-193.3 -35.26)"/><path class="cls-45" d="M291.61,1868.35s-.08,6.49-.32,6.61-27.18,2.34-26.5-2.7a41.54,41.54,0,0,1,2.61-8.85Z" transform="translate(-193.3 -35.26)"/><path class="cls-46" d="M390.4,1479.48s25,110.41,30.75,144c4.87,28.62,8.74,58.43,6.41,79.09-2.89,25.58-39.1,158.17-37.59,165.67s-37.89,1.2-37.89,1.2,27.54-147.89,22-175.42c-4.07-20.39-39.78-155.81-45.25-148.87S316.61,1673,312.56,1693.07s-16.49,178.59-16.49,178.59-27.81,4.1-35.24-2.18c0,0-3.38-135.37-.8-173,1-14.34-16.8-171.88,6-235.31C278.07,1427.67,390.4,1479.48,390.4,1479.48Z" transform="translate(-193.3 -35.26)"/><path class="cls-47" d="M499.35,1379.12c-17.84-2.51-74,22.36-79.06,20.48-3.51-1.29-11.74-28.11-17.62-48.41-3.48-12-6.13-21.73-6.5-22.53l0,0a119.91,119.91,0,0,1-.19,21.78c-.07.78-.43,1-.52,1.79a6.33,6.33,0,0,1-.23,1.05c-1.31,3-1.79,8.57-3,13.23a83.74,83.74,0,0,0-2.06,26v0c0,.07,0,.14,0,.22s0,.44,0,.66,0,.18,0,.27c-.5,17.38.7,36.13,1.2,46.1.78,15.45-4.3,22.4-4.44,22.61h0l-5.38-.75-3.89-.55h0l-5.19-.73L352,1457.46l-7.37-1-1.74-.25-12.9-1.81-36.36-5.12-4-.56-1.64-.23-13.71-1.93-6.2-.87h0s-5.26-37.33-5.67-57.51c-.36-18.53-10.29-56.16-11.9-62.18a1.3,1.3,0,0,0,0-.13c0-.06,0-.11,0-.16l-.07-.26s0-.09,0-.13a.08.08,0,0,0,0,0,.12.12,0,0,1,0,0,.25.25,0,0,1,0-.06s-29.68,31.18-35.44,44.78c-1.76,4.13-7.12,15.35-14,29-4.67-8.92-7.6-15.12-7.6-16.67,0-.19,0-.39,0-.61.44-13.45,14.54-68,25.66-103.62,8.64-17.36,16.09-31.4,18.48-33.12,3.62-2.6,18.85-9.12,32.15-14.4l1.3-.51,3.65-1.43,1.76-.68.94-.36.76-.29h0c6.65-2.53,11.7-4.29,12.74-4.35.17,0,.45,0,.83,0s1,0,1.68.08c8.22.48,32.74,2.78,40.63,3.53l2.46.23h0l9.42,4.3h0l.52.24c3.42,1.57,7.38,3.66,11.56,6,8.2,4.5,17.27,9.75,24.78,13.33s17.46,8.39,18.32,9.08l37.34,107.67,64.78-11.84Z" transform="translate(-193.3 -35.26)"/><path class="cls-48" d="M386.87,1462.35s2.74,3.27,3.53,17.13c0,0-112.48-13.12-124.37-18.29,0,0-.46-15.27,2.06-15.54C270.85,1445.36,386.87,1462.35,386.87,1462.35Z" transform="translate(-193.3 -35.26)"/><path class="cls-17" d="M290.95,1219.09c.35,17.65,34.53,27.31,34.53,27.31s14.3-17.92,10.88-19.64c-1.34-.67-1.89-3.35-2.05-6.35a62.3,62.3,0,0,1,.19-8c.1-1.25.2-2.05.2-2.05s-4.88-5.15-11.1-11.29c-10.86-10.73-25.78-24.49-25.8-19a4.84,4.84,0,0,0,.13,1C300.55,1193.39,290.95,1219.09,290.95,1219.09Z" transform="translate(-193.3 -35.26)"/><path class="cls-44" d="M293.78,1448.36s-2.46,15.48-2.67,19.52l-5.2-1s1.43-16.38,2.28-19.13Z" transform="translate(-193.3 -35.26)"/><path class="cls-44" d="M377.49,1460.55s2,14.07,2,19.39l-5.5-.72s-1.13-17.57-1.76-19.41Z" transform="translate(-193.3 -35.26)"/><path class="cls-49" d="M304.11,1193.22h0c.07.1,1.52,2.27,4,5.38,5.25,6.6,15.11,17.44,26.2,21.8a62.3,62.3,0,0,1,.19-8,17.86,17.86,0,0,0,3.39-.41,105.24,105.24,0,0,0-7.43-10.88l-6.86-2.05Z" transform="translate(-193.3 -35.26)"/><path class="cls-17" d="M297.55,1180.28c3,6.43,5.76,11.09,6.56,12.94h0a22.83,22.83,0,0,0,4,5.38c5.63,6.07,16.1,14.07,26.4,13.79a17.86,17.86,0,0,0,3.39-.41c4.16-.91,9.06-2.84,11.76-8.13,21.32-41.75,5.89-75.89,5.89-75.89s-58.3-16.49-67.43,1.06C281.72,1141.36,290.6,1165.17,297.55,1180.28Z" transform="translate(-193.3 -35.26)"/><path class="cls-23" d="M355.55,1128s5.42-.3,6.75-10.57-1.35-13-1.35-13-24.07-10.08-32.71-11.39-29.9-2.57-34.88,3.13c0,0-12.1-2.81-15.4,17.28-5.23,31.88,17.83,62.83,17.83,62.83s-.2-20.83,4.4-23.59,8.56,3.8,8.56,3.8l9.4,1.68s-14.27-30.81,2.85-32S345.75,1129.77,355.55,1128Z" transform="translate(-193.3 -35.26)"/><path class="cls-17" d="M308.47,1148.24c-.89-9.18-17.49-12.68-16.38-3.06s9.28,18.86,13.06,18.53S309.15,1155.23,308.47,1148.24Z" transform="translate(-193.3 -35.26)"/><path class="cls-50" d="M200.9,1398.94c7.23,13.79,18.63,34.08,29.89,53.75-1.48,2.77-2.93,5.51-4.32,8.22a164.42,164.42,0,0,0-8.52,19c-2.57,7.19-6.14,25.6.69,29l36,19.86s.25-.7.73-2c1.19-3.23,3.78-10.14,7.35-19.1.12-.29.48-1.14,1-2.4.72-1.69,1.75-4.1,2.93-6.85l1.66-3.87,2-4.67,2.86-6.65,4.37-10.16.36-.79q1.76-3.8,3.59-7.61c1.89-3.92,3.84-7.83,5.83-11.65l.6-1.16,1.07-2,.66-1.22.15-.27.27-.48c10.4-19,22.12-34.84,25.86-58.11q.54-3.37,1-6.7c.54-3.69,1-7.34,1.5-10.91.17-1.35.34-2.69.5-4,1.87-15.52,3-29.36,3.89-39,2.81-30-15.57-62.51-29.69-82.59a222.35,222.35,0,0,0-15.09-19.28l-.07-.07-.76.29-.94.36-1.76.68-3.65,1.43-1.3.51c-13.67,5.36-45.88,14.89-49.5,17.49-2.09,1.5-3.34,13.58-8.73,30.88-11.12,35.63-17.72,89.35-18,102.77,0,.21,0,.42,0,.61C193.3,1383.82,196.23,1390,200.9,1398.94Zm54.67-6.7c0,6.69-2.18,14.36-5.52,22.53l-.26.62c-2.31-4.92-4.48-9.64-6.43-14v0c-5.36-12-9-21.33-9.24-25-1.32-23.77,16.18-51.12,16.18-51.12a.12.12,0,0,0,0,0,.08.08,0,0,1,0,0s0,.09,0,.13.05.17.07.26,0,.11,0,.16a1.3,1.3,0,0,1,0,.13C254.1,1340.09,255.58,1392.24,255.58,1392.24Z" transform="translate(-193.3 -35.26)"/><path class="cls-50" d="M523.26,1342.63l-81.48,17.74-38.84-101.57c-.86-.68-12-6.67-19.36-10.18-7.67-3.66-17.39-8.17-26-12.14l-11.27-5.19-.27.21s4.81,16,11,56h0c.21,1.34.42,2.71.63,4.11,0,.16,0,.33.07.49.14.92.28,1.86.42,2.81l.05.33c.1.64.19,1.28.28,1.93q.35,2.37.7,4.83c2.78,19.46,6.67,52.57,10.41,86h0c3,26.35,9.7,53.38,11.84,73.56,0,0,0,0,0,0a139.29,139.29,0,0,0,2.8,15.17c.15.67.31,1.35.47,2,6,25.47,17.73,61.51,17.73,61.51l3.41-3.15,10.09-9.32a8.18,8.18,0,0,0,2.27-8.44c-5.6-18.06-24.62-82-28.11-126.92a.12.12,0,0,1,0,0c-1.09-14.12,3-27.42,5.43-40l.12.33c2,5.57,4.22,11.63,6.46,17.53h0c6,15.84,12.15,30.51,14.71,31.45,5.69,2.09,113-27.24,113.72-31.45Z" transform="translate(-193.3 -35.26)"/><path class="cls-51" d="M287.48,1271.07l16.63,9.38-7.1,7.24,18.92,102.13c3.86-23.94,5.61-46.67,6.92-60.62,4.35-46.4-42-98.75-44.85-102-2.22.84-4.63,1.78-7.11,2.76Z" transform="translate(-193.3 -35.26)"/><path class="cls-51" d="M345.78,1231.06s6.21,20.29,13.45,70.94c2.78,19.46,6.67,52.57,10.41,86l3.87-95.65-7.92-8.58,7-8.8-15.07-38.47-11.27-5.19Z" transform="translate(-193.3 -35.26)"/><path class="cls-52" d="M277.16,1227.46l13.79-8.37s.39,7.56,34.53,27.31l-9.7,27.31Z" transform="translate(-193.3 -35.26)"/><path class="cls-52" d="M334.56,1222.9s-.54,8.16-9.08,23.5l18.92,24.67,1.38-40Z" transform="translate(-193.3 -35.26)"/><path class="cls-53" d="M325.43,1246.4s-3.67,14.67-2.35,18.78c0,0,8.06,2.93,13.86-.73A64.44,64.44,0,0,0,325.43,1246.4Z" transform="translate(-193.3 -35.26)"/><path class="cls-54" d="M344.38,1458c2.05-10.35.1-41.36,0-42.68l-1.76.11c0,.32,2,32.1,0,42.23Z" transform="translate(-193.3 -35.26)"/><path class="cls-55" d="M330,1453.19s16.55,2,22,3.34l-.72,18.55-21.67-2.31Z" transform="translate(-193.3 -35.26)"/><path class="cls-53" d="M333.65,1263.12s18.46,46.62,15.45,98.79c-3.12,54.1-8.24,73.71-8.24,73.71l-11.38,14.27-5-17.54s15.27-69,5.41-136.08c-1.79-12.16-4.44-35.21-4.44-35.21Z" transform="translate(-193.3 -35.26)"/><path class="cls-17" d="M278.18,1483.27s4,7.92,7.92,9.24,9.74,7.76,9.74,7.76L267.95,1515s-7.43-14.52-7.76-23.77S278.18,1483.27,278.18,1483.27Z" transform="translate(-193.3 -35.26)"/><path class="cls-47" d="M280.83,1484l1.85,3.71s-17.71,13-22.49,13.78l-1.64-5Z" transform="translate(-193.3 -35.26)"/><path class="cls-50" d="M282.67,1484.17s-13.27,11-24.46,16l-37.62-67.67,19.49-37.69S281.79,1477.57,282.67,1484.17Z" transform="translate(-193.3 -35.26)"/><path class="cls-46" d="M395.7,1352.77c2,5.57,4.22,11.63,6.46,17.53a188,188,0,0,0,.5-19.1c-.9-35.1-11.94-53.51-11.94-53.51,2.53,6.12,3.75,19.24,4.33,31.11.62,12.52.52,23.64.52,23.64h0Z" transform="translate(-193.3 -35.26)"/><path class="cls-46" d="M226.48,1460.92l30.12,36.38-25.8-44.6C229.31,1455.46,227.86,1458.21,226.48,1460.92Z" transform="translate(-193.3 -35.26)"/><path class="cls-56" d="M445.2,1415.31h69.54a10.33,10.33,0,0,0,10-7.89L555,1282.71a10.33,10.33,0,0,0-10-12.76H475.41a10.32,10.32,0,0,0-10,7.89l-30.2,124.71A10.33,10.33,0,0,0,445.2,1415.31Z" transform="translate(-193.3 -35.26)"/><path class="cls-17" d="M530.26,1380.64c-3.4-3.15-10-5-15.59-8.73s-.93-7.63-.93-7.63c-5.78-2-5.15-4.62-4.41-6.42,1-2.43,7.31-1.74,7.31-1.74a62.15,62.15,0,0,1-8-2.28c-2.33-1-1.54-5.09,2-6.37s18.16,2.31,18.16,2.31-2.38-1.16-9.57-4.77-8.77-6.89-4.53-8.47c2.95-1.1,8.74,1.2,19.86,8.67,8.37,5.63,7.69,6.36,7.69,6.36S534.32,1384.4,530.26,1380.64Z" transform="translate(-193.3 -35.26)"/></svg>