<svg id="Ñëîé_1" data-name="Ñëîé 1" xmlns="http://www.w3.org/2000/svg" viewBox="0 0 2577.19 1637.07"><defs><style>.cls-1{fill:#40a87b;}.cls-12,.cls-15,.cls-2,.cls-23,.cls-24,.cls-25,.cls-27,.cls-28,.cls-30,.cls-32,.cls-34,.cls-39,.cls-4,.cls-40,.cls-41,.cls-42,.cls-7{fill:none;}.cls-2{stroke:#6adb6a;}.cls-15,.cls-16,.cls-2,.cls-23,.cls-25,.cls-27,.cls-28,.cls-30,.cls-32,.cls-34,.cls-35,.cls-4,.cls-40,.cls-41,.cls-42,.cls-7{stroke-miterlimit:10;}.cls-2,.cls-4{stroke-width:3.46px;}.cls-3{fill:#6adb6a;}.cls-4{stroke:#40a87b;}.cls-35,.cls-5{fill:#e5f0f8;}.cls-6{fill:#0775ef;}.cls-15,.cls-16,.cls-34,.cls-35,.cls-7{stroke:#bbdbf3;}.cls-7{stroke-width:156.02px;}.cls-8{fill:#bbdbf3;}.cls-9{fill:#586773;}.cls-10,.cls-16{fill:#fff;}.cls-11{fill:#f74242;}.cls-12,.cls-28,.cls-30,.cls-41,.cls-42{stroke:#fff;}.cls-12,.cls-24,.cls-39{stroke-linecap:round;stroke-linejoin:round;}.cls-12{stroke-width:8.08px;}.cls-13{fill:#f9e181;}.cls-14{fill:#088cfc;}.cls-15{stroke-width:3.44px;}.cls-16{stroke-width:6.27px;}.cls-17{fill:#f2bb16;}.cls-18{fill:#f9ecb8;}.cls-19{fill:#332b27;}.cls-20{fill:#b37661;}.cls-21{fill:#824c3a;}.cls-22{fill:#322a28;}.cls-23{stroke:#fff1f0;stroke-width:1.62px;}.cls-24{stroke:#724638;stroke-width:0.68px;}.cls-25,.cls-27,.cls-40{stroke:#332b27;}.cls-25{stroke-width:1.01px;}.cls-26{fill:#a14c53;}.cls-27,.cls-30{stroke-width:1.4px;}.cls-28{stroke-width:1.15px;}.cls-29{fill:#2ec6fc;}.cls-31{fill:#cf3737;}.cls-32{stroke:#e5f0f8;stroke-width:4.41px;}.cls-33{fill:#54667a;}.cls-34{stroke-width:5.75px;}.cls-35{stroke-width:2.88px;}.cls-36{fill:#7992b0;}.cls-37{fill:#fdae97;}.cls-38{fill:#e89780;}.cls-39{stroke:#e89780;stroke-width:0.72px;}.cls-40{stroke-width:1.07px;}.cls-41{stroke-width:0.94px;}.cls-42{stroke-width:1.44px;}</style></defs><title>hr_online</title><path class="cls-1" d="M265.45,2044.24s-30.84-123-107.73-161-159,14-138.11,68.68c18,47.14,91.85-10.82,149.34,12s66.55,80.36,66.55,80.36Z" transform="translate(-16.32 -425.63)"/><path class="cls-2" d="M34.47,1919.13s82.52-47,143.75-3.55,80.6,128.66,80.6,128.66" transform="translate(-16.32 -425.63)"/><line class="cls-2" x1="31.46" y1="1471.5" x2="50.66" y2="1479.87"/><line class="cls-2" x1="59.19" y1="1453.56" x2="97.43" y2="1471.5"/><line class="cls-2" x1="116.64" y1="1453.56" x2="136.54" y2="1477.07"/><line class="cls-2" x1="154.35" y1="1469.31" x2="163.3" y2="1490.96"/><line class="cls-2" x1="41.06" y1="1523.44" x2="70.53" y2="1474.68"/><line class="cls-2" x1="93.13" y1="1516.45" x2="120.16" y2="1473.04"/><line class="cls-2" x1="139.05" y1="1509.8" x2="179.69" y2="1504.75"/><line class="cls-2" x1="186.36" y1="1534.42" x2="209.65" y2="1542.07"/><path class="cls-3" d="M299.94,2040.36s21.76-412.42-175.22-359.27,153.66,275.42,153.36,359.27Z" transform="translate(-16.32 -425.63)"/><path class="cls-4" d="M292,2040.36s-6.88-215.47-147.29-322" transform="translate(-16.32 -425.63)"/><line class="cls-4" x1="189.95" y1="1355.19" x2="186.45" y2="1280.89"/><line class="cls-4" x1="79.79" y1="1324.4" x2="174.7" y2="1336.77"/><line class="cls-4" x1="116.7" y1="1387.82" x2="217.05" y2="1399.51"/><line class="cls-4" x1="166.87" y1="1450.66" x2="244.38" y2="1461.62"/><line class="cls-4" x1="251.82" y1="1391.94" x2="234.05" y2="1435.11"/><line class="cls-4" x1="222.62" y1="1321.89" x2="207.48" y2="1382.66"/><line class="cls-4" x1="268.4" y1="1464" x2="254.25" y2="1492.21"/><line class="cls-4" x1="207.48" y1="1508.92" x2="263.02" y2="1526.43"/><path class="cls-5" d="M421.71,2032.85S-275.13,315,1003.66,431.28c547.72,49.8,445.47,352,687.37,634.65,156.8,183.25,458.37,33.34,571.38,193.47s-19.79,616.71-66.38,773.45Z" transform="translate(-16.32 -425.63)"/><rect class="cls-6" x="163.78" y="1599.53" width="2084.97" height="37.54" rx="16.37" ry="16.37"/><polyline class="cls-7" points="519.35 1515.12 727.83 692.88 1804.59 886.61 2422.48 280.68"/><polygon class="cls-8" points="2577.19 132.39 2262.8 216.63 2492.95 446.77 2577.19 132.39"/><rect class="cls-9" x="1183.83" y="1179.68" width="279.82" height="378.24"/><rect class="cls-9" x="455.81" y="209.95" width="1735.86" height="1130.07" rx="139.44" ry="139.44"/><rect class="cls-5" x="832.78" y="390.45" width="1014.56" height="1620.35" rx="87.16" ry="87.16" transform="translate(2524.36 -565.07) rotate(90)"/><path class="cls-8" d="M2092.46,789.64v53.09H587.63V789.64a38.61,38.61,0,0,1,38.56-38.56H2053.91A38.61,38.61,0,0,1,2092.46,789.64Z" transform="translate(-16.32 -425.63)"/><path class="cls-10" d="M2092.45,842.76v770.92a38.61,38.61,0,0,1-38.51,38.64H626.18a38.61,38.61,0,0,1-38.51-38.64V842.76Z" transform="translate(-16.32 -425.63)"/><circle class="cls-1" cx="653.51" cy="374.19" r="14.78"/><circle class="cls-10" cx="695.11" cy="374.19" r="14.78"/><circle class="cls-11" cx="736.7" cy="374.19" r="14.78"/><rect class="cls-9" x="792.7" y="1525.46" width="1062.07" height="74.21" rx="12.11" ry="12.11"/><line class="cls-12" x1="1966.52" y1="396.46" x2="2016.88" y2="346.09"/><line class="cls-12" x1="2016.88" y1="396.46" x2="1966.52" y2="346.09"/><rect class="cls-5" x="1914.77" y="463.67" width="124.91" height="48.81"/><rect class="cls-5" x="1761.65" y="463.67" width="124.91" height="48.81"/><rect class="cls-5" x="1608.54" y="463.67" width="124.91" height="48.81"/><rect class="cls-5" x="1455.42" y="463.67" width="124.91" height="48.81"/><path class="cls-13" d="M992.44,980.35A202.16,202.16,0,0,0,899,904.19l-76.25,189Z" transform="translate(-16.32 -425.63)"/><path class="cls-11" d="M830.81,889.64c-2.7-.11-5.38-.33-8.11-.33a204,204,0,0,0-38.12,3.61l38.12,200.25,76.25-189A202.84,202.84,0,0,0,830.81,889.64Z" transform="translate(-16.32 -425.63)"/><path class="cls-14" d="M1026.42,1087c-.15-4.93-.53-9.8-1-14.64a202.75,202.75,0,0,0-33-92L822.7,1093.17l200.41,37.25a204.68,204.68,0,0,0,3.46-37.25C1026.57,1091.11,1026.48,1089.07,1026.42,1087Z" transform="translate(-16.32 -425.63)"/><path class="cls-3" d="M822.7,1093.17,784.58,892.92c-3.74.71-7.45,1.5-11.11,2.41-88.8,22-154.64,102.23-154.64,197.85a203.86,203.86,0,0,0,404.28,37.25Z" transform="translate(-16.32 -425.63)"/><rect class="cls-11" x="1035.99" y="463.67" width="83.06" height="83.06"/><rect class="cls-5" x="1134.21" y="463.67" width="217.16" height="14.88"/><rect class="cls-5" x="1134.21" y="490.32" width="217.16" height="14.88"/><rect class="cls-5" x="1134.21" y="516.97" width="112.51" height="14.88"/><rect class="cls-14" x="1035.99" y="565.61" width="83.06" height="83.06"/><rect class="cls-5" x="1134.21" y="565.61" width="217.16" height="14.88"/><rect class="cls-5" x="1134.21" y="592.25" width="217.16" height="14.88"/><rect class="cls-5" x="1134.21" y="618.9" width="112.51" height="14.88"/><rect class="cls-13" x="1035.99" y="667.54" width="83.06" height="83.06"/><rect class="cls-5" x="1134.21" y="667.54" width="217.16" height="14.88"/><rect class="cls-5" x="1134.21" y="694.19" width="217.16" height="14.88"/><rect class="cls-5" x="1134.21" y="720.84" width="112.51" height="14.88"/><rect class="cls-3" x="1035.99" y="769.47" width="83.06" height="83.06"/><rect class="cls-5" x="1134.21" y="769.47" width="217.16" height="14.88"/><rect class="cls-5" x="1134.21" y="796.12" width="217.16" height="14.88"/><rect class="cls-5" x="1134.21" y="822.77" width="112.51" height="14.88"/><rect class="cls-8" x="602.51" y="904.8" width="748.85" height="60.17"/><rect class="cls-5" x="602.51" y="964.96" width="748.85" height="214.72"/><rect class="cls-10" x="629.24" y="928.08" width="242.96" height="13.39"/><rect class="cls-10" x="887.01" y="928.08" width="164.52" height="13.39"/><rect class="cls-15" x="629.36" y="986.37" width="695.16" height="171.91"/><rect class="cls-15" x="629.36" y="986.37" width="60.32" height="171.91"/><rect class="cls-15" x="689.68" y="986.37" width="348.66" height="171.91"/><rect class="cls-15" x="1269.5" y="986.37" width="55.02" height="171.91"/><rect class="cls-15" x="1214.48" y="986.37" width="55.02" height="171.91"/><rect class="cls-15" x="1145.74" y="986.37" width="68.75" height="171.91"/><rect class="cls-15" x="1038.34" y="986.37" width="107.39" height="171.91"/><rect class="cls-15" x="629.36" y="1037.64" width="695.16" height="40.21"/><rect class="cls-15" x="629.36" y="1077.85" width="695.16" height="40.21"/><rect class="cls-15" x="629.36" y="1118.06" width="695.16" height="40.21"/><rect class="cls-8" x="1387.24" y="417.1" width="30.75" height="809.57"/><rect class="cls-8" x="1455.42" y="531.85" width="285.42" height="14.88"/><rect class="cls-8" x="1455.42" y="629.75" width="285.42" height="14.88"/><rect class="cls-5" x="1455.42" y="565.62" width="584.27" height="9.48"/><rect class="cls-5" x="1455.42" y="586.55" width="584.27" height="9.48"/><rect class="cls-5" x="1455.42" y="665.64" width="584.27" height="9.19"/><rect class="cls-5" x="1455.42" y="685.93" width="584.27" height="9.19"/><rect class="cls-5" x="1455.42" y="706.21" width="584.27" height="9.19"/><rect class="cls-5" x="1455.42" y="726.5" width="584.27" height="9.19"/><rect class="cls-5" x="1455.42" y="746.78" width="584.27" height="9.19"/><rect class="cls-5" x="1455.42" y="767.07" width="584.27" height="9.19"/><rect class="cls-5" x="1455.42" y="787.35" width="584.27" height="9.19"/><rect class="cls-5" x="1455.42" y="807.63" width="584.27" height="9.19"/><rect class="cls-5" x="1455.42" y="827.92" width="584.27" height="9.19"/><rect class="cls-5" x="1455.42" y="871.41" width="584.27" height="9.19"/><rect class="cls-5" x="1455.42" y="891.69" width="584.27" height="9.19"/><rect class="cls-5" x="1455.42" y="911.98" width="584.27" height="9.19"/><rect class="cls-5" x="1455.42" y="932.26" width="230.65" height="9.19"/><rect class="cls-8" x="1417.99" y="968.42" width="658.16" height="41.85"/><rect class="cls-5" x="1455.42" y="984.12" width="144.13" height="10.46"/><rect class="cls-5" x="1614.01" y="984.12" width="144.13" height="10.46"/><rect class="cls-5" x="1772.59" y="984.12" width="144.13" height="10.46"/><rect class="cls-16" x="1777.89" y="1120.93" width="90.14" height="71.15"/><rect class="cls-16" x="1554.54" y="1120.93" width="223.35" height="71.15"/><rect class="cls-16" x="1473.36" y="1120.93" width="81.18" height="71.15"/><rect class="cls-16" x="1868.03" y="1120.93" width="73.49" height="71.15"/><rect class="cls-16" x="1941.52" y="1120.93" width="79.25" height="71.15"/><rect class="cls-16" x="1777.89" y="1049.77" width="90.14" height="71.15"/><rect class="cls-16" x="1554.54" y="1049.77" width="223.35" height="71.15"/><rect class="cls-16" x="1473.36" y="1049.77" width="81.18" height="71.15"/><rect class="cls-16" x="1868.03" y="1049.77" width="73.49" height="71.15"/><rect class="cls-16" x="1941.52" y="1049.77" width="79.25" height="71.15"/><rect class="cls-5" x="1580.32" y="1078.57" width="171.79" height="13.57"/><rect class="cls-5" x="1580.32" y="1149.72" width="171.79" height="13.57"/><path class="cls-3" d="M1905.14,921.23c-37.79-21.32-72.67-33.75-72.67-78.4s-3.88-85.85-50.38-109.33-28.1-65.16-39.73-100-47.48-46.68-47.48-46.68a89.59,89.59,0,0,1,29.58,14c9,6.64,17.15,15.21,22.59,25.78,5.8,10.53,8.25,22.35,10.19,33.21s3.29,21.34,6.23,29.88a44,44,0,0,0,5.4,11.15,34.21,34.21,0,0,0,7.6,7.87,46.56,46.56,0,0,0,10,5.61c.89.42,1.89.76,2.86,1.13l1.45.55,2.11.92c2.9,1.3,5.82,2.55,8.72,4a103.89,103.89,0,0,1,32,25c9.28,10.73,15.9,23.53,20.36,36.1a200.76,200.76,0,0,1,8.87,37c.92,6,1.63,11.75,2.27,17.44l.46,4.23.23,2.12c.09.55.2.8.3,1.22l.54,2.23.24,1.1c.11.33.27.61.39.92.57,1.15.81,2.51,1.52,3.3.29.45.55.9.79,1.36s.68.72,1,1.08c1.07,1.45,2.67,2.42,4.19,3.69a112.58,112.58,0,0,0,17.19,9c7.83,3.47,17.46,7.18,27.9,11.58l4,1.72,2,.86,1,.43a12.81,12.81,0,0,1,1.18.55c2.13,1.11,4.28,2.22,6.37,3.43s4.14,2.53,6.14,3.89a109.49,109.49,0,0,1,21.18,19.07c12.09,14.14,19.79,29.57,25,44.4a175.74,175.74,0,0,1,6.22,22.33c.77,3.74,1.44,7.49,2,11.34.28,1.92.51,3.89.72,5.94l.28,3.21.11,1.78,0,1c0,.46,0,.59,0,1.59L1941,997.79S1942.93,942.55,1905.14,921.23Z" transform="translate(-16.32 -425.63)"/><path class="cls-1" d="M1742.36,633.46c11.63,34.87-6.78,76.55,39.73,100s50.38,64.68,50.38,109.33,34.88,57.08,72.67,78.4S1941,997.79,1941,997.79l-54.83-1.92.09-.43c.12-.63.24-1.33.33-2.07.19-1.48.32-3,.41-4.61a78.62,78.62,0,0,0-.05-9.1,63.82,63.82,0,0,0-2.17-13.26,33.7,33.7,0,0,0-1.21-3.75c-.12-.27-.26-.49-.37-.8s-.31-.48-.45-.78c.07,0-.36-.29-.57-.45l-.76-.54-1.51-1.08-3-2.17c-8.3-5.88-17.7-12-28.11-19.67-2.66-2-5.18-3.83-8-6.17l-4.06-3.35c-1.36-1.14-2.78-2.49-4.15-3.74a124.68,124.68,0,0,1-16.21-18c-1.25-1.81-2.45-3.68-3.64-5.54a53.51,53.51,0,0,1-3.34-5.76q-1.53-3-3-6.07a62.67,62.67,0,0,1-2.42-6.27c-.71-2.11-1.51-4.23-2.05-6.34s-1-4.24-1.4-6.36a85,85,0,0,1-1.58-12.41c-.07-1-.18-2.05-.21-3l0-2.9.14-5.78.11-2.79.2-1.89.41-3.78c.52-5,1-9.9,1.27-14.62a149.47,149.47,0,0,0-.25-26.42c-.95-8.08-2.77-15.34-6.16-21.9a57.88,57.88,0,0,0-14.87-18.18c-1.68-1.33-3.48-2.6-5.23-3.94-.47-.35-.82-.64-1.39-1l-2.08-1.36c-1.38-.91-2.75-1.79-4.11-2.83a81.05,81.05,0,0,1-15.17-14.1A67.26,67.26,0,0,1,1741,714.34a74.33,74.33,0,0,1-4.53-19.25c-1.31-12.46-.21-23.5.16-33.92s.44-20.19-2.31-29.39c-2.45-9.37-7.68-18.14-14.44-25.91a86.19,86.19,0,0,0-25-19.09S1730.73,598.59,1742.36,633.46Z" transform="translate(-16.32 -425.63)"/><path class="cls-3" d="M1961.68,821.07c-62.4-35-75.81-55.72-74.64-103.91s-18.65-79.2-55.75-93.69-63.75-35.82-52.6-71.81-17.06-63.66-43.78-70.74a70,70,0,0,1,34,17.23A63.13,63.13,0,0,1,1781.2,514a55.25,55.25,0,0,1,6,19.88c.13,1.76.3,3.53.37,5.3l-.25,5.31a34.57,34.57,0,0,1-.68,5.26l-.45,2.62-.23,1.32-.16,1.08a43.16,43.16,0,0,0-.15,15.62,29.29,29.29,0,0,0,6.06,12.8,47.08,47.08,0,0,0,11.06,10,93.5,93.5,0,0,0,14.3,7.71c5.1,2.28,10.44,4.32,16,6.17l4.14,1.37,5.1,1.89c3.43,1.17,6.74,2.9,10.11,4.41,1.66.84,3.28,1.79,4.92,2.69a49.87,49.87,0,0,1,4.84,2.93l4.74,3.19,4.52,3.59c.75.61,1.51,1.2,2.24,1.83l2.12,2c1.39,1.35,2.85,2.66,4.18,4.08a99,99,0,0,1,7.48,9,101.25,101.25,0,0,1,11.6,20.14,139.06,139.06,0,0,1,10.37,43.31l.58,10.64c.2,2.77.29,5.63.55,8.31l.44,4,.21,2,.34,1.83.64,3.65c.23,1.19.59,2.24.86,3.37,2.28,9,6.2,14.73,12,20.95,6,6.12,14.66,12.13,24.21,17.81l7.35,4.22,7.69,4.11c2.55,1.37,5.28,2.68,7.91,4l4,2c.27.12.79.42,1.28.69l1.45.81,2.9,1.65c15.47,8.9,28.5,22.58,37.31,37.22,9,14.71,14.17,30.22,17.57,45.26a226.45,226.45,0,0,1,5,44.45c.13,7.29,0,14.52-.51,21.75-.23,3.62-.55,7.24-.93,10.9q-.29,2.74-.66,5.56l-.41,2.9c-.17,1.07-.26,1.8-.57,3.45l-37.21-8.06S2024.08,856.09,1961.68,821.07Z" transform="translate(-16.32 -425.63)"/><path class="cls-1" d="M1764.4,502.29a62.53,62.53,0,0,0-13.08-12.6,66.12,66.12,0,0,0-16.4-8.78c26.72,7.08,54.94,34.76,43.78,70.74s15.5,57.31,52.6,71.81,56.92,45.5,55.75,93.69,12.23,68.9,74.64,103.91,39.7,139.84,39.7,139.84l-37.21-8.06a8,8,0,0,0,.33-1.16l.41-1.74.79-3.73c.5-2.55,1-5.15,1.38-7.77.81-5.24,1.46-10.54,1.89-15.79a157.65,157.65,0,0,0-.25-30.5,86.74,86.74,0,0,0-6.65-25.62,46.65,46.65,0,0,0-5.74-9.73,38,38,0,0,0-7.57-7.65l-1.1-.83-.55-.43a5.7,5.7,0,0,0-.73-.52l-4.18-2.69c-2.79-1.82-5.55-3.53-8.35-5.44l-8.37-5.7-8.39-6.09c-11.12-8.44-22.59-17.85-32.85-30.89l-3.69-5.11c-.6-.87-1.23-1.68-1.79-2.6l-1.64-2.79c-1.07-1.88-2.18-3.71-3.17-5.64l-2.69-6a51.5,51.5,0,0,1-2.28-6.06c-.64-2-1.41-4.09-1.9-6.12a103.84,103.84,0,0,1-2.37-12.09c-.25-2-.57-4-.72-5.9l-.33-5.7-.15-2.84V733l0-5.45c.08-3.59.35-7,.53-10.5l.52-8.18a97.49,97.49,0,0,0-3.4-30.34,62.15,62.15,0,0,0-5.6-13.22,61.17,61.17,0,0,0-3.83-6c-.7-1-1.51-1.84-2.26-2.78l-1.14-1.4c-.4-.45-.85-.86-1.27-1.3l-2.55-2.62-2.82-2.41a26.17,26.17,0,0,0-3-2.31c-1-.73-2-1.51-3.09-2.23-2.24-1.28-4.33-2.81-6.75-3.93l-3.54-1.83-4.56-2.2c-3-1.41-6.06-3.11-9.07-4.68-3-1.78-6-3.43-8.88-5.4l-4.36-2.93-4.25-3.26c-1.42-1-2.79-2.26-4.15-3.47s-2.74-2.32-4-3.71a66.53,66.53,0,0,1-13.53-18.26A51.47,51.47,0,0,1,1767,572a60.5,60.5,0,0,1,4.09-21.54l1.42-4.11a23.94,23.94,0,0,0,1.2-3.94l.88-4c.16-1.36.24-2.72.38-4.1a44.41,44.41,0,0,0-2.2-16.59A55.45,55.45,0,0,0,1764.4,502.29Z" transform="translate(-16.32 -425.63)"/><path class="cls-3" d="M2191.93,924.36c37.79-21.32,72.67-33.75,72.67-78.4s3.88-85.85,50.38-109.33,28.1-65.16,39.73-100,47.48-46.68,47.48-46.68a89.58,89.58,0,0,0-29.58,14c-9,6.64-17.15,15.21-22.59,25.78-5.8,10.53-8.25,22.35-10.19,33.21s-3.29,21.34-6.23,29.88a44,44,0,0,1-5.4,11.15,34.21,34.21,0,0,1-7.6,7.87,46.56,46.56,0,0,1-10,5.61c-.89.42-1.89.76-2.86,1.13l-1.45.55-2.11.92c-2.9,1.3-5.82,2.55-8.72,4a103.9,103.9,0,0,0-32,25c-9.28,10.73-15.9,23.53-20.36,36.1a200.76,200.76,0,0,0-8.87,37c-.92,6-1.63,11.75-2.27,17.44l-.46,4.23-.23,2.12c-.09.55-.2.8-.3,1.22l-.54,2.23-.24,1.1c-.11.33-.27.61-.39.92-.57,1.15-.81,2.51-1.52,3.3-.29.45-.55.9-.79,1.36s-.68.72-1,1.08c-1.07,1.45-2.67,2.42-4.19,3.69a112.58,112.58,0,0,1-17.19,9c-7.83,3.47-17.46,7.18-27.9,11.58l-4,1.72-2,.86-1,.43a12.81,12.81,0,0,0-1.18.55c-2.13,1.11-4.28,2.22-6.37,3.43s-4.14,2.53-6.14,3.89a109.49,109.49,0,0,0-21.18,19.07c-12.09,14.14-19.79,29.57-25,44.4a175.73,175.73,0,0,0-6.22,22.33c-.77,3.74-1.44,7.49-2,11.34-.28,1.92-.51,3.89-.72,5.94l-.28,3.21-.11,1.78,0,1c0,.46,0,.59,0,1.59l55.13-1.93S2154.14,945.68,2191.93,924.36Z" transform="translate(-16.32 -425.63)"/><path class="cls-1" d="M2354.71,636.59c-11.63,34.88,6.78,76.55-39.73,100S2264.6,801.31,2264.6,846s-34.88,57.08-72.67,78.4-35.85,76.55-35.85,76.55l54.83-1.92c0-.14-.06-.29-.09-.43-.12-.63-.24-1.33-.33-2.07-.19-1.48-.32-3-.41-4.61a78.59,78.59,0,0,1,.05-9.1,63.81,63.81,0,0,1,2.17-13.26,33.72,33.72,0,0,1,1.21-3.75c.12-.27.26-.49.37-.8s.31-.48.45-.78c-.07,0,.36-.29.57-.45l.76-.54,1.51-1.08,3-2.17c8.3-5.88,17.7-12,28.11-19.67,2.66-2,5.18-3.83,8-6.17l4.06-3.35c1.36-1.14,2.78-2.49,4.15-3.74a124.67,124.67,0,0,0,16.21-18c1.25-1.81,2.45-3.68,3.64-5.54a53.55,53.55,0,0,0,3.34-5.76q1.53-3,3-6.07a62.62,62.62,0,0,0,2.42-6.27c.71-2.11,1.51-4.23,2.05-6.35s1-4.24,1.4-6.36a85,85,0,0,0,1.58-12.41c.07-1,.18-2.05.21-3l0-2.9-.14-5.78-.11-2.79-.2-1.89-.41-3.78c-.52-5-1-9.9-1.27-14.62a149.48,149.48,0,0,1,.25-26.42c.95-8.08,2.77-15.34,6.16-21.9A57.88,57.88,0,0,1,2317.39,759c1.68-1.33,3.48-2.6,5.23-3.94.47-.35.82-.64,1.39-1l2.08-1.36c1.38-.91,2.75-1.79,4.11-2.83a81.05,81.05,0,0,0,15.17-14.1,67.26,67.26,0,0,0,10.72-18.27,74.33,74.33,0,0,0,4.53-19.25c1.31-12.46.21-23.5-.16-33.92s-.44-20.19,2.31-29.39c2.45-9.37,7.68-18.14,14.44-25.91a86.2,86.2,0,0,1,25-19.09S2366.33,601.71,2354.71,636.59Z" transform="translate(-16.32 -425.63)"/><path class="cls-3" d="M2135.39,824.2c62.4-35,75.81-55.72,74.64-103.91s18.65-79.2,55.75-93.69,63.75-35.82,52.6-71.81,17.06-63.66,43.78-70.74a70,70,0,0,0-34,17.23,63.13,63.13,0,0,0-12.29,15.85,55.25,55.25,0,0,0-6,19.88c-.13,1.76-.3,3.53-.37,5.3l.25,5.31a34.56,34.56,0,0,0,.68,5.26l.45,2.62.23,1.32.16,1.08a43.16,43.16,0,0,1,.15,15.62,29.29,29.29,0,0,1-6.06,12.8,47.08,47.08,0,0,1-11.06,10A93.5,93.5,0,0,1,2280,604c-5.1,2.28-10.44,4.32-16,6.17l-4.14,1.37-5.1,1.89c-3.43,1.17-6.74,2.9-10.11,4.41-1.66.84-3.28,1.79-4.92,2.69a49.89,49.89,0,0,0-4.84,2.93l-4.74,3.19-4.52,3.59c-.75.61-1.51,1.2-2.24,1.83l-2.12,2c-1.39,1.35-2.85,2.66-4.18,4.08a99,99,0,0,0-7.48,9,101.25,101.25,0,0,0-11.6,20.14,139.06,139.06,0,0,0-10.37,43.31l-.58,10.64c-.2,2.77-.29,5.63-.55,8.31l-.44,4-.21,2-.34,1.83-.64,3.65c-.23,1.19-.59,2.24-.86,3.37-2.28,9-6.2,14.73-12,20.95-6,6.12-14.66,12.13-24.21,17.81l-7.35,4.22-7.69,4.11c-2.55,1.37-5.28,2.68-7.91,4l-4,2c-.27.12-.79.42-1.28.69l-1.45.81-2.9,1.65c-15.47,8.9-28.5,22.58-37.31,37.22-9,14.71-14.17,30.22-17.57,45.26a226.45,226.45,0,0,0-5,44.45c-.13,7.29,0,14.52.51,21.75.23,3.62.55,7.24.93,10.9q.29,2.74.66,5.56l.41,2.9c.17,1.07.26,1.8.57,3.45l37.21-8.06S2073,859.21,2135.39,824.2Z" transform="translate(-16.32 -425.63)"/><path class="cls-1" d="M2332.66,505.42a62.54,62.54,0,0,1,13.08-12.6,66.12,66.12,0,0,1,16.4-8.78c-26.72,7.08-54.94,34.76-43.78,70.74s-15.5,57.31-52.6,71.81-56.92,45.5-55.75,93.69-12.23,68.9-74.64,103.91S2095.69,964,2095.69,964L2132.9,956a8,8,0,0,1-.33-1.16l-.41-1.74-.79-3.73c-.5-2.55-1-5.15-1.38-7.77-.81-5.24-1.46-10.54-1.89-15.79a157.65,157.65,0,0,1,.25-30.5,86.74,86.74,0,0,1,6.65-25.62,46.65,46.65,0,0,1,5.74-9.73,38,38,0,0,1,7.57-7.65l1.1-.83.55-.43a5.68,5.68,0,0,1,.73-.52l4.18-2.69c2.79-1.82,5.55-3.53,8.35-5.44l8.37-5.7,8.39-6.09c11.12-8.44,22.59-17.85,32.85-30.89l3.69-5.11c.6-.87,1.23-1.68,1.79-2.6l1.64-2.79c1.07-1.88,2.18-3.71,3.17-5.64l2.69-6a51.49,51.49,0,0,0,2.28-6.06c.64-2,1.41-4.09,1.9-6.12a103.87,103.87,0,0,0,2.37-12.09c.25-2,.57-4,.72-5.9l.33-5.7.15-2.84v-2.73l0-5.45c-.08-3.59-.35-7-.53-10.5l-.52-8.18a97.49,97.49,0,0,1,3.4-30.34,62.16,62.16,0,0,1,5.6-13.22,61.19,61.19,0,0,1,3.83-6c.7-1,1.51-1.84,2.26-2.78l1.14-1.4c.4-.45.85-.86,1.27-1.3l2.55-2.62,2.82-2.41a26.16,26.16,0,0,1,3-2.31c1-.73,2-1.51,3.09-2.23,2.24-1.28,4.33-2.81,6.75-3.93l3.54-1.83,4.56-2.2c3-1.41,6.06-3.11,9.07-4.68,3-1.78,6-3.43,8.88-5.4l4.36-2.93,4.25-3.26c1.42-1,2.79-2.26,4.15-3.47s2.74-2.32,4-3.71a66.53,66.53,0,0,0,13.53-18.26,51.47,51.47,0,0,0,5.58-22.61,60.5,60.5,0,0,0-4.09-21.54l-1.42-4.11a24,24,0,0,1-1.2-3.94l-.88-4c-.16-1.36-.24-2.72-.38-4.1a44.41,44.41,0,0,1,2.2-16.59A55.45,55.45,0,0,1,2332.66,505.42Z" transform="translate(-16.32 -425.63)"/><path class="cls-3" d="M2086.76,831.17c41.12-58.56,44.25-83,22.34-126s-17.44-79.48,9.73-108.59,42-59.87,16.36-87.49-12.15-64.77,8.87-82.72a70,70,0,0,0-23.2,30.24,63.13,63.13,0,0,0-4.22,19.6,55.25,55.25,0,0,0,3.17,20.53c.64,1.64,1.26,3.31,2,4.94l2.52,4.68a34.57,34.57,0,0,0,2.89,4.45l1.55,2.17.78,1.09.61.9a43.16,43.16,0,0,1,6.89,14,29.29,29.29,0,0,1,.08,14.16,47.09,47.09,0,0,1-5.66,13.77,93.5,93.5,0,0,1-9.56,13.13c-3.61,4.26-7.55,8.42-11.72,12.47l-3.14,3-3.78,3.91c-2.59,2.54-4.82,5.53-7.21,8.34-1.13,1.47-2.19,3-3.28,4.56a49.88,49.88,0,0,0-3.1,4.74l-2.89,4.93-2.52,5.19c-.41.87-.84,1.74-1.23,2.62l-1,2.71c-.67,1.82-1.42,3.63-2,5.48a99,99,0,0,0-2.85,11.35,101.24,101.24,0,0,0-1.75,23.18,139.06,139.06,0,0,0,9.39,43.53l4.08,9.84c1,2.59,2.18,5.2,3.1,7.73l1.31,3.75.66,1.87.49,1.8,1,3.57c.3,1.17.44,2.28.68,3.41,1.83,9.08.78,16-1.79,24.1-2.78,8.12-8,17.28-14.12,26.53l-4.8,7-5.15,7c-1.7,2.34-3.6,4.7-5.39,7.05l-2.72,3.53c-.19.23-.53.72-.85,1.18l-1,1.36-1.9,2.74c-10.1,14.72-15.93,32.69-17.53,49.7s.29,33.38,3.74,48.41a226.45,226.45,0,0,0,14.75,42.23q4.55,9.94,9.87,19.39c1.77,3.16,3.62,6.29,5.55,9.43q1.45,2.35,3,4.73l1.62,2.43c.62.9,1,1.51,2,2.86l30.06-23.36S2045.64,889.73,2086.76,831.17Z" transform="translate(-16.32 -425.63)"/><path class="cls-1" d="M2126.73,458.42a62.54,62.54,0,0,1,6.34-17,66.12,66.12,0,0,1,11-15c-21,17.95-34.5,55.1-8.87,82.72s10.81,58.38-16.36,87.49-31.64,65.64-9.73,108.59,18.77,67.41-22.34,126,24.69,143.26,24.69,143.26l30.06-23.36a8,8,0,0,1-.8-.91l-1.12-1.39-2.33-3c-1.55-2.08-3.11-4.22-4.61-6.41-3-4.38-5.88-8.87-8.54-13.42a157.65,157.65,0,0,1-13-27.61,86.74,86.74,0,0,1-5.08-26,46.66,46.66,0,0,1,1-11.25,38,38,0,0,1,3.52-10.17l.63-1.23.31-.62a5.68,5.68,0,0,1,.43-.79l2.6-4.23c1.73-2.85,3.48-5.58,5.18-8.51l5.08-8.76,4.93-9.12c6.37-12.42,12.65-25.87,16.26-42.07l1.12-6.2c.16-1,.38-2,.49-3.12l.27-3.23c.15-2.16.36-4.29.42-6.45l-.15-6.53a51.5,51.5,0,0,0-.57-6.45c-.3-2.12-.49-4.3-.94-6.34a103.85,103.85,0,0,0-3.1-11.93c-.63-1.88-1.21-3.84-1.91-5.63l-2.17-5.28-1.1-2.63-1.19-2.46-2.39-4.9c-1.62-3.2-3.35-6.16-5-9.24l-4-7.15a97.49,97.49,0,0,1-10.06-28.82,62.15,62.15,0,0,1-.67-14.34,61.18,61.18,0,0,1,.86-7.08c.21-1.17.57-2.31.83-3.49l.42-1.76c.17-.58.39-1.14.58-1.72l1.17-3.46,1.5-3.39a26.19,26.19,0,0,1,1.67-3.37c.62-1.1,1.17-2.24,1.82-3.34,1.47-2.13,2.69-4.41,4.39-6.46l2.4-3.18,3.16-4c2.13-2.58,4.12-5.42,6.15-8.14,1.92-2.89,3.89-5.67,5.67-8.72l2.66-4.53,2.42-4.78c.83-1.56,1.53-3.25,2.24-4.93s1.47-3.28,2-5.09a66.53,66.53,0,0,0,4.3-22.32,51.47,51.47,0,0,0-4.75-22.8,60.5,60.5,0,0,0-13-17.65l-3.06-3.1a23.94,23.94,0,0,1-2.78-3l-2.54-3.25c-.73-1.15-1.39-2.35-2.12-3.53a44.41,44.41,0,0,1-5.2-15.91A55.45,55.45,0,0,1,2126.73,458.42Z" transform="translate(-16.32 -425.63)"/><path class="cls-3" d="M2020,832.48c17.07-69.49,11.11-93.42-24.88-125.5s-45.09-67.73-30.33-104.72,17.4-71-16.5-87.47-34.83-55.95-21.74-80.3a70,70,0,0,0-10.65,36.59,63.13,63.13,0,0,0,3.18,19.8,55.25,55.25,0,0,0,10.4,18c1.19,1.29,2.37,2.63,3.62,3.89l4,3.45a34.57,34.57,0,0,0,4.31,3.1l2.23,1.46,1.12.73.9.62a43.17,43.17,0,0,1,11.51,10.57,29.29,29.29,0,0,1,5.21,13.17,47.08,47.08,0,0,1-.28,14.88,93.51,93.51,0,0,1-4.14,15.71c-1.82,5.28-4,10.58-6.4,15.87l-1.83,4-2.1,5c-1.49,3.3-2.49,6.9-3.69,10.39-.52,1.78-.94,3.62-1.4,5.44a49.88,49.88,0,0,0-1.17,5.54l-.91,5.64-.47,5.75c-.06,1-.16,1.92-.19,2.89v2.91c0,1.94,0,3.89.12,5.83a99,99,0,0,0,1.47,11.61,101.24,101.24,0,0,0,6.78,22.24,139.06,139.06,0,0,0,24.54,37.16l7.37,7.69c1.89,2,3.92,4.06,5.69,6.08l2.58,3,1.29,1.5,1.11,1.5,2.23,3c.71,1,1.24,2,1.87,2.93,5,7.8,6.52,14.59,7.07,23.1.35,8.58-1.16,19-3.54,29.85l-1.94,8.25-2.25,8.42c-.74,2.8-1.65,5.69-2.47,8.53l-1.25,4.27c-.09.28-.24.87-.37,1.41l-.4,1.62-.77,3.24c-4.07,17.38-3,36.24,1.69,52.67,4.6,16.61,12.38,31,21,43.75a226.45,226.45,0,0,0,29.07,34c5.23,5.07,10.62,9.89,16.23,14.49,2.8,2.31,5.66,4.55,8.6,6.77q2.2,1.66,4.51,3.32l2.39,1.68c.9.61,1.5,1,2.91,1.94L2095,957S2003,902,2020,832.48Z" transform="translate(-16.32 -425.63)"/><path class="cls-1" d="M1922,470.62a62.54,62.54,0,0,1-.26-18.16,66.12,66.12,0,0,1,4.8-18c-13.08,24.35-12.16,63.86,21.74,80.3s31.26,50.48,16.5,87.47-5.67,72.65,30.33,104.72,42,56,24.88,125.5S2095,957,2095,957l19.54-32.68a8,8,0,0,1-1.07-.56l-1.55-.88-3.27-2c-2.2-1.37-4.43-2.8-6.62-4.3-4.38-3-8.7-6.13-12.83-9.41a157.65,157.65,0,0,1-22.1-21A86.75,86.75,0,0,1,2053,863.83a46.66,46.66,0,0,1-3.18-10.84,38,38,0,0,1-.41-10.75l.14-1.37.06-.69a5.7,5.7,0,0,1,.12-.89l.89-4.89c.58-3.28,1.22-6.46,1.74-9.81l1.56-10,1.28-10.29c1.43-13.88,2.4-28.69-.11-45.1l-1.21-6.18c-.22-1-.39-2-.67-3.08l-.92-3.11c-.64-2.07-1.22-4.13-2-6.16l-2.51-6a51.5,51.5,0,0,0-2.87-5.8c-1-1.86-2-3.82-3.17-5.57a103.84,103.84,0,0,0-7.21-10c-1.27-1.52-2.52-3.14-3.82-4.56l-3.94-4.14-2-2.05-2-1.86-4-3.69c-2.67-2.39-5.35-4.53-8-6.79l-6.32-5.21a97.49,97.49,0,0,1-19.83-23.21,62.15,62.15,0,0,1-5.83-13.12,61.18,61.18,0,0,1-1.77-6.91c-.23-1.17-.31-2.36-.49-3.55l-.25-1.79c-.05-.6,0-1.21-.08-1.81l-.17-3.65.17-3.7a26.17,26.17,0,0,1,.33-3.74c.17-1.25.28-2.51.49-3.78.6-2.51.9-5.08,1.74-7.61l1.08-3.83,1.51-4.84c1-3.18,1.87-6.55,2.78-9.81.74-3.39,1.57-6.69,2.12-10.18l.84-5.19.52-5.33c.21-1.75.25-3.58.3-5.4s.18-3.59,0-5.48a66.52,66.52,0,0,0-4.09-22.35,51.47,51.47,0,0,0-12.7-19.52,60.5,60.5,0,0,0-18.52-11.73l-4-1.78a23.94,23.94,0,0,1-3.7-1.82l-3.55-2.11c-1.1-.81-2.15-1.68-3.25-2.53a44.41,44.41,0,0,1-10.62-12.94A55.46,55.46,0,0,1,1922,470.62Z" transform="translate(-16.32 -425.63)"/><path class="cls-17" d="M1893.11,1398.69c-141,0-251.23-133.35-293.95-257.25-26.91-78-23.23-140.07,9.83-165.95,55-43.08,104.67-15.35,123.22,5.32l3.7,4.12.62,5.5c4.71,41.88,17.71,69.24,38.66,81.3,27.37,15.76,61.71,1,62.06.86l14.11,31.58c-2,.92-50.33,22.11-93.1-2.28-30-17.09-48.57-51.16-55.33-101.34-9.7-8.3-37-25.69-72.62,2.17-19.66,15.38-19,67.79,1.55,127.44,38.85,112.67,137.17,233.93,261.25,233.93Z" transform="translate(-16.32 -425.63)"/><path class="cls-17" d="M2207.7,1398.69c141,0,251.23-133.35,293.95-257.25,26.91-78,23.23-140.07-9.83-165.95-55-43.08-104.67-15.35-123.22,5.32l-3.7,4.12-.62,5.5c-4.71,41.88-17.71,69.24-38.66,81.3-27.37,15.76-61.71,1-62.06.86l-14.11,31.58c2,.92,50.33,22.11,93.1-2.28,30-17.09,48.57-51.16,55.33-101.34,9.7-8.3,37-25.69,72.62,2.17,19.66,15.38,19,67.79-1.55,127.44-38.85,112.67-137.17,233.93-261.25,233.93Z" transform="translate(-16.32 -425.63)"/><path class="cls-17" d="M1953.19,1022.49H2115a0,0,0,0,1,0,0v105.61a24.6,24.6,0,0,1-24.6,24.6H1977.8a24.6,24.6,0,0,1-24.6-24.6V1022.49A0,0,0,0,1,1953.19,1022.49Z"/><path class="cls-17" d="M2319.32,890.13c0,360.34-120.44,652.4-268.93,652.4a118.08,118.08,0,0,1-33.22-4.92c-132.74-39.61-235.71-314.33-235.71-647.48Z" transform="translate(-16.32 -425.63)"/><path class="cls-13" d="M2253,890.13c0,333.15-103,607.86-235.84,647.48-132.74-39.61-235.71-314.33-235.71-647.48Z" transform="translate(-16.32 -425.63)"/><path class="cls-17" d="M2150.78,1965.73H1950a37.08,37.08,0,0,0,4.67-6.77c11.07-19.19,39.12-86.86,51.67-293.66,1.11-16.73,2-34.2,2.83-52.78h82.43C2105,1921,2150.78,1965.73,2150.78,1965.73Z" transform="translate(-16.32 -425.63)"/><path class="cls-13" d="M2109,1965.73H1952.83c.62-2.09,1.23-4.43,1.85-6.77,11.07-19.19,39.12-86.86,51.67-293.66h32.8a34.63,34.63,0,0,1,34.5,32.8C2081.4,1840.6,2096.24,1921.07,2109,1965.73Z" transform="translate(-16.32 -425.63)"/><rect class="cls-17" x="1746.47" y="446.8" width="575.23" height="35.29" rx="15.97" ry="15.97"/><path class="cls-17" d="M2150.78,1612.53a34.45,34.45,0,0,1-34.08,34.2h-132.5a34.29,34.29,0,0,1-34.2-34.2,34.45,34.45,0,0,1,34.2-34.2h132.5A34.26,34.26,0,0,1,2150.78,1612.53Z" transform="translate(-16.32 -425.63)"/><path class="cls-13" d="M2112.52,1612.53a34.44,34.44,0,0,1-34.2,34.2h-94.11a34.29,34.29,0,0,1-34.2-34.2,34.45,34.45,0,0,1,34.2-34.2h94.11A34.29,34.29,0,0,1,2112.52,1612.53Z" transform="translate(-16.32 -425.63)"/><path class="cls-17" d="M2196.42,1967.33a19.61,19.61,0,0,1-19.56,19.56H1923.92a19.5,19.5,0,1,1,0-39h252.94A19.58,19.58,0,0,1,2196.42,1967.33Z" transform="translate(-16.32 -425.63)"/><path class="cls-17" d="M2225.95,2004.49V2026H1875v-21.53a17.59,17.59,0,0,1,17.59-17.59h315.8A17.59,17.59,0,0,1,2225.95,2004.49Z" transform="translate(-16.32 -425.63)"/><path class="cls-13" d="M2160,1967.33a19.5,19.5,0,0,1-19.44,19.56H1923.92a19.5,19.5,0,1,1,0-39h216.65A19.48,19.48,0,0,1,2160,1967.33Z" transform="translate(-16.32 -425.63)"/><path class="cls-13" d="M2189.53,2004.49V2026H1875v-21.53a17.59,17.59,0,0,1,17.59-17.59h279.39A17.59,17.59,0,0,1,2189.53,2004.49Z" transform="translate(-16.32 -425.63)"/><path class="cls-18" d="M2032,1063.21l-48.41,44.69-20.85-25,73.36-60.7h31.65v263.64H2032Z" transform="translate(-16.32 -425.63)"/><path class="cls-14" d="M1525.31,586.15V610a5.9,5.9,0,0,0,5.9,5.9h37.89a5.91,5.91,0,0,0,5.9-5.9V586.15a5.91,5.91,0,0,0-5.9-5.9h-37.89A5.9,5.9,0,0,0,1525.31,586.15Zm6.47.59h36.72v22.62h-36.72Z" transform="translate(-16.32 -425.63)"/><path class="cls-11" d="M1773.39,777.31h0a27.43,27.43,0,0,0,37.62-9l59.15-96.37a27.43,27.43,0,0,0-9-37.62h0a27.43,27.43,0,0,0-37.62,9l-59.15,96.37A27.43,27.43,0,0,0,1773.39,777.31Z" transform="translate(-16.32 -425.63)"/><path class="cls-19" d="M1913.51,521.49S1937.67,538.7,1940,575s44.2,41.65,44.2,41.65-1.65,37.46-47.78,45.14-45.6-68.82-45.6-68.82Z" transform="translate(-16.32 -425.63)"/><path class="cls-19" d="M1868.83,521.49s-15.3,3.42-17.18,30.88,15.77,68.35,24.48,69S1903.43,525.53,1868.83,521.49Z" transform="translate(-16.32 -425.63)"/><path class="cls-11" d="M1915.22,619.11l47.86,22.54S1952.44,764,1951.34,777.48s3,33.83,3,33.83H1839.66s1.38-66-6.33-84.45c-5.22-12.49-8.8-20.08-5.78-34.38s13.2-35.76,9.63-60.52l29.43-11.83Z" transform="translate(-16.32 -425.63)"/><path class="cls-20" d="M1866.61,564.49v55.65a15.8,15.8,0,0,0,.14,1.77c.57,4.54,3.51,16.21,18.63,16,13.82-.16,23.48-10.31,27.58-15.64a31.53,31.53,0,0,0,2.26-3.21l-7-54.62Z" transform="translate(-16.32 -425.63)"/><polygon class="cls-21" points="1850.3 194.51 1875.05 162.91 1850.3 158.15 1850.3 194.51"/><path class="cls-20" d="M1862,592.3c9.13,4.91,23.26,3.48,34.58-4.8s39.42-41.82,14-64.38-47.48,3.23-49,7.56c0,0-3.12,15.68-5.29,26.73-.57,2.81-1.07,5.31-1.44,7.19,0,.31-.13.58-.17.86C1853,574.12,1852.87,587.43,1862,592.3Z" transform="translate(-16.32 -425.63)"/><path class="cls-11" d="M2010.85,792.51h0A27.43,27.43,0,0,0,2023.74,756L1975,654a27.43,27.43,0,0,0-36.47-12.89h0a27.43,27.43,0,0,0-12.89,36.47l48.75,102A27.43,27.43,0,0,0,2010.85,792.51Z" transform="translate(-16.32 -425.63)"/><polygon class="cls-22" points="1905.14 832.3 1884.93 835.86 1881.34 823.05 1872.63 838.03 1824.95 846.44 1855.03 807.9 1897.72 799.65 1905.14 832.3"/><line class="cls-23" x1="1868.5" y1="814.01" x2="1849.43" y2="817.31"/><path class="cls-19" d="M1891.37,514s-26.16-3.85-34,20.47l13.09,3s1.33-8.58,8.64-11.13c0,0-5.85,5.68-5.4,12.36l15,4.27s2.34-9.16,2.18-13c0,0,2.17,9.15,1.37,14.23l10.23,4.89s-1.63,8.65,1.71,12.47,6,18.65,6,18.65S1927,551.63,1923.78,541,1914.59,513.07,1891.37,514Z" transform="translate(-16.32 -425.63)"/><line class="cls-23" x1="1865.05" y1="821.4" x2="1845.98" y2="824.7"/><polygon class="cls-22" points="1688.22 795.49 1668.77 788.95 1671.74 775.98 1656.92 784.97 1611.03 769.56 1655.88 750.09 1697.19 763.71 1688.22 795.49"/><line class="cls-23" x1="1664.78" y1="761.9" x2="1646.45" y2="755.68"/><line class="cls-23" x1="1658.22" y1="766.74" x2="1639.89" y2="760.52"/><path class="cls-20" d="M1904.6,569.19c-2.61,4.82-3.16,8.11.62,10.16a9.39,9.39,0,0,0,12.34-3.93c2.61-4.82,1.65-10.38-2.13-12.42S1907.21,564.38,1904.6,569.19Z" transform="translate(-16.32 -425.63)"/><path class="cls-24" d="M1915.28,568.29s-6.39-1.47-7.93,3.88a6.69,6.69,0,0,1,5.58-.4" transform="translate(-16.32 -425.63)"/><ellipse class="cls-19" cx="1879.68" cy="557.08" rx="3.83" ry="2.48" transform="translate(992.4 1887.85) rotate(-80.13)"/><ellipse class="cls-19" cx="1862.15" cy="552.37" rx="3.83" ry="2.48" transform="translate(982.53 1866.68) rotate(-80.13)"/><path class="cls-10" d="M1871.18,580.49a4.78,4.78,0,0,1-5.47-4l9.45-1.48A4.78,4.78,0,0,1,1871.18,580.49Z" transform="translate(-16.32 -425.63)"/><path class="cls-25" d="M1887.6,554.14s-3.28-5.92-8.48-4.89" transform="translate(-16.32 -425.63)"/><path class="cls-25" d="M1865.42,545.91s-2.94-1.1-6.75,1.63" transform="translate(-16.32 -425.63)"/><path class="cls-25" d="M1870.84,554.18s-2,10.29-8.32,10.49a13,13,0,0,0,3.91,3.23" transform="translate(-16.32 -425.63)"/><ellipse class="cls-26" cx="1883.74" cy="567.76" rx="6.98" ry="3.76" transform="translate(-52.38 -288.21) rotate(-4.14)"/><path class="cls-26" d="M1854.86,564.61c2.19.48,4.09.11,4.78-1.16.89-1.65-.57-4.18-3.34-6C1855.72,560.23,1855.23,562.73,1854.86,564.61Z" transform="translate(-16.32 -425.63)"/><path class="cls-20" d="M1627.57,707.73c1.39.51,3.08,1.05,4.95,1.63,3.9,1.19,8.64,2.51,13.38,3.76,9.45,2.47,18.9,4.74,21.92,5.45l100.7,54.87,8.77,4.78c13.35,5.79,29.64-1.83,36.21-17s1-32.21-12.33-38l-22.69-6.47-99-28.15a88.72,88.72,0,0,1-11.35-7c-7.62-5.83-30.22-19.21-32.11-15.92s11.72,15.55,9.79,16.29c-1.15.44-4.2-.64-7.52-2.27l-2.1-1.08h0c-1.52-.85-3-1.76-4.37-2.64C1626.82,672.7,1616.29,703.66,1627.57,707.73Z" transform="translate(-16.32 -425.63)"/><line class="cls-27" x1="1937.26" y1="310.44" x2="1921.02" y2="276.46"/><path class="cls-14" d="M1945.46,1105.18c-2.09,21.34-71.62,19.56-122.85-18.78s-139-3.17-147.58-82.25,164.77-60.91,169.17-53.38S1927,1068.15,1928.93,1070s14.75,21.5,14.75,21.5Z" transform="translate(-16.32 -425.63)"/><circle class="cls-28" cx="1907.72" cy="581.53" r="4.03" transform="translate(994.07 1937.01) rotate(-80.21)"/><path class="cls-27" d="M1833.73,727.93s-8.62-18.13-7.22-27.55,9.07-34.87,10.09-42.68" transform="translate(-16.32 -425.63)"/><path class="cls-20" d="M2080.44,668.05l5.82-12.12s9.2-11.16,12.08-15.56c1.62-2.48,6.67-8.71,7.87-9.41.95-.56,3.45,0,3.55,1.07.13,1.39-2.91,8.66-4,11.53l-4.31,10.91s18.09-12.89,23.9-17.55c3.27-2.62,12.49-10.69,14.47-8.53,1.5,1.64-7,10.95-9.9,14.16-2.65,3-10.53,11.88-10.53,11.88l17.06-14c3.1-2.54,11.4-11.29,13.68-8.94s-6.54,10.35-9.18,13.35l-14.89,17,18.18-14.22c2.52-2,9.25-8.8,11.22-6.46s-5.66,8.39-7.94,10.71l-15.65,15.88,13.42-9.92c1.43-1.06,5.8-4.09,6.8-2.65,1.36,2-4.24,6.48-5.95,8.2L2132,677.6a20.52,20.52,0,0,1-3.78,3L2103.49,697Z" transform="translate(-16.32 -425.63)"/><path class="cls-20" d="M1979.13,786.26a27.25,27.25,0,0,0,34.47,3.83h0L2103.49,697l-23.05-29-103.31,77.66C1966.4,756,1968.81,775.53,1979.13,786.26Z" transform="translate(-16.32 -425.63)"/><path class="cls-20" d="M1787.41,1021.61c1.86,6.47,7.26,20.95,14.38,39.43,24.35,62.94,69.55,172.52,69.55,172.52l42.69-8.24s-9.08-75.32-16-131.18c-1.54-12.1-2.93-23.28-4.1-32.59-3.44-27.33-12.1-58-23.93-81.75-15.41-31-36.17-50.28-57.77-35.47-10.57,7.22-17.83,14.15-22.62,21C1777.08,983.44,1781.45,1001,1787.41,1021.61Z" transform="translate(-16.32 -425.63)"/><path class="cls-20" d="M1672.2,1175.74l41.25,13.55s30.12-86.35,48.6-139.84c2-5.77,3.86-11.17,5.54-16a277.09,277.09,0,0,0,14-69.5c2.7-41.25-6.38-76-35.8-71.74-45.9,6.7-51.21,29.28-56.33,58.47-.14.88-.33,1.91-.47,3.07-1.3,9-2.89,26.35-4.61,47.53C1678.85,1068.91,1672.2,1175.74,1672.2,1175.74Z" transform="translate(-16.32 -425.63)"/><path class="cls-21" d="M1787.41,1021.61c1.86,6.47,7.26,20.95,14.38,39.43,30.86-1.26,78,23.14,96.27,33.1-1.54-12.1-2.93-23.28-4.1-32.59-3.44-27.33-12.1-58-23.93-81.75l-80.4-14.43C1777.08,983.44,1781.45,1001,1787.41,1021.61Z" transform="translate(-16.32 -425.63)"/><path class="cls-21" d="M1684.39,1001.27c36.12-3.17,68.76,36.36,77.65,48.18,2-5.77,3.86-11.17,5.54-16a277.09,277.09,0,0,0,14-69.5l-87.7-15.69s-2,2.09-4.89,5.49C1687.7,962.72,1686.11,980.09,1684.39,1001.27Z" transform="translate(-16.32 -425.63)"/><path class="cls-29" d="M1839.66,811.32S1721,880.14,1697,913.74s-22.47,86.62-22.47,86.62,18.39-25.11,71.74,10,94,56,149.33,64.11,49.85,30.67,49.85,30.67,6.29-52.06-17.16-101.68,37.88-111.73,41.85-141.54-15.78-50.64-15.78-50.64Z" transform="translate(-16.32 -425.63)"/><path class="cls-30" d="M1781.59,992.82s-7.07-44.56,10.5-80.33,64.92-65.91,74.51-91.64" transform="translate(-16.32 -425.63)"/><circle class="cls-10" cx="1860.83" cy="406.2" r="3.61"/><circle class="cls-10" cx="1846.68" cy="422.83" r="3.61"/><circle class="cls-10" cx="1827.87" cy="446.68" r="3.61"/><circle class="cls-10" cx="1807.08" cy="469.81" r="3.61"/><circle class="cls-10" cx="1786.05" cy="498.69" r="3.61"/><circle class="cls-10" cx="1782.44" cy="527.67" r="3.61"/><circle class="cls-10" cx="1782.44" cy="561.57" r="3.61"/><circle class="cls-10" cx="1789.66" cy="590.44" r="3.61"/><path class="cls-21" d="M1626.89,706.41l5.62,2.95c3.9,1.19,8.64,2.51,13.38,3.76a4,4,0,0,0,.78-1.05,4.24,4.24,0,0,0-.41-4.5,3,3,0,0,0,.41-.51,4.15,4.15,0,0,0-1.76-5.62l-.51-.3a4.08,4.08,0,0,0,3.86-2.2,4.12,4.12,0,0,0-1.52-5.42,4.15,4.15,0,0,0,3.59-7.49l-12.06-6.33-2.1-1.08h0a4.11,4.11,0,0,0-1.86-.47,4.22,4.22,0,0,0-3.73,2.24,4.15,4.15,0,0,0,1.56,5.45,4.53,4.53,0,0,0-1.73-.37,4,4,0,0,0-3.62,2.2,4.15,4.15,0,0,0,1.73,5.62l.54.27a4.22,4.22,0,0,0-3.9,2.2,4.18,4.18,0,0,0,.44,4.51c-.14.17-.31.3-.44.51A4.23,4.23,0,0,0,1626.89,706.41Z" transform="translate(-16.32 -425.63)"/><path class="cls-14" d="M1580,661.76v33.57a31.16,31.16,0,0,0,62.33,0V661.76a31.16,31.16,0,0,0-62.33,0Zm9.59,0a21.58,21.58,0,0,1,43.15,0v33.57a21.58,21.58,0,0,1-43.15,0Z" transform="translate(-16.32 -425.63)"/><rect class="cls-29" x="1489.18" y="598.05" width="121.94" height="174.2" rx="4.96" ry="4.96" transform="translate(3083.98 944.68) rotate(180)"/><polygon class="cls-29" points="1472.86 300.87 1472.86 252.92 1425.59 183.73 1414.97 183.73 1472.86 300.87"/><path class="cls-20" d="M1629.1,683.67l14.16,7.43a4.18,4.18,0,0,0,5.63-1.75h0a4.18,4.18,0,0,0-1.75-5.63L1633,676.28a4.18,4.18,0,0,0-5.63,1.75h0A4.18,4.18,0,0,0,1629.1,683.67Z" transform="translate(-16.32 -425.63)"/><path class="cls-20" d="M1625.29,690.95l14.16,7.43a4.18,4.18,0,0,0,5.63-1.75h0a4.18,4.18,0,0,0-1.75-5.63l-14.16-7.43a4.18,4.18,0,0,0-5.63,1.75h0A4.18,4.18,0,0,0,1625.29,690.95Z" transform="translate(-16.32 -425.63)"/><path class="cls-20" d="M1623.68,699.05l14.16,7.43a4.18,4.18,0,0,0,5.63-1.75h0a4.18,4.18,0,0,0-1.75-5.63l-14.16-7.43a4.18,4.18,0,0,0-5.63,1.75h0A4.18,4.18,0,0,0,1623.68,699.05Z" transform="translate(-16.32 -425.63)"/><path class="cls-20" d="M1623.68,704.08l14.16,7.43a4.18,4.18,0,0,0,5.63-1.75h0a4.18,4.18,0,0,0-1.75-5.63l-14.16-7.43a4.18,4.18,0,0,0-5.63,1.75h0A4.18,4.18,0,0,0,1623.68,704.08Z" transform="translate(-16.32 -425.63)"/><polygon class="cls-17" points="582.2 981.57 437.92 1077.48 293.67 981.57 582.2 981.57"/><polygon class="cls-17" points="582.2 981.57 582.2 1173.38 293.67 1173.38 293.67 981.57 437.92 1077.48 582.2 981.57"/><polygon class="cls-17" points="293.67 1173.38 437.92 1077.48 582.2 1173.38 293.67 1173.38"/><polygon class="cls-18" points="593.23 981.57 448.95 1077.48 304.7 981.57 593.23 981.57"/><polygon class="cls-13" points="593.23 981.57 593.23 1173.38 304.7 1173.38 304.7 981.57 448.95 1077.48 593.23 981.57"/><polygon class="cls-18" points="304.7 1173.38 448.95 1077.48 593.23 1173.38 304.7 1173.38"/><path class="cls-1" d="M632.37,1407.2a22.83,22.83,0,1,1-22.81-22.81A22.76,22.76,0,0,1,632.37,1407.2Z" transform="translate(-16.32 -425.63)"/><path class="cls-3" d="M632.37,1407.2a22.76,22.76,0,0,1-6.07,15.51,22.81,22.81,0,0,1-27.1-35.85,22.83,22.83,0,0,1,33.16,20.34Z" transform="translate(-16.32 -425.63)"/><path class="cls-31" d="M798.73,1872.74v140.18h332.65v8.77a3.84,3.84,0,0,1-3.84,3.84H332.91a3.85,3.85,0,0,1-3.88-3.84V1864a3.85,3.85,0,0,1,3.88-3.84h794.62a3.84,3.84,0,0,1,3.84,3.84v8.77Z" transform="translate(-16.32 -425.63)"/><rect class="cls-11" x="252.7" y="1434.49" width="513.08" height="165.42" rx="3.77" ry="3.77"/><rect class="cls-10" x="782.41" y="1447.11" width="322.85" height="140.18"/><circle class="cls-5" cx="340.84" cy="1517.2" r="63.02"/><circle class="cls-10" cx="340.84" cy="1517.2" r="55.36"/><rect class="cls-10" x="441.31" y="1457.68" width="237.22" height="114.88"/><line class="cls-32" x1="464.35" y1="1470.08" x2="464.35" y2="1560.15"/><line class="cls-32" x1="491.85" y1="1470.08" x2="491.85" y2="1560.15"/><line class="cls-32" x1="519.35" y1="1470.08" x2="519.35" y2="1560.15"/><line class="cls-32" x1="546.84" y1="1470.08" x2="546.84" y2="1560.15"/><line class="cls-32" x1="574.34" y1="1470.08" x2="574.34" y2="1560.15"/><line class="cls-32" x1="601.84" y1="1470.08" x2="601.84" y2="1560.15"/><line class="cls-32" x1="629.33" y1="1470.08" x2="629.33" y2="1560.15"/><rect class="cls-9" x="782.41" y="1447.11" width="12.21" height="140.18"/><line class="cls-32" x1="819.28" y1="1468.38" x2="1081.77" y2="1468.38"/><line class="cls-32" x1="833.99" y1="1495.28" x2="1096.48" y2="1495.28"/><line class="cls-32" x1="816.6" y1="1526.05" x2="1079.09" y2="1526.05"/><line class="cls-32" x1="833.99" y1="1566.18" x2="1096.48" y2="1566.18"/><path class="cls-14" d="M628.43,1707.15v140.18H295.78v8.77a3.84,3.84,0,0,0,3.84,3.84h794.62a3.85,3.85,0,0,0,3.88-3.84V1698.38a3.85,3.85,0,0,0-3.88-3.84H299.62a3.84,3.84,0,0,0-3.84,3.84v8.77Z" transform="translate(-16.32 -425.63)"/><rect class="cls-29" x="645.06" y="1694.53" width="513.08" height="165.42" rx="3.77" ry="3.77" transform="translate(1786.87 3128.85) rotate(180)"/><rect class="cls-10" x="289.26" y="1281.52" width="322.85" height="140.18"/><circle class="cls-5" cx="1053.68" cy="1351.61" r="63.02"/><circle class="cls-10" cx="1053.68" cy="1351.61" r="55.36"/><rect class="cls-10" x="732.3" y="1717.72" width="237.22" height="114.88" transform="translate(1685.51 3124.69) rotate(180)"/><line class="cls-32" x1="930.16" y1="1304.49" x2="930.16" y2="1394.56"/><line class="cls-32" x1="902.67" y1="1304.49" x2="902.67" y2="1394.56"/><line class="cls-32" x1="875.17" y1="1304.49" x2="875.17" y2="1394.56"/><line class="cls-32" x1="847.67" y1="1304.49" x2="847.67" y2="1394.56"/><line class="cls-32" x1="820.18" y1="1304.49" x2="820.18" y2="1394.56"/><line class="cls-32" x1="792.68" y1="1304.49" x2="792.68" y2="1394.56"/><line class="cls-32" x1="765.18" y1="1304.49" x2="765.18" y2="1394.56"/><rect class="cls-9" x="616.22" y="1707.15" width="12.21" height="140.18" transform="translate(1228.33 3128.85) rotate(180)"/><line class="cls-32" x1="575.24" y1="1302.79" x2="312.75" y2="1302.79"/><line class="cls-32" x1="560.52" y1="1329.69" x2="298.03" y2="1329.69"/><line class="cls-32" x1="577.91" y1="1360.46" x2="315.42" y2="1360.46"/><line class="cls-32" x1="560.52" y1="1400.59" x2="298.03" y2="1400.59"/><polygon class="cls-6" points="480.92 403.01 549.58 215.73 465.97 180.52 289.91 347.3 480.92 403.01"/><path class="cls-14" d="M247.57,797.5s118.86-97.33,268.1-12a18.9,18.9,0,0,1,7.55,24.86L495,866.7Z" transform="translate(-16.32 -425.63)"/><circle class="cls-29" cx="353.11" cy="967.54" r="200.13" transform="translate(-473.45 -93.96) rotate(-31.83)"/><path class="cls-33" d="M449.48,1122.82C363.86,1176,251,1149.53,197.83,1063.92S171.12,865.4,256.74,812.27s198.51-26.71,251.65,58.91S535.1,1069.68,449.48,1122.82Z" transform="translate(-16.32 -425.63)"/><path class="cls-5" d="M501,875.76a174.33,174.33,0,0,1-56.13,239.69c-81.55,50.61-189.06,25.45-239.67-56.1-38.94-62.74-33-140.84,8.88-196.58a173.19,173.19,0,0,1,47.2-43.11C342.86,769,450.39,794.18,501,875.76Z" transform="translate(-16.32 -425.63)"/><path class="cls-10" d="M501,875.76a173.47,173.47,0,0,1,19.87,137.75,172.55,172.55,0,0,1-47.25,43.21c-81.55,50.61-189.06,25.45-239.67-56.1a173.55,173.55,0,0,1-19.87-137.86,173.19,173.19,0,0,1,47.2-43.11C342.86,769,450.39,794.18,501,875.76Z" transform="translate(-16.32 -425.63)"/><circle class="cls-34" cx="353.51" cy="968.04" r="145.86" transform="translate(-473.65 -93.68) rotate(-31.83)"/><circle class="cls-34" cx="353.51" cy="968.04" r="115.58" transform="translate(-473.65 -93.68) rotate(-31.83)"/><path class="cls-8" d="M423.57,924.55A82.46,82.46,0,1,1,310,898,82.46,82.46,0,0,1,423.57,924.55Z" transform="translate(-16.32 -425.63)"/><path class="cls-5" d="M351.87,965.4c-31.24,17-29.53,53.77-22.69,81.39a82.34,82.34,0,0,0,105.69-65.59C413.16,962.8,381,945,351.87,965.4Z" transform="translate(-16.32 -425.63)"/><path class="cls-35" d="M363.62,927.41c12.87,20.73,14.92,49.53.84,58.27s-39-5.88-51.84-26.61-8.84-39.73,5.24-48.47S350.76,906.68,363.62,927.41Z" transform="translate(-16.32 -425.63)"/><path class="cls-8" d="M300.33,882.31h0a4.78,4.78,0,0,1-6.56-1.54l-26.68-43a4.78,4.78,0,0,1,1.54-6.56h0a4.78,4.78,0,0,1,6.56,1.54l26.68,43A4.78,4.78,0,0,1,300.33,882.31Z" transform="translate(-16.32 -425.63)"/><path class="cls-8" d="M268.21,1021h0a4.78,4.78,0,0,1-1.54,6.56l-43,26.68a4.78,4.78,0,0,1-6.56-1.54h0a4.78,4.78,0,0,1,1.54-6.56l43-26.68A4.78,4.78,0,0,1,268.21,1021Z" transform="translate(-16.32 -425.63)"/><path class="cls-8" d="M406,1052.69h0a4.78,4.78,0,0,1,6.56,1.54l26.68,43a4.78,4.78,0,0,1-1.54,6.56h0a4.78,4.78,0,0,1-6.56-1.54l-26.68-43A4.78,4.78,0,0,1,406,1052.69Z" transform="translate(-16.32 -425.63)"/><path class="cls-8" d="M438.69,915.17h0a4.78,4.78,0,0,1,1.54-6.56l43-26.68a4.78,4.78,0,0,1,6.56,1.54h0a4.78,4.78,0,0,1-1.54,6.56l-43,26.68A4.78,4.78,0,0,1,438.69,915.17Z" transform="translate(-16.32 -425.63)"/><path class="cls-36" d="M560.61,687.4a71.53,71.53,0,1,1,23.06-98.5A71.61,71.61,0,0,1,560.61,687.4Z" transform="translate(-16.32 -425.63)"/><circle class="cls-33" cx="522.89" cy="626.62" r="45.46" transform="translate(-268.15 -55.68) rotate(-31.83)"/><polygon class="cls-6" points="698.99 267.67 500.69 246.07 506.25 155.53 733.85 71.77 698.99 267.67"/><path class="cls-14" d="M798.21,455.75s-140,63.31-129.73,234.93a18.9,18.9,0,0,0,18.93,17.8l63-.3Z" transform="translate(-16.32 -425.63)"/><circle class="cls-29" cx="903.75" cy="625.79" r="200.13" transform="matrix(0.85, -0.53, 0.53, 0.85, -210.45, 145.03)"/><path class="cls-33" d="M1000.12,781.07c-85.62,53.14-198.51,26.71-251.65-58.91s-26.71-198.51,58.91-251.65S1005.89,443.8,1059,529.42,1085.74,727.93,1000.12,781.07Z" transform="translate(-16.32 -425.63)"/><path class="cls-5" d="M1051.66,534a174.33,174.33,0,0,1-56.13,239.69c-81.55,50.61-189.06,25.45-239.67-56.1-38.94-62.74-33-140.84,8.88-196.58a173.19,173.19,0,0,1,47.2-43.11C893.5,427.28,1001,452.43,1051.66,534Z" transform="translate(-16.32 -425.63)"/><path class="cls-10" d="M1051.66,534a173.47,173.47,0,0,1,19.87,137.75A172.55,172.55,0,0,1,1024.28,715c-81.55,50.61-189.06,25.45-239.67-56.1A173.55,173.55,0,0,1,764.75,521a173.19,173.19,0,0,1,47.2-43.11C893.5,427.28,1001,452.43,1051.66,534Z" transform="translate(-16.32 -425.63)"/><circle class="cls-34" cx="904.15" cy="626.28" r="145.86" transform="translate(-210.65 145.32) rotate(-31.83)"/><circle class="cls-34" cx="904.15" cy="626.28" r="115.58" transform="translate(-210.65 145.31) rotate(-31.83)"/><path class="cls-8" d="M974.21,582.8a82.46,82.46,0,1,1-113.54-26.58A82.46,82.46,0,0,1,974.21,582.8Z" transform="translate(-16.32 -425.63)"/><path class="cls-5" d="M902.51,623.65c-31.24,17-29.53,53.77-22.69,81.39a82.34,82.34,0,0,0,105.69-65.59C963.8,621,931.64,603.21,902.51,623.65Z" transform="translate(-16.32 -425.63)"/><path class="cls-35" d="M914.26,585.66c12.87,20.73,14.92,49.53.84,58.27s-39-5.88-51.84-26.61-8.84-39.73,5.24-48.47S901.4,564.92,914.26,585.66Z" transform="translate(-16.32 -425.63)"/><path class="cls-8" d="M851,540.55h0a4.78,4.78,0,0,1-6.56-1.54l-26.68-43a4.78,4.78,0,0,1,1.54-6.56h0a4.78,4.78,0,0,1,6.56,1.54l26.68,43A4.78,4.78,0,0,1,851,540.55Z" transform="translate(-16.32 -425.63)"/><path class="cls-8" d="M818.85,679.23h0a4.78,4.78,0,0,1-1.54,6.56l-43,26.68a4.78,4.78,0,0,1-6.56-1.54h0a4.78,4.78,0,0,1,1.54-6.56l43-26.68A4.78,4.78,0,0,1,818.85,679.23Z" transform="translate(-16.32 -425.63)"/><path class="cls-8" d="M956.66,710.94h0a4.78,4.78,0,0,1,6.56,1.54l26.68,43a4.78,4.78,0,0,1-1.54,6.56h0a4.78,4.78,0,0,1-6.56-1.54l-26.68-43A4.78,4.78,0,0,1,956.66,710.94Z" transform="translate(-16.32 -425.63)"/><path class="cls-8" d="M989.33,573.42h0a4.78,4.78,0,0,1,1.54-6.56l43-26.68a4.78,4.78,0,0,1,6.56,1.54h0a4.78,4.78,0,0,1-1.54,6.56l-43,26.68A4.78,4.78,0,0,1,989.33,573.42Z" transform="translate(-16.32 -425.63)"/><path class="cls-29" d="M560.61,687.4a71.53,71.53,0,1,0-98.5-23.06A71.61,71.61,0,0,0,560.61,687.4Z" transform="translate(-16.32 -425.63)"/><circle class="cls-6" cx="522.89" cy="626.62" r="45.46" transform="translate(-268.15 -55.68) rotate(-31.83)"/><path class="cls-11" d="M1404.23,1449.5h0a30.35,30.35,0,0,1-41-12.3L1304,1327a30.35,30.35,0,0,1,12.3-41h0a30.35,30.35,0,0,1,41,12.3l59.29,110.16A30.35,30.35,0,0,1,1404.23,1449.5Z" transform="translate(-16.32 -425.63)"/><path class="cls-37" d="M1364.21,1440.48c-9.17-14-6.57-32,5.77-40.14l115.7-55.57a91,91,0,0,0,10.14-9c6.62-7.14,26.9-24.4,29.37-21.46s-9,17.58-7,18,13-8.39,17.36-12.5,12.31-14.43,15.76-13.81,3.87,5.77,3.87,5.77,2.55-4.31,4.93-2.2,0,9.79,0,9.79,1.17-2.54,3.22.44S1558,1333,1558,1333a2.26,2.26,0,0,1,3.37,1.09c1.25,2.47-10,14.83-20.56,20.85-9.45,5.37-33.32,15.64-38.33,17.79l-99.18,78.5C1391,1459.29,1373.38,1454.47,1364.21,1440.48Z" transform="translate(-16.32 -425.63)"/><path class="cls-22" d="M1253,1192.81s-15.56,11.7-11.8,35.33,5.86,36.41-9.09,37.85-45.06-7-47.2,13,12.19,33.2-8.85,37.2-23.52,31.19-23.52,31.19,76,46.32,146.95,1.73-5.78-73.51-5.78-73.51Z" transform="translate(-16.32 -425.63)"/><path class="cls-6" d="M1269.48,1486.15c-19.81,25.94-27.28,79.72-14.64,137.65s16.9,96,16.9,96a48.92,48.92,0,1,0,97.11-11.92l-20.14-221.74Z" transform="translate(-16.32 -425.63)"/><path class="cls-5" d="M1265.11,1273.49l-53,24s11.77,136.32,13,151.24-3.35,37.43-3.35,37.43h126.91s-1.52-73,7-93.43c5.77-13.81,9.74-22.22,6.39-38s-27.84-43.8-23.89-71.19l-27.63-8.85Z" transform="translate(-16.32 -425.63)"/><path class="cls-11" d="M1198.32,1476.78h0a30.35,30.35,0,0,1-24.22-35.28l22.88-123a30.35,30.35,0,0,1,35.28-24.22h0a30.35,30.35,0,0,1,24.22,35.28l-22.88,123A30.35,30.35,0,0,1,1198.32,1476.78Z" transform="translate(-16.32 -425.63)"/><path class="cls-19" d="M1319.55,1193.24s7.9-17.43-9.2-23.47Z" transform="translate(-16.32 -425.63)"/><path class="cls-37" d="M1264.89,1273.49l0,0c.57,1,10.17,17.18,28.35,15.83,16.08-1.21,17.29-14.73,17.29-14.73V1213h-39.13Z" transform="translate(-16.32 -425.63)"/><polygon class="cls-38" points="1294.25 841.98 1266.95 812.29 1294.27 822.55 1294.25 841.98"/><path class="cls-37" d="M1284.12,1241.88c12.46,8,27.5,8.61,36.82,2.86s8.38-19.76,6-28.75l0-.07c-.49-1.86-1.19-4.47-2-7.43-3-11.61-7.48-28.8-7.48-28.8-1.89-9.07-26.81-30.28-52.2-4.9S1271.66,1233.86,1284.12,1241.88Z" transform="translate(-16.32 -425.63)"/><path class="cls-22" d="M1316.84,1176s-.76,10.75-16.11,17.34-30.09,17-28.92,33-4.62,24.71-4.62,24.71-1.46-19.89-10.79-37.05c-3.62-6.66-6.47-20.51.43-32.09C1267.71,1163.65,1294.48,1150.5,1316.84,1176Z" transform="translate(-16.32 -425.63)"/><path class="cls-37" d="M1274.52,1223c3.05,4.92,3.84,8.36,0,10.76a9.92,9.92,0,0,1-13.27-3.38c-3.05-4.92-2.4-10.85,1.46-13.24S1271.47,1218.12,1274.52,1223Z" transform="translate(-16.32 -425.63)"/><path class="cls-39" d="M1265.89,1226.28a7.07,7.07,0,0,1,5.91.08c-2-5.55-8.61-3.6-8.61-3.6" transform="translate(-16.32 -425.63)"/><ellipse class="cls-19" cx="1300.06" cy="1208.69" rx="2.62" ry="4.05" transform="translate(-259.11 -94.83) rotate(-13.27)"/><ellipse class="cls-19" cx="1318.26" cy="1202.62" rx="2.62" ry="4.05" transform="translate(-257.23 -90.82) rotate(-13.27)"/><path class="cls-6" d="M1385.18,1919.67h-99.64l-14.6-200.2-.38-5.78a48.77,48.77,0,0,1,50.29-48.78c24.94.72,45.83,21,47.31,45.95Z" transform="translate(-16.32 -425.63)"/><path class="cls-40" d="M1291.52,1206.09s3.09-6.46,8.65-5.69" transform="translate(-16.32 -425.63)"/><path class="cls-40" d="M1314.41,1196s3-1.34,7.22,1.3" transform="translate(-16.32 -425.63)"/><path class="cls-14" d="M1259.83,1919.67H1152.64l21.08-208.5.08-.91c1.76-25.35,23.21-45.38,49.36-45.38,27.34,0,49.48,21.84,49.48,48.81a41.61,41.61,0,0,1-.23,4.42Z" transform="translate(-16.32 -425.63)"/><path class="cls-40" d="M1309.21,1205.08s2.79,10.73,9.43,10.55a13.73,13.73,0,0,1-3.93,3.66" transform="translate(-16.32 -425.63)"/><path class="cls-14" d="M1221.8,1486.15c-25.14,20.82-42.3,65.24-43,124.53s-5.13,97.36-5.13,97.36a48.92,48.92,0,1,0,97.31,10.23l38-232.12Z" transform="translate(-16.32 -425.63)"/><path class="cls-11" d="M1261.26,1275.24s31.07,41.41,37,85.13-13.33,92.33-18.52,139-31.16,239-31.16,239h-86.4s-4.31-128.32,11.15-180.68,38.78-260.21,38.78-260.21Z" transform="translate(-16.32 -425.63)"/><path class="cls-40" d="M1317.91,1228s-6.33,4.62-13.22-1.94" transform="translate(-16.32 -425.63)"/><ellipse class="cls-38" cx="1296.23" cy="1219.34" rx="4.22" ry="8.27" transform="translate(-23.52 2005.34) rotate(-86.16)"/><path class="cls-38" d="M1322.18,1214.63c.69,1.27,2.53,1.69,4.78,1.29-.49-1.86-1.19-4.47-2-7.43C1322.5,1210.58,1321.27,1213,1322.18,1214.63Z" transform="translate(-16.32 -425.63)"/><path class="cls-37" d="M1279.74,1645.16c2.59-1.86-1-5.3-1-5.3s5.11.73,6.49-2.49-6.92-13.26-10-18.44-9.16-17.79-8.33-19.7,12.56,12.55,16,10.8-8.92-25.36-14.4-33.4a91,91,0,0,1-6.53-11.88l-28.5-125.15c-5.15-13.83-22.19-20.38-37.86-14.54s-24.28,21.93-19.13,35.76L1231,1575c1,5.37,5.69,30.92,8.83,41.33,3.52,11.66,13.08,25.34,15.76,24.67a2.26,2.26,0,0,0,1.81-3s8.33,9.5,11.69,8.16,1.14-3,1.14-3S1277.15,1647,1279.74,1645.16Z" transform="translate(-16.32 -425.63)"/><ellipse class="cls-22" cx="1249.5" cy="1177.33" rx="25.23" ry="16.87" transform="matrix(0.59, -0.81, 0.81, 0.59, -454.64, 1065.73)"/><circle class="cls-41" cx="1272.63" cy="1234.68" r="3.72" transform="translate(-256.7 -115.51) rotate(-12.7)"/><polygon class="cls-37" points="1241.6 1601.92 1151.67 1601.92 1152.09 1593.23 1153.45 1565.77 1152.95 1494.04 1218.1 1494.04 1201.51 1565.77 1241.6 1601.92"/><polygon class="cls-37" points="1394.32 1601.92 1299.39 1601.92 1299.25 1593.23 1297.48 1565.77 1289.96 1494.04 1355.9 1494.04 1354.23 1565.77 1384.68 1593.23 1394.32 1601.92"/><path class="cls-22" d="M1168,2027.56h89.93a37.65,37.65,0,0,0-2-10.1,38.36,38.36,0,0,0-36.31-26.06h-49.87l-1.35,26.06-.05,1.4Z" transform="translate(-16.32 -425.63)"/><path class="cls-22" d="M1313.78,1991.4l1.52,26.06.25,1.4.18,8.7h94.93l-.4-2.4a38.74,38.74,0,0,0-2.05-7.7,39.4,39.4,0,0,0-11.6-16.46,40.18,40.18,0,0,0-26.06-9.6Z" transform="translate(-16.32 -425.63)"/><line class="cls-41" x1="1204.64" y1="1576.43" x2="1220.88" y2="1576.43"/><line class="cls-41" x1="1209.8" y1="1582.73" x2="1226.03" y2="1582.73"/><line class="cls-41" x1="1360.39" y1="1576.43" x2="1376.63" y2="1576.43"/><line class="cls-41" x1="1365.55" y1="1582.73" x2="1381.78" y2="1582.73"/><circle class="cls-10" cx="1170.91" cy="1580.63" r="6.88"/><circle class="cls-10" cx="1323.42" cy="1580.63" r="6.88"/><path class="cls-11" d="M1316.84,1276.64s13.63,33.38,15.87,80.59,22.47,381.14,22.47,381.14h41.3s-45.75-293.81-39.82-323.82,17.85-47.54,12.57-66.09-31-65-31-65Z" transform="translate(-16.32 -425.63)"/><path class="cls-42" d="M1354.14,1397.45s9.31-20.37,9-35.68-10.76-28.66-10.76-28.66" transform="translate(-16.32 -425.63)"/><path class="cls-10" d="M1315.3,2017.46l.43,10.1h94.93l-.4-2.4a38.74,38.74,0,0,0-2.05-7.7Z" transform="translate(-16.32 -425.63)"/><path class="cls-10" d="M1168,2027.56h89.93a37.65,37.65,0,0,0-2-10.1h-87.53l-.05,1.4Z" transform="translate(-16.32 -425.63)"/><polygon class="cls-38" points="1213.26 1514.97 1152.98 1498.49 1152.95 1494.04 1218.1 1494.04 1213.26 1514.97"/><polygon class="cls-38" points="1355.41 1514.97 1289.96 1499.76 1289.96 1494.04 1355.9 1494.04 1355.41 1514.97"/><path class="cls-11" d="M1485.07,1341l28.32,48.55s-83.82,81.11-125.86,67.35-31.19-56.34-11.21-66S1485.07,1341,1485.07,1341Z" transform="translate(-16.32 -425.63)"/><path class="cls-11" d="M1268.91,1560.72l-47,17.25s-48.12-96.08-48-122.85,14.3-29.37,25.17-32.19,30.09-.54,35.66,14.88S1268.91,1560.72,1268.91,1560.72Z" transform="translate(-16.32 -425.63)"/><polyline class="cls-42" points="1239.24 938.47 1223.68 1029.49 1249.07 1121.91"/><line class="cls-42" x1="1185.06" y1="1108.93" x2="1169.28" y2="1071.5"/></svg>