<svg xmlns="http://www.w3.org/2000/svg" xmlns:xlink="http://www.w3.org/1999/xlink" viewBox="0 0 557.38 551.86"><defs><style>.cls-1{isolation:isolate;}.cls-2{opacity:0.9;}.cls-3{fill:url(#linear-gradient);}.cls-4{fill:url(#linear-gradient-2);}.cls-5{fill:url(#linear-gradient-3);}.cls-6{fill:url(#linear-gradient-4);}.cls-7{fill:url(#linear-gradient-5);}.cls-8{fill:url(#linear-gradient-6);}.cls-9{fill:url(#linear-gradient-7);}.cls-10{fill:url(#linear-gradient-8);}.cls-11{fill:url(#linear-gradient-9);}.cls-12{fill:url(#linear-gradient-10);}.cls-13{fill:url(#linear-gradient-11);}.cls-14{fill:url(#linear-gradient-12);}.cls-15{fill:url(#linear-gradient-13);}.cls-16{fill:url(#linear-gradient-14);}.cls-17{fill:url(#linear-gradient-15);}.cls-18{fill:url(#linear-gradient-16);}.cls-19{fill:url(#linear-gradient-17);}.cls-20{fill:url(#linear-gradient-18);}.cls-21{fill:url(#linear-gradient-19);}.cls-22{fill:url(#linear-gradient-20);}.cls-23{fill:url(#linear-gradient-21);}.cls-24{fill:url(#linear-gradient-22);}.cls-25{fill:url(#linear-gradient-23);}.cls-26{fill:url(#linear-gradient-24);}.cls-27{fill:#d1ebff;}.cls-28{fill:#a8cff0;}.cls-29{fill:#f0f8ff;}.cls-30{fill:#d62d69;}.cls-31{fill:#f76195;}.cls-32{fill:#2672ab;}.cls-33,.cls-50{fill:#fff;}.cls-34{fill:#03336e;}.cls-35{fill:#fccdb7;}.cls-36,.cls-47{fill:#084c94;}.cls-36,.cls-45{opacity:0.2;}.cls-37{fill:#fc0;}.cls-38{fill:#ffde17;}.cls-39{fill:#0ba19f;}.cls-40{fill:#3ecfcd;}.cls-41{fill:#72b5e8;}.cls-42,.cls-44{mix-blend-mode:multiply;}.cls-42{fill:url(#radial-gradient);}.cls-43{opacity:0.7;mix-blend-mode:screen;fill:url(#radial-gradient-2);}.cls-44{opacity:0.3;fill:url(#radial-gradient-3);}.cls-45{fill:#92b4d1;}.cls-46{fill:#001a46;}.cls-48{fill:#3f92d1;}.cls-49{mix-blend-mode:color-dodge;}.cls-50{opacity:0.5;}</style><linearGradient id="linear-gradient" x1="209.55" y1="182.62" x2="355.02" y2="139.06" gradientUnits="userSpaceOnUse"><stop offset="0.04" stop-color="#ffa98c"/><stop offset="0.32" stop-color="#ffb892"/><stop offset="0.86" stop-color="#fee1a3"/><stop offset="1" stop-color="#feeca8"/></linearGradient><linearGradient id="linear-gradient-2" x1="118.11" y1="200.42" x2="310.54" y2="157.28" xlink:href="#linear-gradient"/><linearGradient id="linear-gradient-3" x1="225.12" y1="38.93" x2="215.78" y2="56.74" xlink:href="#linear-gradient"/><linearGradient id="linear-gradient-4" x1="269.35" y1="111.9" x2="291.86" y2="105.16" xlink:href="#linear-gradient"/><linearGradient id="linear-gradient-5" x1="171.27" y1="115" x2="315.1" y2="82.76" xlink:href="#linear-gradient"/><linearGradient id="linear-gradient-6" x1="256.5" y1="71.63" x2="245.02" y2="93.51" xlink:href="#linear-gradient"/><linearGradient id="linear-gradient-7" x1="269.35" y1="150.75" x2="291.86" y2="144.01" xlink:href="#linear-gradient"/><linearGradient id="linear-gradient-8" x1="171.27" y1="153.86" x2="315.1" y2="121.62" xlink:href="#linear-gradient"/><linearGradient id="linear-gradient-9" x1="256.5" y1="110.49" x2="245.02" y2="132.37" xlink:href="#linear-gradient"/><linearGradient id="linear-gradient-10" x1="269.35" y1="189.76" x2="291.86" y2="183.02" xlink:href="#linear-gradient"/><linearGradient id="linear-gradient-11" x1="171.27" y1="192.87" x2="315.1" y2="160.63" xlink:href="#linear-gradient"/><linearGradient id="linear-gradient-12" x1="256.5" y1="149.5" x2="245.02" y2="171.38" xlink:href="#linear-gradient"/><linearGradient id="linear-gradient-13" x1="269.35" y1="228.62" x2="291.86" y2="221.88" xlink:href="#linear-gradient"/><linearGradient id="linear-gradient-14" x1="171.27" y1="231.73" x2="315.1" y2="199.49" xlink:href="#linear-gradient"/><linearGradient id="linear-gradient-15" x1="256.5" y1="188.36" x2="245.02" y2="210.24" xlink:href="#linear-gradient"/><linearGradient id="linear-gradient-16" x1="269.35" y1="267.33" x2="291.86" y2="260.59" xlink:href="#linear-gradient"/><linearGradient id="linear-gradient-17" x1="171.27" y1="270.43" x2="315.1" y2="238.19" xlink:href="#linear-gradient"/><linearGradient id="linear-gradient-18" x1="256.5" y1="227.06" x2="245.02" y2="248.94" xlink:href="#linear-gradient"/><linearGradient id="linear-gradient-19" x1="269.35" y1="306.18" x2="291.86" y2="299.44" xlink:href="#linear-gradient"/><linearGradient id="linear-gradient-20" x1="171.27" y1="309.29" x2="315.1" y2="277.05" xlink:href="#linear-gradient"/><linearGradient id="linear-gradient-21" x1="256.5" y1="265.92" x2="245.02" y2="287.8" xlink:href="#linear-gradient"/><linearGradient id="linear-gradient-22" x1="268.45" y1="216.65" x2="413.9" y2="173.1" xlink:href="#linear-gradient"/><linearGradient id="linear-gradient-23" x1="177.02" y1="234.45" x2="369.43" y2="191.32" xlink:href="#linear-gradient"/><linearGradient id="linear-gradient-24" x1="284.02" y1="72.98" x2="274.68" y2="90.79" xlink:href="#linear-gradient"/><radialGradient id="radial-gradient" cx="8026.89" cy="2121.07" r="30.07" gradientTransform="matrix(-0.87, -0.5, 0, 0.99, 7162.82, 2002.7)" gradientUnits="userSpaceOnUse"><stop offset="0.06" stop-color="#92a3b0"/><stop offset="1" stop-color="#fff"/></radialGradient><radialGradient id="radial-gradient-2" cx="350.06" cy="364.13" r="89.36" gradientUnits="userSpaceOnUse"><stop offset="0" stop-color="#fff"/><stop offset="1"/></radialGradient><radialGradient id="radial-gradient-3" cx="7855.16" cy="2300.97" r="92.71" gradientTransform="matrix(-0.87, -0.5, 0, 0.99, 7162.82, 2002.7)" gradientUnits="userSpaceOnUse"><stop offset="0" stop-color="#f5f6f8"/><stop offset="0.14" stop-color="#f0f2f5"/><stop offset="0.29" stop-color="#e3e7eb"/><stop offset="0.46" stop-color="#ccd4da"/><stop offset="0.62" stop-color="#adb9c3"/><stop offset="0.71" stop-color="#99a9b5"/><stop offset="0.76" stop-color="#a3b2bc"/><stop offset="0.85" stop-color="#bfc9d1"/><stop offset="0.96" stop-color="#eceff1"/><stop offset="1" stop-color="#fff"/></radialGradient></defs><title>skiw-banner</title><g class="cls-1"><g id="Layer_1" data-name="Layer 1"><g class="cls-2"><polygon class="cls-3" points="216.39 60.32 216.39 303.15 224.82 298.3 224.82 55.47 216.39 60.32"/><polygon class="cls-4" points="216.42 60.32 216.42 303.15 208.05 298.3 208.05 55.49 216.42 60.32"/><polygon class="cls-5" points="208.05 55.49 216.42 60.32 224.82 55.47 216.42 50.62 208.05 55.49"/></g><g class="cls-2"><polygon class="cls-6" points="266.85 108.98 266.85 118.64 275.28 113.79 275.28 104.12 266.85 108.98"/><polygon class="cls-7" points="266.87 108.98 266.87 118.64 216.37 89.46 216.37 79.82 266.87 108.98"/><polygon class="cls-8" points="216.37 79.82 266.87 108.98 275.28 104.12 224.74 74.94 216.37 79.82"/></g><g class="cls-2"><polygon class="cls-9" points="266.85 147.84 266.85 157.5 275.28 152.65 275.28 142.98 266.85 147.84"/><polygon class="cls-10" points="266.87 147.84 266.87 157.5 216.37 128.32 216.37 118.68 266.87 147.84"/><polygon class="cls-11" points="216.37 118.68 266.87 147.84 275.28 142.98 224.74 113.8 216.37 118.68"/></g><g class="cls-2"><polygon class="cls-12" points="266.85 186.84 266.85 196.51 275.28 191.66 275.28 181.99 266.85 186.84"/><polygon class="cls-13" points="266.87 186.84 266.87 196.51 216.37 167.33 216.37 157.69 266.87 186.84"/><polygon class="cls-14" points="216.37 157.69 266.87 186.84 275.28 181.99 224.74 152.81 216.37 157.69"/></g><g class="cls-2"><polygon class="cls-15" points="266.85 225.7 266.85 235.37 275.28 230.51 275.28 220.85 266.85 225.7"/><polygon class="cls-16" points="266.87 225.7 266.87 235.37 216.37 206.19 216.37 196.54 266.87 225.7"/><polygon class="cls-17" points="216.37 196.54 266.87 225.7 275.28 220.85 224.74 191.66 216.37 196.54"/></g><g class="cls-2"><polygon class="cls-18" points="266.85 264.41 266.85 274.07 275.28 269.22 275.28 259.55 266.85 264.41"/><polygon class="cls-19" points="266.87 264.41 266.87 274.07 216.37 244.89 216.37 235.25 266.87 264.41"/><polygon class="cls-20" points="216.37 235.25 266.87 264.41 275.28 259.55 224.74 230.37 216.37 235.25"/></g><g class="cls-2"><polygon class="cls-21" points="266.85 303.27 266.85 312.93 275.28 308.08 275.28 298.41 266.85 303.27"/><polygon class="cls-22" points="266.87 303.27 266.87 312.93 216.37 283.75 216.37 274.11 266.87 303.27"/><polygon class="cls-23" points="216.37 274.11 266.87 303.27 275.28 298.41 224.74 269.23 216.37 274.11"/></g><g class="cls-2"><polygon class="cls-24" points="275.29 94.37 275.29 337.17 283.72 332.31 283.72 89.52 275.29 94.37"/><polygon class="cls-25" points="275.31 94.37 275.31 337.17 266.95 332.31 266.95 89.55 275.31 94.37"/><polygon class="cls-26" points="266.95 89.55 275.31 94.37 283.72 89.52 275.31 84.66 266.95 89.55"/></g><path class="cls-27" d="M294.91,367.64V41.93c0-10.38,6.31-15.15,14.1-10.66L485.61,133c7.79,4.5,14.1,16.56,14.1,26.94v325.7Z" transform="translate(-19.62 -28.47)"/><path class="cls-28" d="M501.87,484.52V158.82c0-10.38-6.31-22.44-14.1-26.94L311.17,30.16c-3.08-1.78-5.93-2.11-8.25-1.21-.29.11-2.39,1.19-2.67,1.34h0c2.4-1.17,5.45-.95,8.77,1L485.61,133c7.79,4.5,14.1,16.56,14.1,26.94v325.7Z" transform="translate(-19.62 -28.47)"/><polygon class="cls-29" points="342.3 109.58 283.18 75.17 283.18 334.6 342.3 368.66 342.3 109.58"/><polygon class="cls-29" points="350.2 85.93 350.2 373.22 472.2 443.5 472.2 156.94 350.2 85.93"/><path class="cls-30" d="M501.87,179.71v-20.9c0-10.38-6.31-22.44-14.1-26.94L311.17,30.16c-3.08-1.78-5.93-2.11-8.25-1.21-.29.11-2.39,1.19-2.67,1.34h0c2.4-1.17,5.45-.95,8.77,1L485.61,133c7.79,4.5,14.1,16.56,14.1,26.94v20.9Z" transform="translate(-19.62 -28.47)"/><path class="cls-31" d="M485.61,133,309,31.27c-7.79-4.5-14.1.28-14.1,10.66V62.51l204.8,118V159.93C499.71,149.54,493.4,137.48,485.61,133Z" transform="translate(-19.62 -28.47)"/><path class="cls-32" d="M457.46,204,448,198.64v3.85l9.44,5.38Zm-12.2-7-21.91-12.61v3.85l21.91,12.61Zm-24.67-14.2-22.81-13.16v3.85L420.6,186.7ZM395,168.1,381.41,160v3.85L395,172Z" transform="translate(-19.62 -28.47)"/><path class="cls-31" d="M450.26,192.78,462,199.54v-3.85l-11.71-6.76Zm-14.33-8.23,11.58,6.64v-3.85l-11.58-6.64Zm-35.21-20.32L433.17,183v-3.85l-32.45-18.73ZM398,158.79,381.41,149v3.85L398,162.64Zm45.55,15.12-62.1-36.38v5.85l62.1,36.38Z" transform="translate(-19.62 -28.47)"/><path class="cls-32" d="M441.62,207.79,468,222.93v-3.85l-26.4-15.13Zm-14.33-8.23,11.58,6.64v-3.85l-11.58-6.64Zm-26.57-15.33L424.54,198v-3.85l-23.82-13.74ZM398,178.79,381.41,169v3.85L398,182.64Z" transform="translate(-19.62 -28.47)"/><path class="cls-32" d="M463.55,225.93l-28.17-16.19v3.85l28.17,16.19Zm-30.93-17.78-21.91-12.61v3.85L432.62,212ZM408,194l-20.19-11.74v3.85L408,197.8ZM385,180.62l-3.6-2.14v3.85l3.6,2.14Z" transform="translate(-19.62 -28.47)"/><path class="cls-32" d="M433.48,231,462,247.42v-3.85l-28.49-16.46Zm-6.19-3.52,3.43,1.93v-3.85l-3.43-1.93ZM400.72,212.1l23.82,13.74V222l-23.82-13.74ZM398,206.66l-16.55-9.75v3.85L398,210.51Z" transform="translate(-19.62 -28.47)"/><path class="cls-32" d="M473.74,259.64l-22.12-12.81v3.85l22.12,12.81Zm-24.87-14.4L427,232.63v3.85l21.91,12.61ZM424.21,231l-16.73-9.78v3.85l16.73,9.78Zm-19.49-11.37L381.41,206v3.85l23.31,13.71Z" transform="translate(-19.62 -28.47)"/><path class="cls-32" d="M441.62,253.92,462,265.67v-3.85l-20.35-11.75Zm-14.33-8.23,11.58,6.64v-3.85l-11.58-6.64Zm-26.57-15.33,23.82,13.74v-3.85L400.72,226.5ZM398,224.91l-16.55-9.75V219L398,228.77Z" transform="translate(-19.62 -28.47)"/><path class="cls-32" d="M458.24,304.27,448,298.61v3.85l10.23,5.66Zm-13-7.25-21.91-12.61v3.85l21.91,12.61Zm-24.67-14.2-22.81-13.16v3.85l22.81,13.16ZM395,268.07,381.41,260v3.85L395,271.93Z" transform="translate(-19.62 -28.47)"/><path class="cls-31" d="M450.26,292.76l18.55,10.42v-3.85l-18.55-10.42Zm-14.33-8.23,11.58,6.64v-3.85l-11.58-6.64Zm-35.21-20.32,32.45,18.73v-3.85l-32.45-18.73ZM398,258.76,381.41,249v3.85L398,262.62Zm45.55,15.12-62.1-36.38v5.85l62.1,36.38Z" transform="translate(-19.62 -28.47)"/><path class="cls-32" d="M441.62,307.77l27.19,15.41v-3.85l-27.19-15.41Zm-14.33-8.23,11.58,6.64v-3.85l-11.58-6.64Zm-26.57-15.33,23.82,13.74v-3.85l-23.82-13.74ZM398,278.76,381.41,269v3.85L398,282.62Z" transform="translate(-19.62 -28.47)"/><path class="cls-32" d="M464.33,326.19l-29-16.47v3.85l29,16.47Zm-31.71-18.06-21.91-12.61v3.85L432.62,312ZM408,293.93l-20.19-11.74V286L408,297.78ZM385,280.6l-3.6-2.14v3.85l3.6,2.14Z" transform="translate(-19.62 -28.47)"/><path class="cls-32" d="M465,372.45l-17-9.58v3.85l17,9.58Zm-19.73-11.17-21.91-12.61v3.85l21.91,12.61Zm-24.67-14.2-26.91-15.56v3.85l26.91,15.56Zm-29.67-17.16-9.52-5.65v3.85l9.52,5.65Z" transform="translate(-19.62 -28.47)"/><path class="cls-31" d="M450.26,357,462,363.78v-3.85l-11.71-6.76Zm-14.33-8.23,11.58,6.64v-3.85l-11.58-6.64Zm-35.21-20.32,32.45,18.73v-3.85l-32.45-18.73ZM398,323l-16.55-9.75v3.85L398,326.88Zm45.55,13.15-62.1-36.38v5.85L443.51,342Z" transform="translate(-19.62 -28.47)"/><path class="cls-32" d="M433.32,367.37l27.23,15.52V379l-27.23-15.52Zm-6-3.57,3.27,2v-3.85l-3.27-2Zm-26.57-15.33,23.82,13.74v-3.85l-23.82-13.74ZM398,343l-16.55-9.75v3.85L398,346.88Z" transform="translate(-19.62 -28.47)"/><path class="cls-32" d="M465,390.89,435.38,374v3.85L465,394.75Zm-32.37-18.51-21.91-12.61v3.85l21.91,12.61ZM408,358.19l-3.41-2v3.85l3.41,2Zm-6.17-3.58-20.38-11.89v3.85l20.38,11.89Z" transform="translate(-19.62 -28.47)"/><path class="cls-32" d="M432.62,418.27l-21.91-12.61v3.85l21.91,12.61ZM408,404.07l-3.41-2v3.85l3.41,2Zm-6.17-3.58L381.41,388.6v3.85l20.38,11.89Z" transform="translate(-19.62 -28.47)"/><path class="cls-32" d="M458.74,396.73l-10.72-6v3.85l10.72,6Zm-13.47-7.57-21.91-12.61v3.85L445.26,393ZM420.6,375,397.79,361.8v3.85l22.81,13.16ZM395,360.21l-13.63-8.06V356L395,364.06Z" transform="translate(-19.62 -28.47)"/><path class="cls-32" d="M441.62,399.9l27.85,15.86v-3.85l-27.85-15.86Zm-14.33-8.23,11.58,6.64v-3.85l-11.58-6.64Zm-26.57-15.33,23.82,13.74v-3.85l-23.82-13.74ZM398,370.9l-16.55-9.75V365L398,374.75Z" transform="translate(-19.62 -28.47)"/><path class="cls-32" d="M461.2,416.13l-25.83-14.68v3.85L461.2,420Zm-28.58-16.27-21.91-12.61v3.85l21.91,12.61ZM408,385.67l-18.21-10.48V379L408,389.52ZM387,373.6l-5.58-3.4v3.85l5.58,3.4Z" transform="translate(-19.62 -28.47)"/><path class="cls-32" d="M437.43,416l32,18.06v-3.85l-32-18.06Zm-10.14-6,7.38,4.43v-3.85l-7.38-4.43ZM400.72,394.6l23.82,13.74v-3.85l-23.82-13.74ZM398,389.15l-16.55-9.75v3.85L398,393Z" transform="translate(-19.62 -28.47)"/><path class="cls-33" d="M429.95,126.8l-3.88-2.18v3.85l3.88,2.18ZM423.31,123l-14.18-8.17v3.85l14.18,8.17Zm-16.94-9.76-8.79-5.2v3.85l8.79,5.2Zm-11.54-6.79L381.2,98.42v3.85l13.63,8.06Z" transform="translate(-19.62 -28.47)"/><polygon class="cls-33" points="423.68 93.62 361.58 57.24 361.58 63.09 423.68 99.47 423.68 93.62"/><path class="cls-31" d="M348.13,258.35l-13.81-8.06v3.85l13.81,8.06Zm-16.57-9.65-5-3v3.85l5,3Zm-7.77-4.58-13.63-8.06v3.85L323.79,248Z" transform="translate(-19.62 -28.47)"/><polygon class="cls-31" points="335.74 221.3 290.54 194.87 290.54 200.72 335.74 227.15 335.74 221.3"/><polygon class="cls-32" points="335.57 124.63 303.86 106.03 303.86 110.05 335.57 128.65 335.57 124.63"/><path class="cls-33" d="M357.34,98.55c0,15.83-11.19,22.21-25,14.25s-25-27.26-25-43.1,11.19-22.21,25-14.25S357.34,82.72,357.34,98.55Z" transform="translate(-19.62 -28.47)"/><path class="cls-34" d="M342.08,90.91c0,12.73-21.52.31-21.52-12.42S325.38,60,331.32,63.41,342.08,78.18,342.08,90.91Z" transform="translate(-19.62 -28.47)"/><path class="cls-35" d="M347.59,110.79c-1.78-5.12-5.21-7.86-9.41-13.63L331.52,94l-6.66-4.51c-4.2.93-7.63-.3-9.41,2.77a7.2,7.2,0,0,0-.73,2c4.52,7.78,10.75,14.57,17.63,18.54,6.18,3.57,11.83,4.24,16.2,2.49A21,21,0,0,0,347.59,110.79Z" transform="translate(-19.62 -28.47)"/><path class="cls-35" d="M340.62,82.54a8.35,8.35,0,0,0-.24-2c-.93-9.53-4.15-14-8.91-16.75s-8.36-1.84-9,7.16c0,.27-.06.61-.08,1-.82-.17-1.35.55-1.09,2.31a6.72,6.72,0,0,0,1.86,3.91,27,27,0,0,0,3.49,8.2c.28,1.12.12,2.11-.54,2.48a5.76,5.76,0,0,1-1.28.54c3.67,6.5,9.63,9.93,13.31,7.68q-.63-.91-1.19-1.87a4.18,4.18,0,0,1-.58-3.34,6.09,6.09,0,0,0,3.12-3.5c.11-.19.22-.38.31-.58,1,.26,1.73-.44,1.88-1.75A3.73,3.73,0,0,0,340.62,82.54Z" transform="translate(-19.62 -28.47)"/><path class="cls-31" d="M341.78,115c0-4.47,1.09-7.86,2.83-9.71-1.76-2.4-4-4.75-6.43-8.15-3.67,2.25-9.63-1.19-13.3-7.68h0c-2.49.55-4.72.35-6.48.73a32.48,32.48,0,0,1,2.8,12.92c0,.06,0,.11,0,.17a44.76,44.76,0,0,0,11.18,9.51,24.31,24.31,0,0,0,9.47,3.32C341.8,115.75,341.78,115.38,341.78,115Z" transform="translate(-19.62 -28.47)"/><path class="cls-34" d="M330.29,67c2.13,5.6-2.53,8.77-5.94,8.1-2-4-4.93-.54-1.88-8.81,3.94-10.67,9.54-2.62,9.54-2.62Z" transform="translate(-19.62 -28.47)"/><path class="cls-34" d="M329.7,67c.61,6,5.45,7.12,7.23,12.47a15.9,15.9,0,0,1,.5,9.26s5.84-5.15,2.18-15.67S328.84,58.53,329.7,67Z" transform="translate(-19.62 -28.47)"/><path class="cls-31" d="M320.28,135.1c0,3.88-2.74,5.44-6.12,3.49A13.48,13.48,0,0,1,308,128c0-3.88,2.74-5.44,6.12-3.49A13.48,13.48,0,0,1,320.28,135.1Z" transform="translate(-19.62 -28.47)"/><polygon class="cls-32" points="335.57 142.22 303.86 123.62 303.86 127.64 335.57 146.25 335.57 142.22"/><path class="cls-31" d="M320.28,152.7c0,3.88-2.74,5.44-6.12,3.49A13.48,13.48,0,0,1,308,145.63c0-3.88,2.74-5.44,6.12-3.49A13.48,13.48,0,0,1,320.28,152.7Z" transform="translate(-19.62 -28.47)"/><polygon class="cls-32" points="335.57 159.49 303.86 140.89 303.86 144.91 335.57 163.51 335.57 159.49"/><path class="cls-31" d="M320.28,170c0,3.88-2.74,5.44-6.12,3.49A13.48,13.48,0,0,1,308,162.9c0-3.88,2.74-5.44,6.12-3.49A13.48,13.48,0,0,1,320.28,170Z" transform="translate(-19.62 -28.47)"/><polygon class="cls-32" points="335.57 176.76 303.86 158.15 303.86 162.17 335.57 180.78 335.57 176.76"/><path class="cls-31" d="M320.28,187.23c0,3.88-2.74,5.44-6.12,3.49A13.48,13.48,0,0,1,308,180.17c0-3.88,2.74-5.44,6.12-3.49A13.48,13.48,0,0,1,320.28,187.23Z" transform="translate(-19.62 -28.47)"/><polygon class="cls-32" points="335.57 194.35 303.86 175.75 303.86 179.77 335.57 198.37 335.57 194.35"/><path class="cls-31" d="M320.28,204.83c0,3.88-2.74,5.44-6.12,3.49A13.48,13.48,0,0,1,308,197.76c0-3.88,2.74-5.44,6.12-3.49A13.48,13.48,0,0,1,320.28,204.83Z" transform="translate(-19.62 -28.47)"/><polygon class="cls-28" points="335.74 251.39 290.54 224.96 290.54 230.81 335.74 257.24 335.74 251.39"/><polygon class="cls-32" points="320.53 242.5 290.54 224.96 290.54 230.81 320.53 248.35 320.53 242.5"/><polygon class="cls-28" points="335.74 263.72 290.54 237.3 290.54 243.15 335.74 269.57 335.74 263.72"/><polygon class="cls-32" points="328.17 259.29 290.54 237.3 290.54 243.15 328.17 265.13 328.17 259.29"/><polygon class="cls-28" points="335.74 276.06 290.54 249.63 290.54 255.48 335.74 281.91 335.74 276.06"/><polygon class="cls-32" points="307.78 259.71 290.54 249.63 290.54 255.48 307.78 265.56 307.78 259.71"/><polygon class="cls-28" points="335.74 288.39 290.54 261.96 290.54 267.81 335.74 294.24 335.74 288.39"/><polygon class="cls-32" points="320.53 279.5 290.54 261.96 290.54 267.81 320.53 285.35 320.53 279.5"/><polygon class="cls-28" points="335.74 300.23 290.54 273.8 290.54 279.65 335.74 306.08 335.74 300.23"/><polygon class="cls-32" points="299.73 279.18 290.54 273.8 290.54 279.65 299.73 285.03 299.73 279.18"/><polygon class="cls-28" points="335.74 312.56 290.54 286.13 290.54 291.98 335.74 318.41 335.74 312.56"/><polygon class="cls-32" points="327.02 307.46 290.54 286.13 290.54 291.98 327.02 313.32 327.02 307.46"/><polygon class="cls-31" points="296.04 317.27 290.65 314.15 290.65 307.97 296.04 311.08 296.04 317.27"/><polygon class="cls-31" points="305.98 323.01 300.6 319.9 300.6 313.71 305.98 316.83 305.98 323.01"/><polygon class="cls-31" points="315.93 328.75 310.54 325.64 310.54 319.46 315.93 322.57 315.93 328.75"/><polygon class="cls-28" points="325.88 334.5 320.49 331.38 320.49 325.2 325.88 328.31 325.88 334.5"/><polygon class="cls-28" points="335.83 340.24 330.44 337.13 330.44 330.94 335.83 334.06 335.83 340.24"/><polygon class="cls-31" points="296.04 327.8 290.65 324.69 290.65 318.51 296.04 321.62 296.04 327.8"/><polygon class="cls-31" points="305.98 333.54 300.6 330.43 300.6 324.25 305.98 327.36 305.98 333.54"/><polygon class="cls-31" points="315.93 339.29 310.54 336.18 310.54 329.99 315.93 333.1 315.93 339.29"/><polygon class="cls-31" points="325.88 345.03 320.49 341.92 320.49 335.74 325.88 338.85 325.88 345.03"/><polygon class="cls-28" points="335.83 350.77 330.44 347.66 330.44 341.48 335.83 344.59 335.83 350.77"/><path class="cls-36" d="M463,162.67c0-10.38-6.31-22.44-14.1-26.94l-154-88.67V367.64L463,464.46Z" transform="translate(-19.62 -28.47)"/><path class="cls-27" d="M238.22,387.08V42.93c0-11,6.67-16,14.9-11.26L439.72,139.14c8.23,4.75,14.9,17.49,14.9,28.47V511.76Z" transform="translate(-19.62 -28.47)"/><path class="cls-28" d="M456.9,510.59V166.43c0-11-6.67-23.71-14.9-28.47L255.4,30.49c-3.26-1.88-6.27-2.23-8.72-1.28-.31.12-2.53,1.26-2.82,1.42h0c2.54-1.23,5.76-1,9.27,1L439.72,139.14c8.23,4.75,14.9,17.49,14.9,28.47V511.76Z" transform="translate(-19.62 -28.47)"/><polygon class="cls-29" points="289.41 116.02 226.94 79.66 226.94 353.79 289.41 389.78 289.41 116.02"/><polygon class="cls-29" points="297.75 91.03 297.75 394.59 426.66 468.86 426.66 166.06 297.75 91.03"/><path class="cls-37" d="M456.9,188.51V166.43c0-11-6.67-23.71-14.9-28.47L255.4,30.49c-3.26-1.88-6.27-2.23-8.72-1.28-.31.12-2.53,1.26-2.82,1.42h0c2.54-1.23,5.76-1,9.27,1L439.72,139.14c8.23,4.75,14.9,17.49,14.9,28.47v22.08Z" transform="translate(-19.62 -28.47)"/><path class="cls-38" d="M439.72,139.14,253.12,31.66c-8.23-4.75-14.9.29-14.9,11.26V64.67l216.4,124.68V167.6C454.62,156.63,448,143.89,439.72,139.14Z" transform="translate(-19.62 -28.47)"/><path class="cls-32" d="M410,214.19l-10-5.68v4.07l10,5.68Zm-12.89-7.36-23.15-13.32v4.07l23.15,13.32Zm-26.06-15-24.1-13.9V182L371,195.9Zm-27-15.59-14.4-8.52v4.07l14.4,8.52Z" transform="translate(-19.62 -28.47)"/><path class="cls-38" d="M402.37,202.32l12.38,7.15v-4.07l-12.38-7.15Zm-15.14-8.7,12.23,7v-4.07l-12.23-7ZM350,172.15l34.29,19.79v-4.07L350,168.08Zm-2.91-5.75-17.49-10.3v4.07l17.49,10.3Zm48.13,16-65.62-38.44v6.18l65.62,38.44Z" transform="translate(-19.62 -28.47)"/><path class="cls-32" d="M393.24,218.18l27.9,16V230.1l-27.9-16Zm-15.14-8.7,12.23,7v-4.07l-12.23-7ZM350,193.29l25.17,14.52v-4.07L350,189.21Zm-2.91-5.75-17.49-10.3v4.07l17.49,10.3Z" transform="translate(-19.62 -28.47)"/><path class="cls-32" d="M416.41,237.35l-29.77-17.11v4.07l29.77,17.11Zm-32.68-18.79-23.15-13.32v4.07l23.15,13.32Zm-26.06-15-21.33-12.4v4.07l21.33,12.4Zm-24.24-14.08-3.81-2.26v4.07l3.81,2.26Z" transform="translate(-19.62 -28.47)"/><path class="cls-32" d="M384.64,242.66l30.1,17.39V256l-30.1-17.39Zm-6.54-3.72,3.63,2v-4.07l-3.63-2ZM350,222.74l25.17,14.52v-4.07L350,218.67ZM347.11,217l-17.49-10.3v4.07l17.49,10.3Z" transform="translate(-19.62 -28.47)"/><path class="cls-32" d="M427.18,273l-23.37-13.53v4.07L427.18,277ZM400.9,257.75l-23.15-13.32v4.07l23.15,13.32Zm-26.06-15-17.68-10.33v4.07l17.68,10.33Zm-20.59-12-24.63-14.49v4.07l24.63,14.49Z" transform="translate(-19.62 -28.47)"/><path class="cls-32" d="M393.24,266.92l21.5,12.42v-4.07l-21.5-12.42Zm-15.14-8.7,12.23,7v-4.07l-12.23-7ZM350,242l25.17,14.52v-4.07L350,238Zm-2.91-5.75L329.62,226V230l17.49,10.3Z" transform="translate(-19.62 -28.47)"/><path class="cls-32" d="M410.8,320.13l-10.8-6v4.07l10.8,6Zm-13.72-7.66-23.15-13.32v4.07l23.15,13.32Zm-26.06-15-24.1-13.9v4.07l24.1,13.9Zm-27-15.59-14.4-8.52v4.07L344,286Z" transform="translate(-19.62 -28.47)"/><path class="cls-38" d="M402.37,308,422,319v-4.07l-19.6-11Zm-15.14-8.7,12.23,7v-4.07l-12.23-7ZM350,277.8l34.29,19.79v-4.07L350,273.72ZM347.11,272l-17.49-10.3v4.07l17.49,10.3Zm48.13,16-65.62-38.44v6.18l65.62,38.44Z" transform="translate(-19.62 -28.47)"/><path class="cls-32" d="M393.24,323.82,422,340.11V336l-28.73-16.29Zm-15.14-8.7,12.23,7v-4.07l-12.23-7ZM350,298.93l25.17,14.52v-4.07L350,294.86Zm-2.91-5.75-17.49-10.3v4.07l17.49,10.3Z" transform="translate(-19.62 -28.47)"/><path class="cls-32" d="M417.24,343.29l-30.6-17.41V330l30.6,17.4ZM383.73,324.2l-23.15-13.32V315l23.15,13.32Zm-26.06-15-21.33-12.4v4.07l21.33,12.4Zm-24.24-14.08-3.81-2.26v4.07l3.81,2.26Z" transform="translate(-19.62 -28.47)"/><path class="cls-32" d="M417.93,392.17,400,382.05v4.07l17.93,10.12Zm-20.84-11.8L373.94,367v4.07l23.15,13.32Zm-26.06-15-28.43-16.45V353L371,369.44Zm-31.35-18.13-10.06-6v4.07l10.06,6Z" transform="translate(-19.62 -28.47)"/><path class="cls-38" d="M402.37,375.87,414.74,383v-4.07l-12.38-7.15Zm-15.14-8.7,12.23,7v-4.07l-12.23-7ZM350,345.7l34.29,19.79v-4.07L350,341.63Zm-2.91-5.75-17.49-10.3v4.07L347.11,344Zm48.13,13.9L329.62,315.4v6.18L395.23,360Z" transform="translate(-19.62 -28.47)"/><path class="cls-32" d="M384.46,386.8l28.77,16.4v-4.07l-28.77-16.4ZM378.1,383l3.45,2.09V381L378.1,379ZM350,366.83l25.17,14.52v-4.07L350,362.76Zm-2.91-5.75-17.49-10.3v4.07l17.49,10.3Z" transform="translate(-19.62 -28.47)"/><path class="cls-32" d="M417.93,411.66l-31.29-17.87v4.07l31.29,17.87Zm-34.2-19.56-23.15-13.32v4.07l23.15,13.32Zm-26.06-15L354.06,375v4.07l3.61,2.1Zm-6.52-3.79-21.53-12.56v4.07l21.53,12.56Z" transform="translate(-19.62 -28.47)"/><path class="cls-32" d="M383.73,440.58l-23.15-13.32v4.07l23.15,13.32Zm-26.06-15-3.61-2.1v4.07l3.61,2.11Zm-6.52-3.79-21.53-12.56v4.07l21.53,12.56Z" transform="translate(-19.62 -28.47)"/><path class="cls-32" d="M411.33,417.82,400,411.5v4.07l11.33,6.32Zm-14.24-8L373.94,396.5v4.07l23.15,13.32Zm-26.06-15-24.1-13.91V385l24.1,13.9Zm-27-15.59-14.4-8.52v4.07l14.4,8.52Z" transform="translate(-19.62 -28.47)"/><path class="cls-32" d="M393.24,421.18l29.42,16.76v-4.07L393.24,417.1Zm-15.14-8.7,12.23,7v-4.07l-12.23-7ZM350,396.28l25.17,14.52v-4.07L350,392.21Zm-2.91-5.75-17.49-10.3v4.07l17.49,10.3Z" transform="translate(-19.62 -28.47)"/><path class="cls-32" d="M413.93,438.32l-27.29-15.51v4.07l27.29,15.51Zm-30.2-17.19-23.15-13.32v4.07l23.15,13.32Zm-26.06-15-19.25-11.07v4.07l19.25,11.07Zm-22.16-12.75-5.89-3.59v4.07l5.89,3.59Z" transform="translate(-19.62 -28.47)"/><path class="cls-32" d="M388.81,438.13l33.86,19.09v-4.07l-33.86-19.09Zm-10.71-6.37,7.8,4.68v-4.07l-7.8-4.68ZM350,415.57l25.17,14.52V426L350,411.5Zm-2.91-5.75-17.49-10.3v4.07l17.49,10.3Z" transform="translate(-19.62 -28.47)"/><path class="cls-33" d="M380.9,132.6l-4.1-2.3v4.07l4.1,2.3Zm-7-4-15-8.63v4.07l15,8.63ZM356,118.3l-9.28-5.49v4.07l9.28,5.49Zm-12.2-7.17-14.4-8.52v4.07l14.4,8.52Z" transform="translate(-19.62 -28.47)"/><polygon class="cls-33" points="375.39 99.15 309.77 60.71 309.77 66.89 375.39 105.34 375.39 99.15"/><path class="cls-38" d="M294.45,271.6l-14.6-8.51v4.07l14.6,8.51Zm-17.51-10.2-5.3-3.16v4.07l5.3,3.16Zm-8.21-4.84L254.33,248v4.07l14.4,8.52Z" transform="translate(-19.62 -28.47)"/><polygon class="cls-38" points="282.47 234.07 234.71 206.14 234.71 212.32 282.47 240.25 282.47 234.07"/><polygon class="cls-32" points="282.3 131.92 248.79 112.26 248.79 116.51 282.3 136.17 282.3 131.92"/><path class="cls-33" d="M304.18,102.76c0,16.73-11.82,23.47-26.4,15.05S251.38,89,251.38,72.27s11.82-23.47,26.4-15.05S304.18,86,304.18,102.76Z" transform="translate(-19.62 -28.47)"/><path class="cls-38" d="M290.42,109a31.92,31.92,0,0,1-5.26-5.81c-4.37,2.49-11.46-1.6-15.83-9.14h0a9.81,9.81,0,0,1-5.26-.27,4.15,4.15,0,0,0-5.64,3c4.75,8.7,11.56,16.39,19.15,20.77,7.31,4.22,13.91,4.55,18.63,1.69A17.94,17.94,0,0,0,290.42,109Z" transform="translate(-19.62 -28.47)"/><polygon class="cls-27" points="249.71 65.59 247.61 69.74 257.72 73.93 249.71 65.59"/><polygon class="cls-27" points="265.58 74.76 267.68 81.33 257.58 73.85 265.58 74.76"/><path class="cls-35" d="M285.16,103.2q-.75-1.06-1.42-2.17c-1.12-1.86-1.16-4-.08-4.58a8.6,8.6,0,0,0,3.47-3.86c1.18.33,2.05-.46,2.23-2a4.26,4.26,0,0,0-1.29-4.12c-.29-7.07-2.7-14.33-10.83-19s-10.54-.22-10.83,6.51c-1-.22-1.61.6-1.3,2.63a7.76,7.76,0,0,0,2.23,4.54A38.41,38.41,0,0,0,270.83,89c1.08,1.86,1.12,3.86,0,4.44a6.85,6.85,0,0,1-1.52.58h0c4.37,7.54,11.46,11.63,15.83,9.14Z" transform="translate(-19.62 -28.47)"/><path class="cls-34" d="M266.42,74c1.47.85,2,3.34,2,3.34s.07-2.15.07-3.72.48-7.24,5.19-2.72,6.08,7.58,8.4,8.37,3.89,1.15,3.89,3.19.2,4.19.2,4.19a2.31,2.31,0,0,1,1.93-.14V79.62c0-3.84-4.05-13.42-13.19-15.29C265.94,62.49,266.42,64.37,266.42,74Z" transform="translate(-19.62 -28.47)"/><path class="cls-38" d="M265,141.38c0,4.1-2.89,5.75-6.46,3.69a14.24,14.24,0,0,1-6.46-11.15c0-4.1,2.89-5.75,6.46-3.69A14.24,14.24,0,0,1,265,141.38Z" transform="translate(-19.62 -28.47)"/><polygon class="cls-32" points="282.3 150.51 248.79 130.85 248.79 135.1 282.3 154.76 282.3 150.51"/><path class="cls-38" d="M265,160c0,4.1-2.89,5.75-6.46,3.69a14.24,14.24,0,0,1-6.46-11.15c0-4.1,2.89-5.75,6.46-3.69A14.24,14.24,0,0,1,265,160Z" transform="translate(-19.62 -28.47)"/><polygon class="cls-32" points="282.3 168.76 248.79 149.1 248.79 153.35 282.3 173.01 282.3 168.76"/><path class="cls-38" d="M265,178.21c0,4.1-2.89,5.75-6.46,3.69a14.24,14.24,0,0,1-6.46-11.15c0-4.1,2.89-5.75,6.46-3.69A14.24,14.24,0,0,1,265,178.21Z" transform="translate(-19.62 -28.47)"/><polygon class="cls-32" points="282.3 187 248.79 167.34 248.79 171.59 282.3 191.25 282.3 187"/><path class="cls-38" d="M265,196.46c0,4.1-2.89,5.75-6.46,3.69A14.24,14.24,0,0,1,252.1,189c0-4.1,2.89-5.75,6.46-3.69A14.24,14.24,0,0,1,265,196.46Z" transform="translate(-19.62 -28.47)"/><polygon class="cls-32" points="282.3 205.59 248.79 185.93 248.79 190.18 282.3 209.84 282.3 205.59"/><path class="cls-38" d="M265,215c0,4.1-2.89,5.75-6.46,3.69a14.24,14.24,0,0,1-6.46-11.15c0-4.1,2.89-5.75,6.46-3.69A14.24,14.24,0,0,1,265,215Z" transform="translate(-19.62 -28.47)"/><polygon class="cls-28" points="282.47 265.86 234.71 237.94 234.71 244.12 282.47 272.05 282.47 265.86"/><polygon class="cls-32" points="266.4 256.47 234.71 237.94 234.71 244.12 266.4 262.65 266.4 256.47"/><polygon class="cls-28" points="282.47 278.9 234.71 250.97 234.71 257.15 282.47 285.08 282.47 278.9"/><polygon class="cls-32" points="274.48 274.2 234.71 250.97 234.71 257.15 274.48 280.39 274.48 274.2"/><polygon class="cls-28" points="282.47 291.93 234.71 264 234.71 270.18 282.47 298.11 282.47 291.93"/><polygon class="cls-32" points="252.93 274.65 234.71 264 234.71 270.18 252.93 280.83 252.93 274.65"/><polygon class="cls-28" points="282.47 304.96 234.71 277.03 234.71 283.21 282.47 311.14 282.47 304.96"/><polygon class="cls-32" points="266.4 295.56 234.71 277.03 234.71 283.21 266.4 301.74 266.4 295.56"/><polygon class="cls-28" points="282.47 317.47 234.71 289.54 234.71 295.72 282.47 323.65 282.47 317.47"/><polygon class="cls-32" points="244.42 295.23 234.71 289.54 234.71 295.72 244.42 301.41 244.42 295.23"/><polygon class="cls-28" points="282.47 330.5 234.71 302.57 234.71 308.75 282.47 336.68 282.47 330.5"/><polygon class="cls-32" points="273.26 325.11 234.71 302.57 234.71 308.75 273.26 331.3 273.26 325.11"/><polygon class="cls-38" points="240.52 335.47 234.82 332.18 234.82 325.65 240.52 328.94 240.52 335.47"/><polygon class="cls-38" points="251.03 341.54 245.34 338.25 245.34 331.72 251.03 335.01 251.03 341.54"/><polygon class="cls-38" points="261.54 347.61 255.85 344.32 255.85 337.79 261.54 341.07 261.54 347.61"/><polygon class="cls-28" points="272.05 353.68 266.36 350.39 266.36 343.86 272.05 347.14 272.05 353.68"/><polygon class="cls-28" points="282.56 359.75 276.87 356.46 276.87 349.93 282.56 353.21 282.56 359.75"/><polygon class="cls-38" points="240.52 346.6 234.82 343.31 234.82 336.78 240.52 340.07 240.52 346.6"/><polygon class="cls-38" points="251.03 352.67 245.34 349.38 245.34 342.85 251.03 346.14 251.03 352.67"/><polygon class="cls-38" points="261.54 358.74 255.85 355.45 255.85 348.92 261.54 352.21 261.54 358.74"/><polygon class="cls-38" points="272.05 364.81 266.36 361.52 266.36 354.99 272.05 358.27 272.05 364.81"/><polygon class="cls-28" points="282.56 370.88 276.87 367.59 276.87 361.06 282.56 364.34 282.56 370.88"/><path class="cls-36" d="M415.68,173.64c0-11-6.67-23.72-14.9-28.47L238.22,51.54V387.08L415.68,489.32Z" transform="translate(-19.62 -28.47)"/><path class="cls-27" d="M178.43,408.55V46.43c0-11.54,7-16.85,15.68-11.85L390.45,147.66c8.66,5,15.68,18.41,15.68,30V539.73Z" transform="translate(-19.62 -28.47)"/><path class="cls-28" d="M408.53,538.5V176.38c0-11.54-7-25-15.68-30L196.51,33.34c-3.43-2-6.59-2.34-9.17-1.35-.33.13-2.66,1.32-3,1.49h0c2.67-1.3,6.06-1.05,9.75,1.08L390.45,147.66c8.66,5,15.68,18.41,15.68,30V539.73Z" transform="translate(-19.62 -28.47)"/><polygon class="cls-33" points="233.31 124.82 167.58 86.56 167.58 375 233.31 412.87 233.31 124.82"/><polygon class="cls-33" points="242.09 98.53 242.09 417.93 377.73 496.07 377.73 177.47 242.09 98.53"/><path class="cls-39" d="M408.53,199.61V176.38c0-11.54-7-25-15.68-30L196.51,33.34c-3.43-2-6.59-2.34-9.17-1.35-.33.13-2.66,1.32-3,1.49h0c2.67-1.3,6.06-1.05,9.75,1.08L390.45,147.66c8.66,5,15.68,18.41,15.68,30v23.23Z" transform="translate(-19.62 -28.47)"/><path class="cls-40" d="M390.45,147.66,194.1,34.58c-8.66-5-15.68.31-15.68,11.85V69.3l227.7,131.19V177.61C406.13,166.07,399.11,152.66,390.45,147.66Z" transform="translate(-19.62 -28.47)"/><path class="cls-32" d="M359.15,226.63l-10.5-6v4.29l10.5,6Zm-13.56-7.75-24.36-14v4.29l24.36,14ZM318.16,203.1l-25.36-14.63v4.29l25.36,14.63Zm-28.42-16.4-15.15-9V182l15.15,9Z" transform="translate(-19.62 -28.47)"/><path class="cls-40" d="M351.14,214.14l13,7.52v-4.29l-13-7.52ZM335.21,205l12.87,7.38v-4.29l-12.87-7.38ZM296.06,182.4l36.08,20.82v-4.29l-36.08-20.82ZM293,176.34l-18.41-10.84v4.28L293,180.63Zm50.64,16.82-69-40.45v6.5l69,40.45Z" transform="translate(-19.62 -28.47)"/><path class="cls-32" d="M341.54,230.83l29.36,16.83v-4.29l-29.36-16.83Zm-15.93-9.15,12.87,7.38v-4.29l-12.87-7.38Zm-29.54-17,26.48,15.28v-4.29l-26.48-15.28ZM293,198.58l-18.41-10.84V192L293,202.87Z" transform="translate(-19.62 -28.47)"/><path class="cls-32" d="M365.92,251,334.6,233v4.29l31.32,18Zm-34.39-19.77-24.36-14v4.29l24.36,14Zm-27.42-15.78-22.44-13v4.29l22.44,13ZM278.6,200.62l-4-2.38v4.29l4,2.38Z" transform="translate(-19.62 -28.47)"/><path class="cls-32" d="M332.49,256.59l31.68,18.3V270.6l-31.68-18.3Zm-6.88-3.92,3.82,2.15v-4.29l-3.82-2.15Zm-29.54-17,26.48,15.28v-4.29l-26.48-15.28ZM293,229.57l-18.41-10.84V223L293,233.85Z" transform="translate(-19.62 -28.47)"/><path class="cls-32" d="M377.25,288.47l-24.59-14.24v4.29l24.59,14.24Zm-27.65-16-24.36-14v4.29l24.36,14Zm-27.42-15.78-18.6-10.87v4.29L322.18,261ZM300.51,244l-25.91-15.25v4.29l25.91,15.25Z" transform="translate(-19.62 -28.47)"/><path class="cls-32" d="M341.54,282.11l22.62,13.07v-4.29l-22.62-13.07ZM325.61,273l12.87,7.38v-4.29l-12.87-7.38Zm-29.54-17,26.48,15.28v-4.29l-26.48-15.28ZM293,249.86,274.59,239v4.28L293,254.15Z" transform="translate(-19.62 -28.47)"/><path class="cls-32" d="M360,338.1l-11.37-6.29v4.29L360,342.38ZM345.59,330l-24.36-14v4.29l24.36,14Zm-27.42-15.78-25.36-14.63v4.29l25.36,14.63Zm-28.42-16.4-15.15-9v4.29l15.15,9Z" transform="translate(-19.62 -28.47)"/><path class="cls-40" d="M351.14,325.3l20.63,11.59V332.6L351.14,321Zm-15.93-9.15,12.87,7.38v-4.29l-12.87-7.38Zm-39.14-22.59,36.08,20.82v-4.29l-36.08-20.82ZM293,287.5l-18.41-10.84v4.28L293,291.79Zm50.64,16.82-69-40.45v6.5l69,40.45Z" transform="translate(-19.62 -28.47)"/><path class="cls-32" d="M341.54,342l30.23,17.14v-4.29L341.54,337.7Zm-15.93-9.15,12.87,7.38v-4.29l-12.87-7.38Zm-29.54-17,26.48,15.28v-4.29l-26.48-15.28ZM293,309.74,274.59,298.9v4.28L293,314Z" transform="translate(-19.62 -28.47)"/><path class="cls-32" d="M366.79,362.46,334.6,344.15v4.29l32.19,18.31Zm-35.26-20.08-24.36-14v4.29l24.36,14ZM304.11,326.6l-22.44-13v4.29l22.44,13ZM278.6,311.78l-4-2.38v4.29l4,2.38Z" transform="translate(-19.62 -28.47)"/><path class="cls-32" d="M367.52,413.9l-18.87-10.65v4.29l18.87,10.65Zm-21.93-12.42-24.36-14v4.29l24.36,14ZM318.16,385.7l-29.92-17.3v4.29L318.16,390Zm-33-19.07-10.59-6.29v4.29l10.59,6.29Z" transform="translate(-19.62 -28.47)"/><path class="cls-40" d="M351.14,396.74l13,7.52V400l-13-7.52Zm-15.93-9.15L348.08,395v-4.29l-12.87-7.38ZM296.06,365l36.08,20.82v-4.29l-36.08-20.82ZM293,358.95l-18.41-10.84v4.28L293,363.23Zm50.64,14.62-69-40.45v6.5l69,40.45Z" transform="translate(-19.62 -28.47)"/><path class="cls-32" d="M332.31,408.25l30.27,17.26v-4.29L332.31,404Zm-6.7-4,3.63,2.2v-4.29l-3.63-2.2Zm-29.54-17,26.48,15.28v-4.29L296.06,383ZM293,381.18l-18.41-10.84v4.28L293,385.47Z" transform="translate(-19.62 -28.47)"/><path class="cls-32" d="M367.52,434.4,334.6,415.6v4.29l32.92,18.81Zm-36-20.58-24.36-14v4.29l24.36,14ZM304.11,398l-3.8-2.21v4.29l3.8,2.21Zm-6.86-4-22.65-13.22v4.29l22.65,13.22Z" transform="translate(-19.62 -28.47)"/><path class="cls-32" d="M331.53,464.84l-24.36-14v4.29l24.36,14Zm-27.42-15.78-3.8-2.21v4.29l3.8,2.21Zm-6.86-4-22.65-13.22v4.29l22.65,13.22Z" transform="translate(-19.62 -28.47)"/><path class="cls-32" d="M360.57,440.89l-11.92-6.65v4.29l11.92,6.65Zm-15-8.42-24.36-14v4.29l24.36,14Zm-27.42-15.78-25.36-14.63v4.29L318.16,421Zm-28.42-16.4-15.15-9v4.29l15.15,9Z" transform="translate(-19.62 -28.47)"/><path class="cls-32" d="M341.54,444.42l31,17.63v-4.29l-31-17.63Zm-15.93-9.15,12.87,7.38v-4.29L325.61,431Zm-29.54-17,26.48,15.28v-4.29l-26.48-15.28ZM293,412.17l-18.41-10.84v4.28L293,416.46Z" transform="translate(-19.62 -28.47)"/><path class="cls-32" d="M363.31,462.46,334.6,446.15v4.29l28.72,16.32Zm-31.78-18.09-24.36-14v4.29l24.36,14Zm-27.42-15.78-20.25-11.65v4.29l20.25,11.65Zm-23.31-13.42-6.2-3.78v4.29l6.2,3.78Z" transform="translate(-19.62 -28.47)"/><path class="cls-32" d="M336.88,462.26l35.62,20.08v-4.29L336.88,458Zm-11.27-6.7,8.2,4.93v-4.29l-8.2-4.93Zm-29.54-17,26.48,15.28v-4.29l-26.48-15.28ZM293,432.47l-18.41-10.84v4.28L293,436.75Z" transform="translate(-19.62 -28.47)"/><path class="cls-33" d="M328.56,140.78l-4.32-2.42v4.29l4.32,2.42Zm-7.38-4.19-15.77-9.08v4.29l15.77,9.08Zm-18.83-10.85L292.58,120v4.29l9.77,5.78Zm-12.83-7.55-15.15-9v4.29l15.15,9Z" transform="translate(-19.62 -28.47)"/><polygon class="cls-33" points="323.78 107.08 254.74 66.62 254.74 73.13 323.78 113.58 323.78 107.08"/><path class="cls-40" d="M237.59,287l-15.36-9v4.29l15.36,9Zm-18.42-10.73L213.6,273v4.29l5.57,3.33Zm-8.64-5.1-15.15-9v4.29l15.15,9Z" transform="translate(-19.62 -28.47)"/><polygon class="cls-40" points="226.01 249.03 175.76 219.65 175.76 226.15 226.01 255.53 226.01 249.03"/><polygon class="cls-32" points="225.83 141.55 190.57 120.87 190.57 125.34 225.83 146.02 225.83 141.55"/><path class="cls-28" d="M247.83,109.38c0,17.6-12.44,24.7-27.78,15.84S192.28,94.91,192.28,77.3s12.44-24.7,27.78-15.84S247.83,91.77,247.83,109.38Z" transform="translate(-19.62 -28.47)"/><path class="cls-41" d="M223,123.75c-15.34-8.86-27.78-30.31-27.78-47.91,0-8.38,2.84-14.34,7.45-17.37-6.32,2.19-10.38,8.8-10.38,18.84,0,17.6,12.44,39.06,27.78,47.91,8,4.64,15.25,4.87,20.33,1.54C235.62,128.4,229.57,127.56,223,123.75Z" transform="translate(-19.62 -28.47)"/><path class="cls-40" d="M206.63,150c0,4.31-3,6-6.8,3.88a15,15,0,0,1-6.8-11.73c0-4.31,3-6,6.8-3.88A15,15,0,0,1,206.63,150Z" transform="translate(-19.62 -28.47)"/><polygon class="cls-32" points="225.83 161.11 190.57 140.43 190.57 144.9 225.83 165.59 225.83 161.11"/><path class="cls-40" d="M206.63,169.58c0,4.31-3,6-6.8,3.88a15,15,0,0,1-6.8-11.73c0-4.31,3-6,6.8-3.88A15,15,0,0,1,206.63,169.58Z" transform="translate(-19.62 -28.47)"/><polygon class="cls-32" points="225.83 180.31 190.57 159.63 190.57 164.1 225.83 184.78 225.83 180.31"/><path class="cls-40" d="M206.63,188.77c0,4.31-3,6-6.8,3.88a15,15,0,0,1-6.8-11.73c0-4.31,3-6,6.8-3.88A15,15,0,0,1,206.63,188.77Z" transform="translate(-19.62 -28.47)"/><polygon class="cls-32" points="225.83 199.51 190.57 178.82 190.57 183.29 225.83 203.98 225.83 199.51"/><path class="cls-40" d="M206.63,208c0,4.31-3,6-6.8,3.88a15,15,0,0,1-6.8-11.73c0-4.31,3-6,6.8-3.88A15,15,0,0,1,206.63,208Z" transform="translate(-19.62 -28.47)"/><polygon class="cls-32" points="225.83 219.07 190.57 198.38 190.57 202.86 225.83 223.54 225.83 219.07"/><path class="cls-40" d="M206.63,227.53c0,4.31-3,6-6.8,3.88a15,15,0,0,1-6.8-11.73c0-4.31,3-6,6.8-3.88A15,15,0,0,1,206.63,227.53Z" transform="translate(-19.62 -28.47)"/><polygon class="cls-28" points="226.01 282.49 175.76 253.1 175.76 259.61 226.01 288.99 226.01 282.49"/><polygon class="cls-32" points="209.1 272.6 175.76 253.1 175.76 259.61 209.1 279.1 209.1 272.6"/><polygon class="cls-28" points="226.01 296.2 175.76 266.81 175.76 273.32 226.01 302.7 226.01 296.2"/><polygon class="cls-32" points="217.6 291.26 175.76 266.81 175.76 273.32 217.6 297.77 217.6 291.26"/><polygon class="cls-28" points="226.01 309.91 175.76 280.53 175.76 287.03 226.01 316.42 226.01 309.91"/><polygon class="cls-32" points="194.93 291.73 175.76 280.53 175.76 287.03 194.93 298.24 194.93 291.73"/><polygon class="cls-28" points="226.01 323.62 175.76 294.24 175.76 300.74 226.01 330.13 226.01 323.62"/><polygon class="cls-32" points="209.1 313.73 175.76 294.24 175.76 300.74 209.1 320.24 209.1 313.73"/><polygon class="cls-28" points="226.01 336.79 175.76 307.4 175.76 313.9 226.01 343.29 226.01 336.79"/><polygon class="cls-32" points="185.97 313.38 175.76 307.4 175.76 313.9 185.97 319.89 185.97 313.38"/><polygon class="cls-28" points="226.01 350.5 175.76 321.11 175.76 327.62 226.01 357 226.01 350.5"/><polygon class="cls-32" points="216.32 344.83 175.76 321.11 175.76 327.62 216.32 351.33 216.32 344.83"/><polygon class="cls-40" points="181.87 355.73 175.88 352.27 175.88 345.39 181.87 348.85 181.87 355.73"/><polygon class="cls-40" points="192.93 362.11 186.94 358.65 186.94 351.78 192.93 355.24 192.93 362.11"/><polygon class="cls-40" points="203.99 368.5 198 365.04 198 358.16 203.99 361.62 203.99 368.5"/><polygon class="cls-28" points="215.05 374.88 209.06 371.42 209.06 364.55 215.05 368.01 215.05 374.88"/><polygon class="cls-28" points="226.11 381.27 220.12 377.81 220.12 370.94 226.11 374.39 226.11 381.27"/><polygon class="cls-40" points="181.87 367.44 175.88 363.98 175.88 357.11 181.87 360.56 181.87 367.44"/><polygon class="cls-40" points="192.93 373.82 186.94 370.37 186.94 363.49 192.93 366.95 192.93 373.82"/><polygon class="cls-40" points="203.99 380.21 198 376.75 198 369.88 203.99 373.33 203.99 380.21"/><polygon class="cls-40" points="215.05 386.6 209.06 383.14 209.06 376.26 215.05 379.72 215.05 386.6"/><polygon class="cls-28" points="226.11 392.98 220.12 389.52 220.12 382.65 226.11 386.11 226.11 392.98"/><path class="cls-42" d="M177.17,77.34c0,21.77,15.38,48.31,34.36,59.26s34.36,2.19,34.36-19.59-15.38-48.31-34.36-59.26S177.17,55.57,177.17,77.34Z" transform="translate(-19.62 -28.47)"/><path class="cls-43" d="M350.06,275.06c-42.87-24.75-77.62-4.94-77.62,44.25s34.75,109.13,77.62,133.88,77.62,4.94,77.62-44.25S392.93,299.81,350.06,275.06Z" transform="translate(-19.62 -28.47)"/><path class="cls-44" d="M254.33,300.67c0,67.12,47.42,148.91,105.91,182.69S466.16,490.09,466.16,423,418.74,274.06,360.24,240.29,254.33,233.55,254.33,300.67Z" transform="translate(-19.62 -28.47)"/><path class="cls-45" d="M339.73,500.95c-16.78,3.69-28.41,11.76-28.41,21.12,0,12.85,21.93,23.27,49,23.27A98.67,98.67,0,0,0,376.37,544l61.86,34.74c4,2.31,11,2,15.58-.65,5.11-2.59,11.18-7.56,5-11.18l-57.45-32.25Z" transform="translate(-19.62 -28.47)"/><circle class="cls-46" cx="447.09" cy="566.84" r="13.15" transform="translate(-235.01 251.44) rotate(-28.32)"/><path class="cls-47" d="M417.05,477.93l-28.47,15.34,42.46,78.33h0l.06.12c2.47,4.58,10.84,4.85,18.7.62s12.23-11.38,9.77-16l-.07-.11h0Z" transform="translate(-19.62 -28.47)"/><ellipse class="cls-32" cx="402.85" cy="485.65" rx="16.17" ry="9.41" transform="translate(-201.79 220.74) rotate(-28.32)"/><path class="cls-48" d="M417.09,478l0,0c1.69,4.58-2.62,11.22-10.08,15.24-7.83,4.22-16.17,4-18.67-.58a5.55,5.55,0,0,0,.31.72c2.47,4.58,10.84,4.85,18.7.62S419.55,482.56,417.09,478Z" transform="translate(-19.62 -28.47)"/><path class="cls-46" d="M398.42,457.14l-16.93,9.12,12,22.34h0l0,0c1.48,2.75,6.46,2.91,11.13.39s7.28-6.77,5.81-9.49l0,0v0Z" transform="translate(-19.62 -28.47)"/><path class="cls-48" d="M398.57,415.82c-3.5,29.2-21.17,36.76-49.33,20.5-24-13.87-42.9-43.48-50.55-72.46l3.12,1.31.57.77,7.62-4.31-27.85-37.26-7.62,4.31,2,2.65-8.56,40.55L280,369.48c10.91,35.77,36.35,71.12,66,88.25,19,11,36.21,12.45,49,6.06,10.32-5.15,22.55-18.29,25.74-32.88l-14.92-20S398.63,415.32,398.57,415.82Z" transform="translate(-19.62 -28.47)"/><path class="cls-48" d="M289.25,331.4l7.62-4.31c5.66-24.92,22.88-30.38,49.16-15.2,20,11.57,40,31.28,49.69,55.18l-8.5,1.92-7.62,4.31,27.85,37.26,7.62-4.31,9.42-44.63-12.84,2.54c-12.67-30.59-35.16-59.09-60.84-73.91C318.86,271.81,287,283,277.75,310.77l11.69,15.65Z" transform="translate(-19.62 -28.47)"/><path class="cls-47" d="M366.43,393.66a48.2,48.2,0,0,1-9.92-11.88c-1.64-2.75-1.58-5.73,0-6.66a12.68,12.68,0,0,0,5.06-5.65c1.74.48,3.9-.16,3.9-2.54a9.43,9.43,0,0,0-2.51-6.42c-.43-10.41-4-21.11-16-28-4.19-2.42-7.34-3.18-9.7-2.73-.55.1-5.3,1.36-5.76,1.59-3.25,1.61-.26,5.1-.5,10.75-1.44-.32-2.51,1.09-2.51,3.52s2.16,5.51,3.9,7a56.52,56.52,0,0,0,5.06,11.5c1.6,2.77,1.65,5.82,0,6.67-2.71,1.41-6.13,1.57-9.92.42a7.44,7.44,0,0,0-4.15-.17c-.35.1-4.61,1.2-4.93,1.36-2.23,1.11.31,2.73.31,6.51v10.73a7.23,7.23,0,0,0,3.28,5.66l46,30.45c.8.46,5.31-1.15,5.88-1.36a2.15,2.15,0,0,0,1.19-2.21V411.48C375.19,405.29,371.45,397.95,366.43,393.66Z" transform="translate(-19.62 -28.47)"/><path class="cls-48" d="M363.34,394.55a48.2,48.2,0,0,1-9.92-11.88c-1.64-2.75-1.58-5.73,0-6.66a12.68,12.68,0,0,0,5.06-5.65c1.74.48,3.9-.16,3.9-2.54a9.43,9.43,0,0,0-2.51-6.42c-.43-10.41-4-21.11-16-28s-15.53-.32-16,9.6c-1.44-.32-2.51,1.09-2.51,3.52s2.16,5.51,3.9,7a56.52,56.52,0,0,0,5.06,11.5c1.6,2.77,1.65,5.82,0,6.67-2.71,1.41-6.13,1.57-9.92.42-5-1.52-8.76,1.51-8.76,7.7v10.73a7.23,7.23,0,0,0,3.28,5.66L368.81,425c1.81,1,3.28.21,3.28-1.87V412.37C372.1,406.18,368.36,398.83,363.34,394.55Z" transform="translate(-19.62 -28.47)"/><path class="cls-32" d="M361.57,395a48.2,48.2,0,0,1-9.92-11.88c-1.64-2.75-1.58-5.73,0-6.66a12.68,12.68,0,0,0,5.06-5.65c1.74.48,3.9-.16,3.9-2.54a9.43,9.43,0,0,0-2.51-6.42c-.43-10.41-4-21.11-16-28s-15.53-.32-16,9.6c-1.44-.32-2.51,1.09-2.51,3.52s2.16,5.51,3.9,7a56.52,56.52,0,0,0,5.06,11.5c1.6,2.77,1.65,5.82,0,6.67-2.71,1.41-6.13,1.57-9.92.42-5-1.52-8.76,1.51-8.76,7.7V391a7.23,7.23,0,0,0,3.28,5.66L367,425.42c1.81,1,3.28.21,3.28-1.87V412.81C370.33,406.62,366.59,399.27,361.57,395Z" transform="translate(-19.62 -28.47)"/><path class="cls-28" d="M344.2,312.66c20,11.57,37.58,33.91,47.3,57.82l-10.89,2.15,27.85,37.26,9.42-44.63L405,367.8c-12.67-30.59-35.16-59.09-60.84-73.91-31.94-18.44-59-10.1-68.28,17.65l14.34,19.19C295.93,305.81,317.92,297.48,344.2,312.66Z" transform="translate(-19.62 -28.47)"/><path class="cls-28" d="M344.2,439.72c-24-13.87-44.46-43.25-52.12-72.22l11.3-2.24L275.54,328l-9.42,44.63,12.07-2.39c10.91,35.77,36.35,71.12,66,88.25,34.24,19.77,62.85,8.75,70-24l-14.92-20C396.4,444.9,372.84,456.25,344.2,439.72Z" transform="translate(-19.62 -28.47)"/><path class="cls-41" d="M343.19,313.33c20,11.57,37.58,33.91,47.3,57.82L379.6,373.3l27.85,37.26,9.42-44.63L404,368.47c-12.67-30.59-35.16-59.09-60.84-73.91-31.94-18.44-59-10.1-68.28,17.65l14.34,19.19C294.91,306.49,316.9,298.16,343.19,313.33Z" transform="translate(-19.62 -28.47)"/><path class="cls-41" d="M343.19,440.39c-24-13.87-44.46-43.25-52.12-72.22l11.3-2.24-27.85-37.26-9.42,44.63,12.07-2.39c10.91,35.77,36.35,71.12,66,88.25,34.24,19.77,62.85,8.75,70-24l-14.92-20C395.38,445.58,371.83,456.93,343.19,440.39Z" transform="translate(-19.62 -28.47)"/><polygon class="cls-28" points="385.42 339.32 398.26 336.78 404.86 333.15 397.76 336.13 385.42 339.32"/><path class="cls-48" d="M156.56,228.9c0-15.54-11-34.47-24.51-42.28-6.53-3.77-12.46-4.26-16.85-2v0L109,187.94l1.76,3a24.8,24.8,0,0,0-1.27,8.22c0,15.54,11,34.47,24.51,42.28a25.19,25.19,0,0,0,7.94,3.08l1.8,3.09,4.9-2.62C153.53,242.67,156.56,237.07,156.56,228.9Z" transform="translate(-19.62 -28.47)"/><path class="cls-33" d="M151.34,231.72c0,15.54-11,21.79-24.51,14s-24.51-26.75-24.51-42.28,11-21.79,24.51-14S151.34,216.18,151.34,231.72Z" transform="translate(-19.62 -28.47)"/><path class="cls-28" d="M98.6,232.65a1,1,0,0,1-.89-.53q-1-1.82-1.88-3.68a1,1,0,1,1,1.84-.88q.86,1.81,1.83,3.58a1,1,0,0,1-.89,1.51Zm-4.22-9.26a1,1,0,0,1-1-.67q-.72-2-1.31-3.93a1,1,0,0,1,2-.58q.57,1.91,1.27,3.81a1,1,0,0,1-1,1.37Zm-2.73-9.8a1,1,0,0,1-1-.83c-.26-1.38-.46-2.77-.6-4.11a1,1,0,1,1,2-.21c.14,1.29.33,2.62.58,4a1,1,0,0,1-.81,1.19Z" transform="translate(-19.62 -28.47)"/><path class="cls-28" d="M150.79,232c0,15.54-11,21.79-24.51,14s-24.51-26.75-24.51-42.28,11-21.79,24.51-14S150.79,216.48,150.79,232Z" transform="translate(-19.62 -28.47)"/><path class="cls-48" d="M156.56,159.69c0-15.54-11-34.47-24.51-42.28-6.53-3.77-12.46-4.26-16.85-2v0L109,118.73l1.76,3a24.8,24.8,0,0,0-1.27,8.22c0,15.54,11,34.47,24.51,42.28a25.19,25.19,0,0,0,7.94,3.08l1.8,3.09,4.9-2.62C153.53,173.46,156.56,167.86,156.56,159.69Z" transform="translate(-19.62 -28.47)"/><path class="cls-33" d="M151.34,162.51c0,15.54-11,21.79-24.51,14s-24.51-26.75-24.51-42.28,11-21.79,24.51-14S151.34,147,151.34,162.51Z" transform="translate(-19.62 -28.47)"/><path class="cls-28" d="M100.78,167.16a1,1,0,0,1-.86-.48q-1.1-1.75-2.1-3.56a1,1,0,0,1,1.79-1q1,1.76,2,3.46a1,1,0,0,1-.32,1.4A1,1,0,0,1,100.78,167.16Zm-4.78-9a1,1,0,0,1-.93-.61q-.84-1.9-1.56-3.83a1,1,0,1,1,1.91-.71q.7,1.87,1.51,3.72a1,1,0,0,1-.93,1.43Zm-3.4-9.59a1,1,0,0,1-1-.76c-.36-1.36-.67-2.72-.93-4a1,1,0,1,1,2-.38c.24,1.28.54,2.59.89,3.9a1,1,0,0,1-.72,1.25A1.06,1.06,0,0,1,92.6,148.58Zm-1.7-10a1,1,0,0,1-1-.95q-.11-1.56-.11-3.1c0-.36,0-.71,0-1.07a1.05,1.05,0,0,1,1-1,1,1,0,0,1,1,1c0,.33,0,.67,0,1q0,1.47.1,3a1,1,0,0,1-.95,1.09Zm.55-10.14-.19,0a1,1,0,0,1-.81-1.19,34,34,0,0,1,1-4.07,1,1,0,0,1,1.94.63,32,32,0,0,0-1,3.82A1,1,0,0,1,91.45,128.41Zm3.49-9.52a1,1,0,0,1-.88-1.53,26.47,26.47,0,0,1,2.42-3.48,1,1,0,1,1,1.57,1.3,24.71,24.71,0,0,0-2.23,3.21A1,1,0,0,1,94.93,118.89Zm6.77-7.5a1,1,0,0,1-.59-1.85,23.45,23.45,0,0,1,3.67-2.13,1,1,0,0,1,.86,1.85,21.42,21.42,0,0,0-3.35,1.95A1,1,0,0,1,101.7,111.39Zm9.33-3.84a1,1,0,0,1-.17-2,26.45,26.45,0,0,1,4.22-.36h0a1,1,0,0,1,0,2,24.23,24.23,0,0,0-3.89.34Z" transform="translate(-19.62 -28.47)"/><path class="cls-28" d="M150.79,162.81c0,15.54-11,21.79-24.51,14S101.76,150,101.76,134.5s11-21.79,24.51-14S150.79,147.27,150.79,162.81Z" transform="translate(-19.62 -28.47)"/><path class="cls-48" d="M156.56,298.08c0-15.54-11-34.47-24.51-42.28-6.53-3.77-12.46-4.26-16.85-2v0L109,257.12l1.76,3a24.8,24.8,0,0,0-1.27,8.22c0,15.54,11,34.47,24.51,42.28a25.18,25.18,0,0,0,7.94,3.08l1.8,3.09,4.9-2.62C153.53,311.85,156.56,306.25,156.56,298.08Z" transform="translate(-19.62 -28.47)"/><path class="cls-33" d="M151.34,300.9c0,15.54-11,21.79-24.51,14s-24.51-26.75-24.51-42.28,11-21.79,24.51-14S151.34,285.36,151.34,300.9Z" transform="translate(-19.62 -28.47)"/><path class="cls-28" d="M137.28,330.53a28.49,28.49,0,0,1-4.21-.32,1,1,0,1,1,.3-2,26.91,26.91,0,0,0,3.91.29,1,1,0,1,1,0,2Zm-10-1.8a1,1,0,0,1-.34-.06,38.2,38.2,0,0,1-3.86-1.62,1,1,0,0,1,.89-1.83,36.85,36.85,0,0,0,3.65,1.53,1,1,0,0,1-.34,2Zm-9-4.62a1,1,0,0,1-.57-.17c-1.12-.75-2.24-1.57-3.35-2.45a1,1,0,1,1,1.27-1.6c1.07.85,2.15,1.64,3.22,2.35a1,1,0,0,1-.57,1.87Zm-7.85-6.47a1,1,0,0,1-.72-.29q-1.46-1.45-2.85-3a1,1,0,1,1,1.52-1.35q1.34,1.51,2.76,2.91a1,1,0,0,1-.72,1.74Zm-6.64-7.71a1,1,0,0,1-.82-.41q-1.22-1.66-2.36-3.4a1,1,0,1,1,1.71-1.11q1.1,1.69,2.29,3.3a1,1,0,0,1-.82,1.62Zm-5.44-8.61a1,1,0,0,1-.9-.54q-1-1.83-1.85-3.7a1,1,0,0,1,1.85-.86c.56,1.21,1.16,2.41,1.79,3.59a1,1,0,0,1-.42,1.38A1,1,0,0,1,98.32,301.32ZM94.18,292a1,1,0,0,1-1-.67q-.7-2-1.27-3.94a1,1,0,1,1,2-.56q.55,1.92,1.23,3.82a1,1,0,0,1-.61,1.3A1,1,0,0,1,94.18,292Zm-2.64-9.83a1,1,0,0,1-1-.84c-.24-1.37-.43-2.76-.56-4.11a1,1,0,0,1,.92-1.11A1,1,0,0,1,92,277c.12,1.31.3,2.64.54,4a1,1,0,0,1-.83,1.18Z" transform="translate(-19.62 -28.47)"/><path class="cls-28" d="M150.79,301.19c0,15.54-11,21.79-24.51,14s-24.51-26.75-24.51-42.28,11-21.79,24.51-14S150.79,285.66,150.79,301.19Z" transform="translate(-19.62 -28.47)"/><path class="cls-33" d="M138.79,281.12l-23.85-13.77c-1.46-.84-2.65.05-2.65,2v18.77a6.35,6.35,0,0,0,2.65,5.06l23.85,13.77c1.46.84,2.65-.05,2.65-2V286.18A6.35,6.35,0,0,0,138.79,281.12Zm1.39,25.09-9.4-15.89-3.92,2.77-3.91-7.3-9.41,5s7.7-6.15,8.48-6.77l-8.69-16.23,13.53,22.35s13.54-6.7,13.56-6.67l-8.71,6.16C132.57,291.34,140.19,306.2,140.18,306.2Z" transform="translate(-19.62 -28.47)"/><path class="cls-33" d="M133.88,215.05c2,6.21-.77,9.7-2.5,10.69s-6.19,1.62-10.58-3.24l-6.73,3.84c5.08,7.9,13.14,8.51,20.24,4.46s10.62-11.26,6.29-19.59Z" transform="translate(-19.62 -28.47)"/><path class="cls-33" d="M112.33,219.43l3.36-1.91c.94-.54,2.46.34,3.4,2l1.3,2.24-6.76,3.85-1.3-2.24C111.39,221.71,111.39,220,112.33,219.43Z" transform="translate(-19.62 -28.47)"/><path class="cls-33" d="M132.11,208.15l3.36-1.91c.94-.54,2.46.34,3.4,2l1.3,2.24-6.76,3.85-1.3-2.24C131.17,210.44,131.17,208.69,132.11,208.15Z" transform="translate(-19.62 -28.47)"/><path class="cls-33" d="M126.79,131c-7.4-4.27-13.39-.85-13.39,7.64,0,8.11,5.48,17.9,12.41,22.48v7.55l5.8-5.19c5,.67,8.57-2.84,8.57-9.38C140.18,145.62,134.18,135.28,126.79,131Zm-5.3,13.9c-.81.46-2.13-.3-2.95-1.7s-.81-2.92,0-3.38,2.13.3,2.95,1.7S122.3,144.45,121.49,144.91Zm6.77,3.91c-.81.46-2.13-.3-2.95-1.7s-.81-2.92,0-3.38,2.13.3,2.95,1.7S129.07,148.35,128.26,148.82Zm6.77,3.91c-.81.46-2.13-.3-2.95-1.7s-.81-2.92,0-3.38,2.13.3,2.95,1.7S135.84,152.26,135,152.72Z" transform="translate(-19.62 -28.47)"/><path class="cls-48" d="M566.08,321.77c0-15.54-11-34.47-24.51-42.28-6.53-3.77-12.46-4.26-16.85-2v0l-6.16,3.37,1.76,3a24.8,24.8,0,0,0-1.27,8.22c0,15.54,11,34.47,24.51,42.28a25.18,25.18,0,0,0,7.94,3.08l1.8,3.09,4.9-2.62C563,335.54,566.08,329.94,566.08,321.77Z" transform="translate(-19.62 -28.47)"/><path class="cls-33" d="M560.86,324.59c0,15.54-11,21.79-24.51,14s-24.51-26.75-24.51-42.28,11-21.79,24.51-14S560.86,309.06,560.86,324.59Z" transform="translate(-19.62 -28.47)"/><path class="cls-28" d="M571.37,340.54a1,1,0,0,1-.54-.16,1,1,0,0,1-.32-1.4,26.41,26.41,0,0,0,1.83-3.46,1,1,0,1,1,1.87.82,28.66,28.66,0,0,1-2,3.73A1,1,0,0,1,571.37,340.54Zm3.78-9.41-.22,0a1,1,0,0,1-.78-1.21,34.9,34.9,0,0,0,.62-3.91,1,1,0,1,1,2,.21,37.09,37.09,0,0,1-.66,4.13A1,1,0,0,1,575.15,331.13Zm.78-10.12a1,1,0,0,1-1-1c-.06-1.3-.19-2.64-.37-4a1,1,0,0,1,.87-1.14,1,1,0,0,1,1.14.87c.19,1.39.32,2.79.38,4.14a1,1,0,0,1-1,1.07ZM574.4,311a1,1,0,0,1-1-.77q-.48-1.93-1.1-3.86a1,1,0,1,1,1.94-.62c.42,1.32.81,2.66,1.14,4a1,1,0,0,1-.74,1.24Zm-3.26-9.64a1,1,0,0,1-.94-.62q-.79-1.84-1.69-3.65a1,1,0,0,1,1.82-.91q.93,1.86,1.74,3.75a1,1,0,0,1-.94,1.42Z" transform="translate(-19.62 -28.47)"/><path class="cls-28" d="M560.31,324.89c0,15.54-11,21.79-24.51,14s-24.51-26.75-24.51-42.28,11-21.79,24.51-14S560.31,309.35,560.31,324.89Z" transform="translate(-19.62 -28.47)"/><path class="cls-48" d="M566.08,391c0-15.54-11-34.47-24.51-42.28-6.53-3.77-12.46-4.26-16.85-2v0L518.55,350l1.76,3a24.8,24.8,0,0,0-1.27,8.22c0,15.54,11,34.47,24.51,42.28a25.19,25.19,0,0,0,7.94,3.08l1.8,3.09,4.9-2.62C563,404.73,566.08,399.12,566.08,391Z" transform="translate(-19.62 -28.47)"/><path class="cls-33" d="M560.86,393.77c0,15.54-11,21.79-24.51,14S511.83,381,511.83,365.47s11-21.79,24.51-14S560.86,378.24,560.86,393.77Z" transform="translate(-19.62 -28.47)"/><path class="cls-28" d="M551.5,420.63a1,1,0,1,1,0-2l1.17,0a.94.94,0,0,1,1.06,1,1,1,0,0,1-1,1.06Zm7.22-1.06a1,1,0,0,1-.3-2A21.34,21.34,0,0,0,562,416.1a1,1,0,1,1,.94,1.81,23,23,0,0,1-3.94,1.61A1,1,0,0,1,558.72,419.57Zm8.72-5.07a1,1,0,0,1-.7-1.76,22.51,22.51,0,0,0,2.6-2.9,1,1,0,1,1,1.63,1.23,24.62,24.62,0,0,1-2.83,3.16A1,1,0,0,1,567.45,414.5Zm5.79-8.29a1,1,0,0,1-.93-1.43,29.28,29.28,0,0,0,1.34-3.7,1,1,0,1,1,2,.56,31.17,31.17,0,0,1-1.43,4A1,1,0,0,1,573.24,406.21Zm2.54-9.82h-.11a1,1,0,0,1-.91-1.12,38.44,38.44,0,0,0,.2-4,1,1,0,1,1,2,0,40.35,40.35,0,0,1-.21,4.17A1,1,0,0,1,575.78,396.38Z" transform="translate(-19.62 -28.47)"/><path class="cls-28" d="M560.31,394.07c0,15.54-11,21.79-24.51,14s-24.51-26.75-24.51-42.28,11-21.79,24.51-14S560.31,378.53,560.31,394.07Z" transform="translate(-19.62 -28.47)"/><path class="cls-33" d="M540,321.67c.09-1.17,1.29-1.14,2.18.05,1.14,1.53,2.58,1,2.1-.71-.38-1.37.45-2.08,1.51-1.3,1.36,1,2.16-.45,1.16-2.1-.78-1.29-.48-2.61.54-2.4,1.3.27,1.3-1.85,0-3.08-1-1-1.32-2.63-.54-3,1-.51.19-2.88-1.16-3.45a2.84,2.84,0,0,1-1.51-3c.49-1.19-1-3.34-2.1-3.13-.89.17-2.09-1.19-2.18-2.47-.12-1.63-1.92-3.14-2.62-2.2-.55.74-1.88,0-2.42-1.4-.7-1.76-2.5-2.32-2.62-.83-.09,1.17-1.29,1.14-2.18-.05-1.14-1.53-2.58-1-2.1.71.38,1.37-.45,2.08-1.51,1.3-1.36-1-2.16.45-1.16,2.1.78,1.29.48,2.61-.54,2.4-1.3-.27-1.3,1.85,0,3.08,1,1,1.32,2.63.54,3-1,.51-.19,2.88,1.16,3.45a2.84,2.84,0,0,1,1.51,3c-.49,1.19,1,3.34,2.1,3.13.89-.16,2.09,1.19,2.18,2.47.12,1.63,1.92,3.14,2.62,2.2.55-.74,1.88,0,2.42,1.4C538.09,322.6,539.89,323.16,540,321.67Zm-3.83-6.77a14.93,14.93,0,0,1-6.78-11.69c0-4.29,3-6,6.78-3.86A14.93,14.93,0,0,1,543,311C543,315.33,539.92,317.06,536.18,314.9Zm-4.85,1.86a.87.87,0,0,0-.39-.63.3.3,0,0,0-.21,0,2,2,0,0,1-1.34-.3,5.28,5.28,0,0,1-2-2.39,3.68,3.68,0,0,1-.29-2.59l-4,7.86,6.15.87,2.34,8.41,3.51-6.94a1.92,1.92,0,0,1-1.34-.29A5.39,5.39,0,0,1,531.33,316.76Zm13.95,4.55a2.47,2.47,0,0,1-.29,2.25,1.56,1.56,0,0,1-2,.06,4.64,4.64,0,0,1-1.34-1.25.71.71,0,0,0-.21-.2c-.14-.08-.37-.1-.39.18-.11,1.39-1.16,1.88-2.44,1.14a4.58,4.58,0,0,1-1.34-1.26l3.51,11,2.34-5.71,6.15,6.23Z" transform="translate(-19.62 -28.47)"/><path class="cls-33" d="M534.18,367.59c-4.13-1.84-7.53,0-8.09,4.41-.45,3.53.84,7.73,3.08,11.27a11.72,11.72,0,0,1,2,6v2.34a4.13,4.13,0,0,0,1.87,3.23l4.54,2.62c1,.6,1.87.12,1.87-1.07V394c0-1.9.78-3.2,2-3.75,1.91-.84,3.11-3,3.11-6.15C544.55,377.85,539.79,370.09,534.18,367.59Z" transform="translate(-19.62 -28.47)"/><path class="cls-33" d="M532.84,397.31a3.93,3.93,0,0,0,1.78,3.08l1.3.75c1,.57,1.78.11,1.78-1V398.6l-4.87-2.81Z" transform="translate(-19.62 -28.47)"/><path class="cls-33" d="M526.53,365a5.63,5.63,0,0,1,1.12-.64l-4.09-7c-.31-.54-.81-.83-1.12-.65s-.31.75,0,1.29Z" transform="translate(-19.62 -28.47)"/><path class="cls-33" d="M517.92,367.86c-.44-.25-.8-.05-.8.45a1.75,1.75,0,0,0,.8,1.37l5.75,3.32a15.53,15.53,0,0,1,0-1.83Z" transform="translate(-19.62 -28.47)"/><path class="cls-33" d="M548.12,372.76c.31-.18.31-.75,0-1.29s-.81-.83-1.12-.65l-4.06,2.31q.6.95,1.12,1.94Z" transform="translate(-19.62 -28.47)"/><path class="cls-33" d="M536.07,365.92v-6.58a1.75,1.75,0,0,0-.8-1.37c-.44-.25-.8-.05-.8.45V365c.27.13.53.26.8.41S535.81,365.74,536.07,365.92Z" transform="translate(-19.62 -28.47)"/><path class="cls-33" d="M552.64,387.9l-5.74-3.31c0,.31,0,.63,0,.93s0,.6,0,.89l5.74,3.31c.44.25.8.05.8-.45A1.75,1.75,0,0,0,552.64,387.9Z" transform="translate(-19.62 -28.47)"/><path class="cls-39" d="M229.65,124.71c0-23.41-16.54-51.94-36.94-63.72-9.84-5.68-18.77-6.43-25.39-3.06l0,0L158,63l2.66,4.57a37.37,37.37,0,0,0-1.91,12.38c0,23.41,16.54,51.94,36.94,63.72a38,38,0,0,0,12,4.63l2.71,4.66,7.38-4C225.07,145.47,229.65,137,229.65,124.71Z" transform="translate(-19.62 -28.47)"/><path class="cls-33" d="M221.77,129c0,23.41-16.54,32.84-36.94,21.06s-36.94-40.31-36.94-63.72,16.54-32.84,36.94-21.06S221.77,105.55,221.77,129Z" transform="translate(-19.62 -28.47)"/><path class="cls-40" d="M220.95,129.41c0,23.41-16.54,32.84-36.94,21.06s-36.94-40.31-36.94-63.72S163.61,53.91,184,65.69,220.95,106,220.95,129.41Z" transform="translate(-19.62 -28.47)"/><path class="cls-33" d="M216.27,127c0,20.33-14.36,28.52-32.08,18.29s-32.08-35-32.08-55.33S166.48,61.4,184.2,71.63,216.27,106.63,216.27,127Z" transform="translate(-19.62 -28.47)"/><path class="cls-34" d="M196.69,117.14c0,16.35-27.62.4-27.62-15.95s6.18-23.76,13.81-19.36S196.69,100.8,196.69,117.14Z" transform="translate(-19.62 -28.47)"/><path class="cls-35" d="M203.75,142.66c-2.29-6.57-6.69-10.09-12.08-17.5l-8.54-4.07-8.55-5.79c-5.39,1.19-9.8-.38-12.08,3.55a9.24,9.24,0,0,0-.94,2.6c5.8,10,13.8,18.71,22.64,23.81,7.94,4.58,15.19,5.44,20.79,3.19A26.9,26.9,0,0,0,203.75,142.66Z" transform="translate(-19.62 -28.47)"/><path class="cls-35" d="M194.82,106.4a10.74,10.74,0,0,0-.31-2.51c-1.19-12.24-5.33-18-11.43-21.5s-10.73-2.36-11.53,9.2c0,.35-.08.78-.11,1.32-1.05-.22-1.73.71-1.4,3a8.62,8.62,0,0,0,2.39,5,34.61,34.61,0,0,0,4.48,10.53c.36,1.43.16,2.7-.69,3.19a7.41,7.41,0,0,1-1.64.69c4.72,8.34,12.36,12.75,17.08,9.86q-.81-1.16-1.53-2.4a5.37,5.37,0,0,1-.74-4.29,7.82,7.82,0,0,0,4-4.49c.14-.25.28-.48.4-.75,1.27.34,2.22-.56,2.41-2.25C196.49,108.6,195.87,107.4,194.82,106.4Z" transform="translate(-19.62 -28.47)"/><path class="cls-40" d="M196.3,148.08c0-5.73,1.4-10.09,3.63-12.46-2.26-3.08-5.09-6.1-8.26-10.46-4.72,2.89-12.36-1.52-17.08-9.86h0c-3.2.71-6.05.45-8.32.94a41.7,41.7,0,0,1,3.6,16.59c0,.08,0,.14,0,.22a57.47,57.47,0,0,0,14.35,12.21,31.2,31.2,0,0,0,12.15,4.26C196.33,149,196.3,148.55,196.3,148.08Z" transform="translate(-19.62 -28.47)"/><path class="cls-34" d="M181.55,86.47c2.73,7.19-3.24,11.26-7.63,10.4-2.61-5.08-6.33-.69-2.42-11.31,5.05-13.69,12.25-3.36,12.25-3.36Z" transform="translate(-19.62 -28.47)"/><path class="cls-34" d="M180.79,86.47c.78,7.69,7,9.14,9.28,16a20.41,20.41,0,0,1,.64,11.89s7.5-6.61,2.8-20.12S179.69,75.57,180.79,86.47Z" transform="translate(-19.62 -28.47)"/><path class="cls-40" d="M191.13,180.74a1,1,0,0,1-.51-.14l-3.53-2a1,1,0,0,1,1-1.76l3.53,2a1,1,0,0,1-.51,1.9Zm-8.82-5.09a1,1,0,0,1-.51-.14l-3.53-2a1,1,0,0,1,1-1.76l3.53,2a1,1,0,0,1-.51,1.9Zm-8.82-5.09a1,1,0,0,1-.51-.14l-3.53-2a1,1,0,0,1,1-1.76l3.53,2a1,1,0,0,1-.51,1.9Zm-8.82-5.09a1,1,0,0,1-.51-.14l-3.53-2a1,1,0,0,1,1-1.76l3.53,2a1,1,0,0,1-.51,1.9Z" transform="translate(-19.62 -28.47)"/><path class="cls-38" d="M503.63,363.43a1,1,0,0,1-.51-.14l-3.53-2a1,1,0,0,1,1-1.77l3.53,2a1,1,0,0,1-.51,1.9Zm-8.82-5.09a1,1,0,0,1-.51-.14l-3.53-2a1,1,0,0,1,1-1.76l3.53,2a1,1,0,0,1-.51,1.9ZM486,353.24a1,1,0,0,1-.51-.14l-3.53-2a1,1,0,0,1,1-1.76l3.53,2a1,1,0,0,1-.51,1.9Zm-8.82-5.09a1,1,0,0,1-.51-.14l-3.53-2a1,1,0,0,1,1-1.76l3.53,2a1,1,0,0,1-.51,1.9Zm-8.82-5.09a1,1,0,0,1-.51-.14l-3.53-2a1,1,0,0,1,1-1.76l3.53,2a1,1,0,0,1-.51,1.9ZM459.52,338a1,1,0,0,1-.51-.14l-3.53-2a1,1,0,0,1,1-1.76l3.53,2a1,1,0,0,1-.51,1.9Zm-8.82-5.09a1,1,0,0,1-.51-.14l-3.53-2a1,1,0,0,1,1-1.76l3.53,2a1,1,0,0,1-.51,1.9Zm-8.82-5.09a1,1,0,0,1-.51-.14l-3.53-2a1,1,0,0,1,1-1.76l3.53,2a1,1,0,0,1-.51,1.9Zm-8.82-5.09a1,1,0,0,1-.51-.14l-3.53-2a1,1,0,0,1,1-1.76l3.53,2a1,1,0,0,1-.51,1.9Z" transform="translate(-19.62 -28.47)"/><path class="cls-40" d="M172.39,234.22l-2.72-1.44a1,1,0,0,1,.74-1.89l0-1a1,1,0,1,1,2,0ZM164.74,230a1,1,0,0,1-.48-.12l-3.6-1.9a1,1,0,1,1,1-1.8l3.6,1.9a1,1,0,0,1-.48,1.92Zm6.8-5.25h0a1,1,0,0,1-1-1l.06-4.07a1,1,0,0,1,1-1,1,1,0,0,1,1,1l-.06,4.07A1,1,0,0,1,171.54,224.79Zm.16-10.19h0a1,1,0,0,1-1-1l.06-4.07a1,1,0,0,1,1-1,1,1,0,0,1,1,1l-.06,4.07A1,1,0,0,1,171.7,214.61Zm.16-10.19h0a1,1,0,0,1-1-1l.07-4.07a1.06,1.06,0,0,1,1-1,1,1,0,0,1,1,1l-.07,4.07A1,1,0,0,1,171.86,204.42Zm23.49-1.51a1,1,0,0,1-.51-.14l-.9-.52a1,1,0,0,1,1-1.76l.9.52a1,1,0,0,1-.51,1.9Zm-6.19-3.58a1,1,0,0,1-.51-.14l-3.53-2a1,1,0,0,1,1-1.76l3.53,2a1,1,0,0,1-.51,1.9Zm-8.82-5.09a1,1,0,0,1-.51-.14l-3.53-2a1,1,0,0,1,1-1.76l3.53,2a1,1,0,0,1-.51,1.9Zm-8.31,0h0a1,1,0,0,1-1-1l.06-4.07a1,1,0,0,1,2,0l-.06,4.07A1,1,0,0,1,172,194.24Z" transform="translate(-19.62 -28.47)"/><path class="cls-31" d="M484,310.13,479.92,308a1,1,0,1,1,1-1.8l1.29.68a1.08,1.08,0,0,1,.92-.52,1,1,0,0,1,1,1Zm-9-4.89a1,1,0,0,1-.48-.12l-3.6-1.9a1,1,0,0,1,1-1.8l3.6,1.9a1,1,0,0,1-.48,1.92Zm8.23-3h0a1,1,0,0,1-1-1l.12-4.07a1,1,0,0,1,1-1h0a1,1,0,0,1,1,1l-.12,4.07A1,1,0,0,1,483.22,302.27ZM504.91,294a1,1,0,0,1-.51-.14l-3.53-2a1,1,0,0,1,1-1.76l3.53,2a1,1,0,0,1-.51,1.9Zm-21.4-1.93h0a1,1,0,0,1-1-1l.12-4.07a1,1,0,1,1,2,.06l-.12,4.07A1,1,0,0,1,483.51,292.09Zm12.58-3.17a1,1,0,0,1-.51-.14l-3.53-2a1,1,0,0,1,1-1.76l3.53,2a1,1,0,0,1-.51,1.9Zm-8.82-5.09a1,1,0,0,1-.51-.14l-3.21-1.86a1,1,0,0,1-.76-1l0-1.79,4.94,2.86a1,1,0,0,1-.51,1.9Z" transform="translate(-19.62 -28.47)"/><path class="cls-40" d="M181.76,310.77l-3.42-1.95a1,1,0,1,1,1-1.77l.4.23v-.14a1,1,0,0,1,1-1h0a1,1,0,0,1,1,1Zm-8.23-4.83a1,1,0,0,1-.5-.13l-3.54-2a1,1,0,0,1,1-1.77l3.54,2a1,1,0,0,1-.5,1.9Zm7.28-3.88h0a1,1,0,0,1-1-1l0-4.07a1,1,0,0,1,1-1h0a1,1,0,0,1,1,1l0,4.07A1,1,0,0,1,180.82,302.06Zm-16.14-1.16a1,1,0,0,1-.5-.13l-3.54-2a1,1,0,1,1,1-1.77l3.54,2a1,1,0,0,1-.5,1.9Zm16.21-9h0a1,1,0,0,1-1-1l0-4.07a1,1,0,0,1,1-1h0a1,1,0,0,1,1,1l0,4.07A1,1,0,0,1,180.89,291.88Zm.07-10.19h0a1,1,0,0,1-1-1l0-4.07a1,1,0,0,1,1-1h0a1,1,0,0,1,1,1l0,4.07A1,1,0,0,1,181,281.69ZM181,271.5h0a1,1,0,0,1-1-1l0-4.07a1,1,0,0,1,1-1h0a1,1,0,0,1,1,1l0,4.07A1,1,0,0,1,181,271.5Zm.07-10.19h0a1,1,0,0,1-1-1l0-4.07a1,1,0,0,1,1-1h0a1,1,0,0,1,1,1l0,4.07A1,1,0,0,1,181.11,261.32Zm.08-10.19h0a1,1,0,0,1-1-1l0-4.07a1,1,0,0,1,1-1h0a1,1,0,0,1,1,1l0,4.07A1,1,0,0,1,181.19,251.13Zm.07-10.19h0a1,1,0,0,1-1-1l0-4.07a1,1,0,0,1,1-1h0a1,1,0,0,1,1,1l0,4.07A1,1,0,0,1,181.26,240.95Zm.07-10.19h0a1,1,0,0,1-1-1l0-4.07a1,1,0,0,1,1-1h0a1,1,0,0,1,1,1l0,4.07A1,1,0,0,1,181.34,230.76Zm14-8.1a1,1,0,0,1-.49-.13l-1-.53a1,1,0,0,1,1-1.78l1,.53a1,1,0,0,1-.49,1.91Zm-13.93-2.09h0a1,1,0,0,1-1-1l0-4.07a1,1,0,0,1,1-1h0a1,1,0,0,1,1,1l0,4.07A1,1,0,0,1,181.41,220.57Zm7.63-1.4a1,1,0,0,1-.49-.13l-3.57-2a1,1,0,0,1,1-1.78l3.57,2a1,1,0,0,1-.49,1.91Z" transform="translate(-19.62 -28.47)"/><path class="cls-45" d="M492.74,524.8c-3.65-2.11-3.67-5.52,0-7.61l30-17.3c5.06-2.92,13.31-2.9,18.4,0s5.11,7.7.06,10.62L514.34,526a2.25,2.25,0,0,1-2,0,.62.62,0,0,1,0-1.18l26.77-15.46c3.94-2.27,3.92-6,0-8.27a15.85,15.85,0,0,0-14.32,0l-30,17.3c-2.5,1.45-2.49,3.81,0,5.26a10.09,10.09,0,0,0,9.11,0l28.7-16.57a1.26,1.26,0,0,0,0-2.38,4.56,4.56,0,0,0-4.12,0l-23.91,13.81a.14.14,0,0,0,0,.27.52.52,0,0,0,.47,0l17.59-10.15a2.25,2.25,0,0,1,2,0,.62.62,0,0,1,0,1.18l-17.59,10.15a5,5,0,0,1-4.54,0c-1.26-.73-1.26-1.9,0-2.62l23.91-13.81a9.07,9.07,0,0,1,8.19,0c2.27,1.31,2.28,3.43,0,4.73l-28.7,16.57A14.6,14.6,0,0,1,492.74,524.8Z" transform="translate(-19.62 -28.47)"/><path class="cls-32" d="M492.74,524c-3.65-2.11-3.67-5.52,0-7.61l30-17.3c5.06-2.92,13.31-2.9,18.4,0s5.11,7.7.06,10.62l-26.77,15.46a2.25,2.25,0,0,1-2,0,.62.62,0,0,1,0-1.18l26.77-15.46c3.94-2.27,3.92-6,0-8.27a15.85,15.85,0,0,0-14.32,0l-30,17.3c-2.5,1.45-2.49,3.81,0,5.26a10.08,10.08,0,0,0,9.11,0l28.7-16.57a1.26,1.26,0,0,0,0-2.38,4.56,4.56,0,0,0-4.12,0l-23.91,13.81a.14.14,0,0,0,0,.27.52.52,0,0,0,.47,0l17.59-10.15a2.25,2.25,0,0,1,2,0,.62.62,0,0,1,0,1.18l-17.59,10.15a5,5,0,0,1-4.54,0c-1.26-.73-1.26-1.9,0-2.62l23.91-13.81a9.07,9.07,0,0,1,8.19,0c2.27,1.31,2.28,3.43,0,4.73l-28.7,16.57A14.6,14.6,0,0,1,492.74,524Z" transform="translate(-19.62 -28.47)"/><path class="cls-47" d="M532.57,503.15a4.56,4.56,0,0,0-4.12,0L504.54,517a.14.14,0,0,0,0,.27.52.52,0,0,0,.47,0l17.59-10.15a2,2,0,0,1,.67-.16l5.18-3a4.56,4.56,0,0,1,4.12,0,1.62,1.62,0,0,1,.73.81C533.52,504.19,533.31,503.59,532.57,503.15Z" transform="translate(-19.62 -28.47)"/><path class="cls-47" d="M502.51,519.17a5,5,0,0,0,4.54,0L524.64,509c.46-.26.52-.66.23-1a.91.91,0,0,1-.23.2L507,518.4a5,5,0,0,1-4.54,0,1.76,1.76,0,0,1-.82-.93A1.38,1.38,0,0,0,502.51,519.17Z" transform="translate(-19.62 -28.47)"/><path class="cls-47" d="M539,499.55a15.85,15.85,0,0,0-14.32,0l-30,17.3c-1.42.82-2,1.93-1.81,3a3.37,3.37,0,0,1,1.81-2.23l30-17.3a15.85,15.85,0,0,1,14.32,0,5.24,5.24,0,0,1,2.92,3.77C542.13,502.46,541.18,500.79,539,499.55Z" transform="translate(-19.62 -28.47)"/><path class="cls-47" d="M541.11,509l-26.77,15.46a2.25,2.25,0,0,1-2,0,1,1,0,0,1-.24-.21c-.29.31-.22.71.24,1a2.25,2.25,0,0,0,2,0l26.77-15.46c2.69-1.55,3.9-3.63,3.71-5.68C544.67,505.88,543.47,507.64,541.11,509Z" transform="translate(-19.62 -28.47)"/><path class="cls-47" d="M536.24,504.75a3.06,3.06,0,0,1-1.62,2l-28.7,16.57a14.6,14.6,0,0,1-13.19,0,4.85,4.85,0,0,1-2.68-3.44c-.18,1.51.68,3.06,2.68,4.21a14.6,14.6,0,0,0,13.19,0l28.7-16.57C535.91,506.74,536.44,505.73,536.24,504.75Z" transform="translate(-19.62 -28.47)"/><path class="cls-45" d="M198.25,475.7c3.65-2.11,3.67-5.52,0-7.61l-30-17.3c-5.06-2.92-13.31-2.9-18.4,0s-5.11,7.7-.06,10.62l26.77,15.46a2.25,2.25,0,0,0,2,0,.62.62,0,0,0,0-1.18l-26.77-15.46c-3.94-2.27-3.92-6,0-8.27a15.85,15.85,0,0,1,14.32,0l30,17.3c2.5,1.45,2.49,3.81,0,5.26a10.09,10.09,0,0,1-9.11,0L158.41,458a1.26,1.26,0,0,1,0-2.38,4.56,4.56,0,0,1,4.12,0l23.91,13.81a.14.14,0,0,1,0,.27.52.52,0,0,1-.47,0l-17.59-10.15a2.25,2.25,0,0,0-2,0,.62.62,0,0,0,0,1.18l17.59,10.15a5,5,0,0,0,4.54,0c1.26-.73,1.26-1.9,0-2.62L164.58,454.4a9.07,9.07,0,0,0-8.19,0c-2.27,1.31-2.28,3.43,0,4.73l28.7,16.57A14.6,14.6,0,0,0,198.25,475.7Z" transform="translate(-19.62 -28.47)"/><path class="cls-41" d="M198.25,474.75c3.65-2.11,3.67-5.52,0-7.61l-30-17.3c-5.06-2.92-13.31-2.9-18.4,0s-5.11,7.7-.06,10.62l26.77,15.46a2.25,2.25,0,0,0,2,0,.62.62,0,0,0,0-1.18l-26.77-15.46c-3.94-2.27-3.92-6,0-8.27a15.85,15.85,0,0,1,14.32,0l30,17.3c2.5,1.45,2.49,3.81,0,5.26a10.09,10.09,0,0,1-9.11,0L158.41,457a1.26,1.26,0,0,1,0-2.38,4.56,4.56,0,0,1,4.12,0l23.91,13.81a.14.14,0,0,1,0,.27.52.52,0,0,1-.47,0l-17.59-10.15a2.25,2.25,0,0,0-2,0,.62.62,0,0,0,0,1.18l17.59,10.15a5,5,0,0,0,4.54,0c1.26-.73,1.26-1.9,0-2.62l-23.91-13.81a9.07,9.07,0,0,0-8.19,0c-2.27,1.31-2.28,3.43,0,4.73l28.7,16.57A14.6,14.6,0,0,0,198.25,474.75Z" transform="translate(-19.62 -28.47)"/><path class="cls-48" d="M196.25,467.63l-30-17.3a15.85,15.85,0,0,0-14.32,0c-2.14,1.23-3.09,2.88-2.93,4.49A5.22,5.22,0,0,1,152,451a15.85,15.85,0,0,1,14.32,0l30,17.3a3.34,3.34,0,0,1,1.81,2.27C198.23,469.53,197.65,468.44,196.25,467.63Z" transform="translate(-19.62 -28.47)"/><path class="cls-48" d="M158.42,454.65a4.56,4.56,0,0,1,4.12,0l5.43,3.14a1.91,1.91,0,0,1,.42.1L186,468a.52.52,0,0,0,.47,0,.14.14,0,0,0,0-.27L162.54,454a4.56,4.56,0,0,0-4.12,0,1.26,1.26,0,0,0-.74,1.54A1.58,1.58,0,0,1,158.42,454.65Z" transform="translate(-19.62 -28.47)"/><path class="cls-48" d="M188.48,469.2a5,5,0,0,1-4.54,0l-17.59-10.16a.93.93,0,0,1-.28-.24c-.24.31-.16.68.28.93l17.59,10.16a5,5,0,0,0,4.54,0,1.39,1.39,0,0,0,.83-1.66A1.73,1.73,0,0,1,188.48,469.2Z" transform="translate(-19.62 -28.47)"/><path class="cls-48" d="M179,475a1,1,0,0,1-.29.25,2.25,2.25,0,0,1-2,0l-26.77-15.46c-2.37-1.37-3.58-3.15-3.72-4.95-.17,2,1,4.09,3.72,5.63l26.77,15.46a2.25,2.25,0,0,0,2,0C179.12,475.69,179.21,475.32,179,475Z" transform="translate(-19.62 -28.47)"/><path class="cls-48" d="M198.25,474.07a14.6,14.6,0,0,1-13.19,0l-28.7-16.57a3,3,0,0,1-1.63-2,2.66,2.66,0,0,0,1.63,2.69l28.7,16.57a14.6,14.6,0,0,0,13.19,0c2-1.14,2.85-2.67,2.69-4.17A4.82,4.82,0,0,1,198.25,474.07Z" transform="translate(-19.62 -28.47)"/><path class="cls-45" d="M214,483.21c-4.75.73-10.16-.72-12.06-3.24L186.2,459.16c-2.66-3.51.57-7.2,7.19-8.23s14.17,1,16.82,4.51L224.28,474c.29.39-.06.8-.8.91a2.16,2.16,0,0,1-1.86-.5l-14.07-18.6c-2.07-2.73-7.94-4.31-13.1-3.51s-7.66,3.67-5.6,6.4l15.74,20.82c1.32,1.74,5.05,2.74,8.33,2.24s4.88-2.33,3.56-4.08l-15.08-19.94c-.59-.79-2.28-1.24-3.77-1s-2.2,1.06-1.61,1.84l12.56,16.61a.5.5,0,0,0,.43.11c.17,0,.25-.12.18-.21L200,462.92c-.29-.39.06-.8.8-.91a2.16,2.16,0,0,1,1.86.5l9.24,12.22c.66.87-.14,1.78-1.78,2s-3.5-.25-4.16-1.11L193.39,459c-1.18-1.56.25-3.21,3.2-3.66s6.31.45,7.49,2l15.08,19.94C221.07,479.83,218.75,482.48,214,483.21Z" transform="translate(-19.62 -28.47)"/><path class="cls-32" d="M214,482.27c-4.75.73-10.16-.72-12.06-3.24L186.2,458.21c-2.66-3.51.57-7.2,7.19-8.23s14.17,1,16.82,4.51l14.07,18.6c.29.39-.06.8-.8.91a2.16,2.16,0,0,1-1.86-.5l-14.07-18.6c-2.07-2.73-7.94-4.31-13.1-3.51s-7.66,3.67-5.6,6.4l15.74,20.82c1.32,1.74,5.05,2.74,8.33,2.24s4.88-2.33,3.56-4.08l-15.08-19.94c-.59-.79-2.28-1.24-3.77-1s-2.2,1.06-1.61,1.84l12.56,16.61a.5.5,0,0,0,.43.11c.17,0,.25-.12.18-.21L200,462c-.29-.39.06-.8.8-.91a2.16,2.16,0,0,1,1.86.5l9.24,12.22c.66.87-.14,1.78-1.78,2s-3.5-.25-4.16-1.11l-12.56-16.61c-1.18-1.56.25-3.21,3.2-3.66s6.31.45,7.49,2l15.08,19.94C221.07,478.89,218.75,481.54,214,482.27Z" transform="translate(-19.62 -28.47)"/><path class="cls-47" d="M200.13,461.32c-.24.18-.33.42-.15.66l8.69,11.49a.52.52,0,0,0,.37.08c.17,0,.25-.12.18-.21Z" transform="translate(-19.62 -28.47)"/><path class="cls-47" d="M216.5,475.93,201.42,456c-.6-.79-2.28-1.24-3.77-1s-2.09,1-1.65,1.72a2.27,2.27,0,0,1,1.65-.87c1.48-.23,3.17.22,3.77,1l15.08,19.94a2.21,2.21,0,0,1,.38.79A1.87,1.87,0,0,0,216.5,475.93Z" transform="translate(-19.62 -28.47)"/><path class="cls-47" d="M224.13,472.9a1.43,1.43,0,0,1-.65.26,2.16,2.16,0,0,1-1.86-.5l-14.07-18.6c-2.07-2.73-7.94-4.31-13.1-3.51-4.19.65-6.58,2.67-6.24,4.87.32-1.85,2.6-3.46,6.24-4,5.15-.8,11,.78,13.1,3.51l14.07,18.6a2.16,2.16,0,0,0,1.86.5c.73-.11,1.09-.52.8-.91Z" transform="translate(-19.62 -28.47)"/><path class="cls-47" d="M193.39,458.09l12.56,16.61c.66.87,2.52,1.37,4.16,1.11s2.27-1,1.84-1.85a2.43,2.43,0,0,1-1.84,1c-1.63.25-3.5-.25-4.16-1.11l-12.56-16.61a2.08,2.08,0,0,1-.33-.66A1.68,1.68,0,0,0,193.39,458.09Z" transform="translate(-19.62 -28.47)"/><path class="cls-47" d="M214,481.41c-4.75.73-10.16-.72-12.06-3.24L186.2,457.36a4.19,4.19,0,0,1-.85-2.11,3.89,3.89,0,0,0,.85,3L201.95,479c1.91,2.52,7.32,4,12.06,3.24,3.88-.6,6.09-2.48,5.74-4.53C219.43,479.44,217.34,480.9,214,481.41Z" transform="translate(-19.62 -28.47)"/><path class="cls-30" d="M531.12,221.6a20.45,20.45,0,0,1,7.95,9.6,21.41,21.41,0,0,0,2.64-.89c1.65-.67,3.78-.41,6.12.94,5.21,3,9.43,10.29,9.43,16.27,0,10.92-18.7,14.71-18.7,14.71s-17.78-23.77-17.78-34.69c0-3-1.26-3.9.43-4.88.15-.08,3.53-1.88,3.68-2C526.56,220,528.74,220.22,531.12,221.6Z" transform="translate(-19.62 -28.47)"/><path class="cls-40" d="M570.79,246.44h-2c0-9.6-6.06-20.06-14.4-24.88A18.6,18.6,0,0,0,546,219l.1-2a20.63,20.63,0,0,1,9.31,2.88C564.31,225,570.79,236.16,570.79,246.44Z" transform="translate(-19.62 -28.47)"/><path class="cls-31" d="M528,223.3c3.63,2.1,6.78,6.27,8.35,10.63,1.58-2.54,4.72-3.08,8.35-1,5.21,3,9.43,10.29,9.43,16.27,0,10.92-17.78,14.16-17.78,14.16s-17.78-23.77-17.78-34.69C518.54,222.7,522.76,220.29,528,223.3Z" transform="translate(-19.62 -28.47)"/><g class="cls-49"><path class="cls-50" d="M527.46,223.52a21.52,21.52,0,0,1,8.77,10.64c.32-.52-.12-.32.32-.67-1.64-4.15-4.65-8.05-8.12-10.05-2.85-1.64-5-2-6.7-1A7.32,7.32,0,0,1,527.46,223.52Z" transform="translate(-19.62 -28.47)"/><path class="cls-50" d="M544.93,232.9c-2.84-1.64-5.06-1.67-6.47-.79a7.3,7.3,0,0,1,5.7,1.06c5.21,3,9.43,10.29,9.43,16.27,0,5.07-3.84,8.49-7.95,10.69,4.59-2.15,8.72-5.31,8.72-11C554.36,243.19,550.14,235.91,544.93,232.9Z" transform="translate(-19.62 -28.47)"/></g><polygon class="cls-38" points="133.56 346.55 125.06 348.43 128.06 338.78 119.81 326.84 130.16 332.57 133.56 323.31 136.96 336.5 147.32 342.72 139.06 345.14 142.06 358.24 133.56 346.55"/><polygon class="cls-37" points="139.06 345.14 142.06 358.24 142.06 358.24 142.06 358.24 143.97 357 141.12 344.54 139.06 345.14"/><polygon class="cls-37" points="130.16 332.57 130.86 330.67 121.71 325.6 120.08 326.93 122.55 328.36 130.16 332.57"/><polygon class="cls-37" points="138.87 335.26 135.47 322.07 133.56 323.31 133.56 323.31 136.96 336.5 147.31 342.72 147.32 342.72 149.22 341.48 138.87 335.26"/><polygon class="cls-33" points="139.06 345.14 142.06 358.24 142.06 358.24 142.06 358.24 139.69 344.95 139.06 345.14"/><polygon class="cls-33" points="130.16 332.57 130.38 331.99 120.08 326.93 122.55 328.36 130.16 332.57"/><polygon class="cls-33" points="137.54 336.19 133.56 323.31 133.56 323.31 136.96 336.5 147.31 342.72 147.32 342.72 137.54 336.19"/><polygon class="cls-38" points="103.61 329.42 95.11 331.3 98.11 321.66 89.86 309.71 100.21 315.45 103.61 306.19 107.01 319.37 117.37 325.59 109.11 328.01 112.11 341.12 103.61 329.42"/><polygon class="cls-37" points="109.11 328.01 112.11 341.12 112.11 341.12 112.11 341.12 114.02 339.87 111.16 327.41 109.11 328.01"/><polygon class="cls-37" points="100.21 315.45 100.91 313.54 91.76 308.47 90.13 309.8 92.6 311.23 100.21 315.45"/><polygon class="cls-37" points="108.91 318.13 105.51 304.94 103.61 306.19 103.61 306.19 107.01 319.37 117.36 325.59 117.37 325.59 119.27 324.35 108.91 318.13"/><polygon class="cls-33" points="109.11 328.01 112.11 341.12 112.11 341.12 112.11 341.12 109.74 327.83 109.11 328.01"/><polygon class="cls-33" points="100.21 315.45 100.43 314.86 90.13 309.8 92.6 311.23 100.21 315.45"/><polygon class="cls-33" points="107.59 319.07 103.61 306.19 103.61 306.19 107.01 319.37 117.36 325.59 117.37 325.59 107.59 319.07"/><polygon class="cls-38" points="73.66 312.29 65.16 314.17 68.16 304.53 59.9 292.58 70.26 298.32 73.66 289.06 77.06 302.25 87.41 308.47 79.16 310.88 82.16 323.99 73.66 312.29"/><polygon class="cls-37" points="79.16 310.88 82.16 323.99 82.16 323.99 82.16 323.99 84.06 322.75 81.21 310.28 79.16 310.88"/><polygon class="cls-37" points="70.26 298.32 70.96 296.41 61.81 291.34 60.18 292.67 62.65 294.1 70.26 298.32"/><polygon class="cls-37" points="78.96 301 75.56 287.82 73.66 289.06 73.66 289.06 77.06 302.25 87.41 308.46 87.41 308.47 89.32 307.23 78.96 301"/><polygon class="cls-33" points="79.16 310.88 82.16 323.99 82.16 323.99 82.16 323.99 79.78 310.7 79.16 310.88"/><polygon class="cls-33" points="70.26 298.32 70.47 297.73 60.18 292.67 62.65 294.1 70.26 298.32"/><polygon class="cls-33" points="77.64 301.94 73.66 289.06 73.66 289.06 77.06 302.25 87.41 308.46 87.41 308.47 77.64 301.94"/><polygon class="cls-38" points="43.71 295.16 35.21 297.04 38.2 287.4 29.95 275.46 40.31 281.19 43.71 271.93 47.11 285.12 57.46 291.34 49.21 293.75 52.21 306.86 43.71 295.16"/><polygon class="cls-37" points="49.21 293.75 52.21 306.86 52.21 306.86 52.21 306.86 54.11 305.62 51.26 293.15 49.21 293.75"/><polygon class="cls-37" points="40.31 281.19 41.01 279.29 31.86 274.22 30.23 275.54 32.7 276.98 40.31 281.19"/><polygon class="cls-37" points="49.01 283.88 45.61 270.69 43.71 271.93 43.71 271.93 47.11 285.12 57.46 291.34 57.46 291.34 59.36 290.1 49.01 283.88"/><polygon class="cls-33" points="49.21 293.75 52.21 306.86 52.21 306.86 52.21 306.86 49.83 293.57 49.21 293.75"/><polygon class="cls-33" points="40.31 281.19 40.52 280.6 30.23 275.54 32.7 276.98 40.31 281.19"/><polygon class="cls-33" points="47.68 284.81 43.71 271.93 43.71 271.93 47.11 285.12 57.46 291.34 57.46 291.34 47.68 284.81"/><polygon class="cls-38" points="13.76 278.04 5.25 279.92 8.25 270.27 0 258.33 10.35 264.06 13.76 254.8 17.16 267.99 27.51 274.21 19.26 276.63 22.25 289.73 13.76 278.04"/><polygon class="cls-37" points="19.26 276.63 22.25 289.73 22.25 289.73 22.25 289.73 24.16 288.49 21.31 276.03 19.26 276.63"/><polygon class="cls-37" points="10.35 264.07 11.05 262.16 1.9 257.09 0.27 258.42 2.74 259.85 10.35 264.07"/><polygon class="cls-37" points="19.06 266.75 15.66 253.56 13.76 254.8 13.76 254.81 17.16 267.99 27.51 274.21 27.51 274.21 29.41 272.97 19.06 266.75"/><polygon class="cls-33" points="19.26 276.63 22.25 289.73 22.25 289.73 22.25 289.73 19.88 276.44 19.26 276.63"/><polygon class="cls-33" points="10.35 264.07 10.57 263.48 0.27 258.42 2.74 259.85 10.35 264.07"/><polygon class="cls-33" points="17.73 267.68 13.76 254.8 13.76 254.81 17.16 267.99 27.51 274.21 27.51 274.21 17.73 267.68"/><path class="cls-31" d="M183.12,163.6c-27.73-16-50.29-54.92-50.29-86.74,0-15.57,5.32-27.21,15-32.79s22.65-4.37,36.33,3.53a81.44,81.44,0,0,1,13.45,9.85L196.23,59a79.34,79.34,0,0,0-13.12-9.6c-13-7.52-25.21-8.77-34.29-3.53s-14,16.22-14,31c0,31.17,22.1,69.29,49.27,85Z" transform="translate(-19.62 -28.47)"/><path class="cls-31" d="M199.59,60.32l-7.71-1.93a1,1,0,1,1,.49-2l4,1-1.41-3.82a1,1,0,0,1,1.91-.71Z" transform="translate(-19.62 -28.47)"/><path class="cls-31" d="M188.39,165.14c0,2.3-1.62,3.22-3.62,2.07a8,8,0,0,1-3.62-6.25c0-2.3,1.62-3.22,3.62-2.07A8,8,0,0,1,188.39,165.14Z" transform="translate(-19.62 -28.47)"/><path class="cls-40" d="M573.39,249.56c0,2.3-1.62,3.22-3.62,2.07a8,8,0,0,1-3.62-6.25c0-2.3,1.62-3.22,3.62-2.07A8,8,0,0,1,573.39,249.56Z" transform="translate(-19.62 -28.47)"/><path class="cls-40" d="M549.7,223a1,1,0,0,1-.69-.27l-5.91-5.39,7.77-2.76a1,1,0,0,1,.68,1.92L547,218.15l3.41,3.11a1,1,0,0,1-.69,1.77Z" transform="translate(-19.62 -28.47)"/></g></g></svg>